<svg width="1363" height="163" viewBox="0 0 1363 163" fill="none" xmlns="http://www.w3.org/2000/svg">
<path d="M0 15C0 6.71573 6.71573 0 15 0H37V163H15C6.71573 163 0 156.284 0 148V15Z" fill="#424242"/>
<rect width="1097" height="163" transform="translate(37)" fill="#F0F0F0"/>
<path d="M101.906 53.9219L94.3945 51.2383V48.0859L104.602 52.375V54.6367L101.906 53.9219ZM94.3945 56.1719L101.918 53.4297L104.602 52.7852V55.0352L94.3945 59.3242V56.1719ZM122.789 55.3398H126.293C126.223 56.4883 125.906 57.5078 125.344 58.3984C124.789 59.2891 124.012 59.9844 123.012 60.4844C122.02 60.9844 120.824 61.2344 119.426 61.2344C118.332 61.2344 117.352 61.0469 116.484 60.6719C115.617 60.2891 114.875 59.7422 114.258 59.0312C113.648 58.3203 113.184 57.4609 112.863 56.4531C112.543 55.4453 112.383 54.3164 112.383 53.0664V51.8828C112.383 50.6328 112.547 49.5039 112.875 48.4961C113.211 47.4805 113.688 46.6172 114.305 45.9062C114.93 45.1953 115.676 44.6484 116.543 44.2656C117.41 43.8828 118.379 43.6914 119.449 43.6914C120.871 43.6914 122.07 43.9492 123.047 44.4648C124.031 44.9805 124.793 45.6914 125.332 46.5977C125.879 47.5039 126.207 48.5352 126.316 49.6914H122.801C122.762 49.0039 122.625 48.4219 122.391 47.9453C122.156 47.4609 121.801 47.0977 121.324 46.8555C120.855 46.6055 120.23 46.4805 119.449 46.4805C118.863 46.4805 118.352 46.5898 117.914 46.8086C117.477 47.0273 117.109 47.3594 116.812 47.8047C116.516 48.25 116.293 48.8125 116.145 49.4922C116.004 50.1641 115.934 50.9531 115.934 51.8594V53.0664C115.934 53.9492 116 54.7266 116.133 55.3984C116.266 56.0625 116.469 56.625 116.742 57.0859C117.023 57.5391 117.383 57.8828 117.82 58.1172C118.266 58.3438 118.801 58.457 119.426 58.457C120.16 58.457 120.766 58.3398 121.242 58.1055C121.719 57.8711 122.082 57.5234 122.332 57.0625C122.59 56.6016 122.742 56.0273 122.789 55.3398ZM132.152 59.5703L135.516 48.3203H139.137L134.039 62.9102C133.93 63.2305 133.781 63.5742 133.594 63.9414C133.414 64.3086 133.168 64.6562 132.855 64.9844C132.551 65.3203 132.164 65.5938 131.695 65.8047C131.234 66.0156 130.668 66.1211 129.996 66.1211C129.676 66.1211 129.414 66.1016 129.211 66.0625C129.008 66.0234 128.766 65.9688 128.484 65.8984V63.4258C128.57 63.4258 128.66 63.4258 128.754 63.4258C128.848 63.4336 128.938 63.4375 129.023 63.4375C129.469 63.4375 129.832 63.3867 130.113 63.2852C130.395 63.1836 130.621 63.0273 130.793 62.8164C130.965 62.6133 131.102 62.3477 131.203 62.0195L132.152 59.5703ZM130.746 48.3203L133.5 57.5078L133.98 61.082L131.684 61.3281L127.125 48.3203H130.746ZM140.484 43H143.859V58.0938L143.52 61H140.484V43ZM151.887 54.5312V54.7773C151.887 55.7227 151.785 56.5898 151.582 57.3789C151.387 58.168 151.082 58.8516 150.668 59.4297C150.254 60 149.738 60.4453 149.121 60.7656C148.512 61.0781 147.793 61.2344 146.965 61.2344C146.191 61.2344 145.52 61.0781 144.949 60.7656C144.387 60.4531 143.914 60.0117 143.531 59.4414C143.148 58.8711 142.84 58.2031 142.605 57.4375C142.371 56.6719 142.195 55.8359 142.078 54.9297V54.3906C142.195 53.4844 142.371 52.6484 142.605 51.8828C142.84 51.1172 143.148 50.4492 143.531 49.8789C143.914 49.3086 144.387 48.8672 144.949 48.5547C145.512 48.2422 146.176 48.0859 146.941 48.0859C147.777 48.0859 148.504 48.2461 149.121 48.5664C149.746 48.8789 150.262 49.3242 150.668 49.9023C151.082 50.4727 151.387 51.1523 151.582 51.9414C151.785 52.7227 151.887 53.5859 151.887 54.5312ZM148.512 54.7773V54.5312C148.512 54.0156 148.473 53.5312 148.395 53.0781C148.324 52.6172 148.199 52.2148 148.02 51.8711C147.84 51.5195 147.594 51.2422 147.281 51.0391C146.977 50.8359 146.582 50.7344 146.098 50.7344C145.637 50.7344 145.246 50.8125 144.926 50.9688C144.605 51.125 144.34 51.3438 144.129 51.625C143.926 51.9062 143.773 52.2422 143.672 52.6328C143.57 53.0156 143.508 53.4375 143.484 53.8984V55.4336C143.508 56.0508 143.609 56.5977 143.789 57.0742C143.977 57.543 144.258 57.9141 144.633 58.1875C145.016 58.4531 145.512 58.5859 146.121 58.5859C146.598 58.5859 146.992 58.4922 147.305 58.3047C147.617 58.1172 147.859 57.8516 148.031 57.5078C148.211 57.1641 148.336 56.7617 148.406 56.3008C148.477 55.832 148.512 55.3242 148.512 54.7773ZM159.82 61.2344C158.836 61.2344 157.953 61.0781 157.172 60.7656C156.391 60.4453 155.727 60.0039 155.18 59.4414C154.641 58.8789 154.227 58.2266 153.938 57.4844C153.648 56.7344 153.504 55.9375 153.504 55.0938V54.625C153.504 53.6641 153.641 52.7852 153.914 51.9883C154.188 51.1914 154.578 50.5 155.086 49.9141C155.602 49.3281 156.227 48.8789 156.961 48.5664C157.695 48.2461 158.523 48.0859 159.445 48.0859C160.344 48.0859 161.141 48.2344 161.836 48.5312C162.531 48.8281 163.113 49.25 163.582 49.7969C164.059 50.3438 164.418 51 164.66 51.7656C164.902 52.5234 165.023 53.3672 165.023 54.2969V55.7031H154.945V53.4531H161.707V53.1953C161.707 52.7266 161.621 52.3086 161.449 51.9414C161.285 51.5664 161.035 51.2695 160.699 51.0508C160.363 50.832 159.934 50.7227 159.41 50.7227C158.965 50.7227 158.582 50.8203 158.262 51.0156C157.941 51.2109 157.68 51.4844 157.477 51.8359C157.281 52.1875 157.133 52.6016 157.031 53.0781C156.938 53.5469 156.891 54.0625 156.891 54.625V55.0938C156.891 55.6016 156.961 56.0703 157.102 56.5C157.25 56.9297 157.457 57.3008 157.723 57.6133C157.996 57.9258 158.324 58.168 158.707 58.3398C159.098 58.5117 159.539 58.5977 160.031 58.5977C160.641 58.5977 161.207 58.4805 161.73 58.2461C162.262 58.0039 162.719 57.6406 163.102 57.1562L164.742 58.9375C164.477 59.3203 164.113 59.6875 163.652 60.0391C163.199 60.3906 162.652 60.6797 162.012 60.9062C161.371 61.125 160.641 61.2344 159.82 61.2344ZM170.32 51.0859V61H166.945V48.3203H170.121L170.32 51.0859ZM174.141 48.2383L174.082 51.3672C173.918 51.3438 173.719 51.3242 173.484 51.3086C173.258 51.2852 173.051 51.2734 172.863 51.2734C172.387 51.2734 171.973 51.3359 171.621 51.4609C171.277 51.5781 170.988 51.7539 170.754 51.9883C170.527 52.2227 170.355 52.5078 170.238 52.8438C170.129 53.1797 170.066 53.5625 170.051 53.9922L169.371 53.7812C169.371 52.9609 169.453 52.207 169.617 51.5195C169.781 50.8242 170.02 50.2188 170.332 49.7031C170.652 49.1875 171.043 48.7891 171.504 48.5078C171.965 48.2266 172.492 48.0859 173.086 48.0859C173.273 48.0859 173.465 48.1016 173.66 48.1328C173.855 48.1562 174.016 48.1914 174.141 48.2383ZM188.859 46.8555L184.219 61H180.48L186.82 43.9375H189.199L188.859 46.8555ZM192.715 61L188.062 46.8555L187.688 43.9375H190.09L196.465 61H192.715ZM192.504 54.6484V57.4023H183.492V54.6484H192.504ZM201.562 58.5391L204.375 48.3203H207.902L203.625 61H201.492L201.562 58.5391ZM199.629 48.3203L202.453 58.5508L202.512 61H200.367L196.09 48.3203H199.629ZM216.07 58.1406V52.4922C216.07 52.0859 216.004 51.7383 215.871 51.4492C215.738 51.1523 215.531 50.9219 215.25 50.7578C214.977 50.5938 214.621 50.5117 214.184 50.5117C213.809 50.5117 213.484 50.5781 213.211 50.7109C212.938 50.8359 212.727 51.0195 212.578 51.2617C212.43 51.4961 212.355 51.7734 212.355 52.0938H208.98C208.98 51.5547 209.105 51.043 209.355 50.5586C209.605 50.0742 209.969 49.6484 210.445 49.2812C210.922 48.9062 211.488 48.6133 212.145 48.4023C212.809 48.1914 213.551 48.0859 214.371 48.0859C215.355 48.0859 216.23 48.25 216.996 48.5781C217.762 48.9062 218.363 49.3984 218.801 50.0547C219.246 50.7109 219.469 51.5312 219.469 52.5156V57.9414C219.469 58.6367 219.512 59.207 219.598 59.6523C219.684 60.0898 219.809 60.4727 219.973 60.8008V61H216.562C216.398 60.6562 216.273 60.2266 216.188 59.7109C216.109 59.1875 216.07 58.6641 216.07 58.1406ZM216.516 53.2773L216.539 55.1875H214.652C214.207 55.1875 213.82 55.2383 213.492 55.3398C213.164 55.4414 212.895 55.5859 212.684 55.7734C212.473 55.9531 212.316 56.1641 212.215 56.4062C212.121 56.6484 212.074 56.9141 212.074 57.2031C212.074 57.4922 212.141 57.7539 212.273 57.9883C212.406 58.2148 212.598 58.3945 212.848 58.5273C213.098 58.6523 213.391 58.7148 213.727 58.7148C214.234 58.7148 214.676 58.6133 215.051 58.4102C215.426 58.207 215.715 57.957 215.918 57.6602C216.129 57.3633 216.238 57.082 216.246 56.8164L217.137 58.2461C217.012 58.5664 216.84 58.8984 216.621 59.2422C216.41 59.5859 216.141 59.9102 215.812 60.2148C215.484 60.5117 215.09 60.7578 214.629 60.9531C214.168 61.1406 213.621 61.2344 212.988 61.2344C212.184 61.2344 211.453 61.0742 210.797 60.7539C210.148 60.4258 209.633 59.9766 209.25 59.4062C208.875 58.8281 208.688 58.1719 208.688 57.4375C208.688 56.7734 208.812 56.1836 209.062 55.668C209.312 55.1523 209.68 54.7188 210.164 54.3672C210.656 54.0078 211.27 53.7383 212.004 53.5586C212.738 53.3711 213.59 53.2773 214.559 53.2773H216.516ZM225.633 43V61H222.246V43H225.633ZM235.266 58.1406V52.4922C235.266 52.0859 235.199 51.7383 235.066 51.4492C234.934 51.1523 234.727 50.9219 234.445 50.7578C234.172 50.5938 233.816 50.5117 233.379 50.5117C233.004 50.5117 232.68 50.5781 232.406 50.7109C232.133 50.8359 231.922 51.0195 231.773 51.2617C231.625 51.4961 231.551 51.7734 231.551 52.0938H228.176C228.176 51.5547 228.301 51.043 228.551 50.5586C228.801 50.0742 229.164 49.6484 229.641 49.2812C230.117 48.9062 230.684 48.6133 231.34 48.4023C232.004 48.1914 232.746 48.0859 233.566 48.0859C234.551 48.0859 235.426 48.25 236.191 48.5781C236.957 48.9062 237.559 49.3984 237.996 50.0547C238.441 50.7109 238.664 51.5312 238.664 52.5156V57.9414C238.664 58.6367 238.707 59.207 238.793 59.6523C238.879 60.0898 239.004 60.4727 239.168 60.8008V61H235.758C235.594 60.6562 235.469 60.2266 235.383 59.7109C235.305 59.1875 235.266 58.6641 235.266 58.1406ZM235.711 53.2773L235.734 55.1875H233.848C233.402 55.1875 233.016 55.2383 232.688 55.3398C232.359 55.4414 232.09 55.5859 231.879 55.7734C231.668 55.9531 231.512 56.1641 231.41 56.4062C231.316 56.6484 231.27 56.9141 231.27 57.2031C231.27 57.4922 231.336 57.7539 231.469 57.9883C231.602 58.2148 231.793 58.3945 232.043 58.5273C232.293 58.6523 232.586 58.7148 232.922 58.7148C233.43 58.7148 233.871 58.6133 234.246 58.4102C234.621 58.207 234.91 57.957 235.113 57.6602C235.324 57.3633 235.434 57.082 235.441 56.8164L236.332 58.2461C236.207 58.5664 236.035 58.8984 235.816 59.2422C235.605 59.5859 235.336 59.9102 235.008 60.2148C234.68 60.5117 234.285 60.7578 233.824 60.9531C233.363 61.1406 232.816 61.2344 232.184 61.2344C231.379 61.2344 230.648 61.0742 229.992 60.7539C229.344 60.4258 228.828 59.9766 228.445 59.4062C228.07 58.8281 227.883 58.1719 227.883 57.4375C227.883 56.7734 228.008 56.1836 228.258 55.668C228.508 55.1523 228.875 54.7188 229.359 54.3672C229.852 54.0078 230.465 53.7383 231.199 53.5586C231.934 53.3711 232.785 53.2773 233.754 53.2773H235.711ZM244.57 51.0273V61H241.195V48.3203H244.359L244.57 51.0273ZM244.078 54.2148H243.164C243.164 53.2773 243.285 52.4336 243.527 51.6836C243.77 50.9258 244.109 50.2812 244.547 49.75C244.984 49.2109 245.504 48.8008 246.105 48.5195C246.715 48.2305 247.395 48.0859 248.145 48.0859C248.738 48.0859 249.281 48.1719 249.773 48.3438C250.266 48.5156 250.688 48.7891 251.039 49.1641C251.398 49.5391 251.672 50.0352 251.859 50.6523C252.055 51.2695 252.152 52.0234 252.152 52.9141V61H248.754V52.9023C248.754 52.3398 248.676 51.9023 248.52 51.5898C248.363 51.2773 248.133 51.0586 247.828 50.9336C247.531 50.8008 247.164 50.7344 246.727 50.7344C246.273 50.7344 245.879 50.8242 245.543 51.0039C245.215 51.1836 244.941 51.4336 244.723 51.7539C244.512 52.0664 244.352 52.4336 244.242 52.8555C244.133 53.2773 244.078 53.7305 244.078 54.2148ZM259.957 58.5977C260.371 58.5977 260.738 58.5195 261.059 58.3633C261.379 58.1992 261.629 57.9727 261.809 57.6836C261.996 57.3867 262.094 57.0391 262.102 56.6406H265.277C265.27 57.5312 265.031 58.3242 264.562 59.0195C264.094 59.707 263.465 60.25 262.676 60.6484C261.887 61.0391 261.004 61.2344 260.027 61.2344C259.043 61.2344 258.184 61.0703 257.449 60.7422C256.723 60.4141 256.117 59.9609 255.633 59.3828C255.148 58.7969 254.785 58.1172 254.543 57.3438C254.301 56.5625 254.18 55.7266 254.18 54.8359V54.4961C254.18 53.5977 254.301 52.7617 254.543 51.9883C254.785 51.207 255.148 50.5273 255.633 49.9492C256.117 49.3633 256.723 48.9062 257.449 48.5781C258.176 48.25 259.027 48.0859 260.004 48.0859C261.043 48.0859 261.953 48.2852 262.734 48.6836C263.523 49.082 264.141 49.6523 264.586 50.3945C265.039 51.1289 265.27 52 265.277 53.0078H262.102C262.094 52.5859 262.004 52.2031 261.832 51.8594C261.668 51.5156 261.426 51.2422 261.105 51.0391C260.793 50.8281 260.406 50.7227 259.945 50.7227C259.453 50.7227 259.051 50.8281 258.738 51.0391C258.426 51.2422 258.184 51.5234 258.012 51.8828C257.84 52.2344 257.719 52.6367 257.648 53.0898C257.586 53.5352 257.555 54.0039 257.555 54.4961V54.8359C257.555 55.3281 257.586 55.8008 257.648 56.2539C257.711 56.707 257.828 57.1094 258 57.4609C258.18 57.8125 258.426 58.0898 258.738 58.293C259.051 58.4961 259.457 58.5977 259.957 58.5977ZM270.527 43V61H267.152V43H270.527ZM270.047 54.2148H269.121C269.129 53.332 269.246 52.5195 269.473 51.7773C269.699 51.0273 270.023 50.3789 270.445 49.832C270.867 49.2773 271.371 48.8477 271.957 48.543C272.551 48.2383 273.207 48.0859 273.926 48.0859C274.551 48.0859 275.117 48.1758 275.625 48.3555C276.141 48.5273 276.582 48.8086 276.949 49.1992C277.324 49.582 277.613 50.0859 277.816 50.7109C278.02 51.3359 278.121 52.0938 278.121 52.9844V61H274.723V52.9609C274.723 52.3984 274.641 51.957 274.477 51.6367C274.32 51.3086 274.09 51.0781 273.785 50.9453C273.488 50.8047 273.121 50.7344 272.684 50.7344C272.199 50.7344 271.785 50.8242 271.441 51.0039C271.105 51.1836 270.836 51.4336 270.633 51.7539C270.43 52.0664 270.281 52.4336 270.188 52.8555C270.094 53.2773 270.047 53.7305 270.047 54.2148ZM286.523 61.2344C285.539 61.2344 284.656 61.0781 283.875 60.7656C283.094 60.4453 282.43 60.0039 281.883 59.4414C281.344 58.8789 280.93 58.2266 280.641 57.4844C280.352 56.7344 280.207 55.9375 280.207 55.0938V54.625C280.207 53.6641 280.344 52.7852 280.617 51.9883C280.891 51.1914 281.281 50.5 281.789 49.9141C282.305 49.3281 282.93 48.8789 283.664 48.5664C284.398 48.2461 285.227 48.0859 286.148 48.0859C287.047 48.0859 287.844 48.2344 288.539 48.5312C289.234 48.8281 289.816 49.25 290.285 49.7969C290.762 50.3438 291.121 51 291.363 51.7656C291.605 52.5234 291.727 53.3672 291.727 54.2969V55.7031H281.648V53.4531H288.41V53.1953C288.41 52.7266 288.324 52.3086 288.152 51.9414C287.988 51.5664 287.738 51.2695 287.402 51.0508C287.066 50.832 286.637 50.7227 286.113 50.7227C285.668 50.7227 285.285 50.8203 284.965 51.0156C284.645 51.2109 284.383 51.4844 284.18 51.8359C283.984 52.1875 283.836 52.6016 283.734 53.0781C283.641 53.5469 283.594 54.0625 283.594 54.625V55.0938C283.594 55.6016 283.664 56.0703 283.805 56.5C283.953 56.9297 284.16 57.3008 284.426 57.6133C284.699 57.9258 285.027 58.168 285.41 58.3398C285.801 58.5117 286.242 58.5977 286.734 58.5977C287.344 58.5977 287.91 58.4805 288.434 58.2461C288.965 58.0039 289.422 57.6406 289.805 57.1562L291.445 58.9375C291.18 59.3203 290.816 59.6875 290.355 60.0391C289.902 60.3906 289.355 60.6797 288.715 60.9062C288.074 61.125 287.344 61.2344 286.523 61.2344Z" fill="#888888"/>
<path d="M104.344 84.875V119H96.1406V84.875H104.344ZM117.727 99.0078V119H109.828V93.6406H117.234L117.727 99.0078ZM116.766 105.453L114.961 105.5C114.961 103.719 115.172 102.078 115.594 100.578C116.016 99.0781 116.641 97.7734 117.469 96.6641C118.297 95.5547 119.312 94.6953 120.516 94.0859C121.734 93.4766 123.141 93.1719 124.734 93.1719C125.844 93.1719 126.852 93.3438 127.758 93.6875C128.664 94.0156 129.445 94.5391 130.102 95.2578C130.758 95.9609 131.258 96.8828 131.602 98.0234C131.961 99.1484 132.141 100.5 132.141 102.078V119H124.242V103.086C124.242 102.008 124.117 101.195 123.867 100.648C123.633 100.102 123.289 99.7344 122.836 99.5469C122.383 99.3594 121.828 99.2656 121.172 99.2656C120.484 99.2656 119.867 99.4219 119.32 99.7344C118.773 100.047 118.305 100.484 117.914 101.047C117.539 101.594 117.25 102.242 117.047 102.992C116.859 103.742 116.766 104.562 116.766 105.453ZM131.25 105.453L129.047 105.5C129.047 103.719 129.242 102.078 129.633 100.578C130.039 99.0781 130.641 97.7734 131.438 96.6641C132.25 95.5547 133.258 94.6953 134.461 94.0859C135.664 93.4766 137.062 93.1719 138.656 93.1719C139.812 93.1719 140.875 93.3438 141.844 93.6875C142.812 94.0312 143.648 94.5859 144.352 95.3516C145.055 96.1172 145.602 97.1328 145.992 98.3984C146.383 99.6484 146.578 101.195 146.578 103.039V119H138.656V103.039C138.656 101.992 138.531 101.203 138.281 100.672C138.047 100.125 137.703 99.7578 137.25 99.5703C136.797 99.3672 136.258 99.2656 135.633 99.2656C134.883 99.2656 134.234 99.4219 133.688 99.7344C133.141 100.047 132.68 100.484 132.305 101.047C131.945 101.594 131.68 102.242 131.508 102.992C131.336 103.742 131.25 104.562 131.25 105.453ZM159.07 98.5156V128.75H151.172V93.6406H158.531L159.07 98.5156ZM174.633 106.016V106.508C174.633 108.352 174.422 110.062 174 111.641C173.578 113.219 172.953 114.594 172.125 115.766C171.297 116.938 170.266 117.852 169.031 118.508C167.812 119.148 166.398 119.469 164.789 119.469C163.273 119.469 161.969 119.133 160.875 118.461C159.781 117.789 158.867 116.859 158.133 115.672C157.398 114.484 156.805 113.125 156.352 111.594C155.898 110.062 155.539 108.445 155.273 106.742V106.109C155.539 104.281 155.898 102.586 156.352 101.023C156.805 99.4453 157.398 98.0703 158.133 96.8984C158.867 95.7266 159.773 94.8125 160.852 94.1562C161.945 93.5 163.25 93.1719 164.766 93.1719C166.375 93.1719 167.789 93.4766 169.008 94.0859C170.242 94.6953 171.273 95.5703 172.102 96.7109C172.945 97.8359 173.578 99.1875 174 100.766C174.422 102.344 174.633 104.094 174.633 106.016ZM166.734 106.508V106.016C166.734 105.031 166.664 104.133 166.523 103.32C166.383 102.492 166.156 101.773 165.844 101.164C165.547 100.555 165.148 100.086 164.648 99.7578C164.148 99.4297 163.531 99.2656 162.797 99.2656C161.953 99.2656 161.242 99.3984 160.664 99.6641C160.102 99.9141 159.648 100.305 159.305 100.836C158.977 101.352 158.742 102 158.602 102.781C158.477 103.547 158.422 104.445 158.438 105.477V107.398C158.406 108.586 158.523 109.633 158.789 110.539C159.055 111.43 159.516 112.125 160.172 112.625C160.828 113.125 161.719 113.375 162.844 113.375C163.594 113.375 164.219 113.203 164.719 112.859C165.219 112.5 165.617 112.008 165.914 111.383C166.211 110.742 166.422 110.008 166.547 109.18C166.672 108.352 166.734 107.461 166.734 106.508ZM186.492 83V119H178.57V83H186.492ZM203.648 119.469C201.586 119.469 199.742 119.148 198.117 118.508C196.492 117.852 195.117 116.953 193.992 115.812C192.883 114.672 192.031 113.359 191.438 111.875C190.859 110.391 190.57 108.82 190.57 107.164V106.273C190.57 104.414 190.828 102.695 191.344 101.117C191.859 99.5234 192.625 98.1328 193.641 96.9453C194.656 95.7578 195.93 94.8359 197.461 94.1797C198.992 93.5078 200.773 93.1719 202.805 93.1719C204.602 93.1719 206.211 93.4609 207.633 94.0391C209.055 94.6172 210.258 95.4453 211.242 96.5234C212.242 97.6016 213 98.9062 213.516 100.438C214.047 101.969 214.312 103.688 214.312 105.594V108.805H193.594V103.859H206.602V103.25C206.617 102.406 206.469 101.688 206.156 101.094C205.859 100.5 205.422 100.047 204.844 99.7344C204.266 99.4219 203.562 99.2656 202.734 99.2656C201.875 99.2656 201.164 99.4531 200.602 99.8281C200.055 100.203 199.625 100.719 199.312 101.375C199.016 102.016 198.805 102.758 198.68 103.602C198.555 104.445 198.492 105.336 198.492 106.273V107.164C198.492 108.102 198.617 108.953 198.867 109.719C199.133 110.484 199.508 111.141 199.992 111.688C200.492 112.219 201.086 112.633 201.773 112.93C202.477 113.227 203.273 113.375 204.164 113.375C205.242 113.375 206.305 113.172 207.352 112.766C208.398 112.359 209.297 111.688 210.047 110.75L213.633 115.016C213.117 115.75 212.383 116.461 211.43 117.148C210.492 117.836 209.367 118.398 208.055 118.836C206.742 119.258 205.273 119.469 203.648 119.469ZM225.492 99.0078V119H217.594V93.6406H225L225.492 99.0078ZM224.531 105.453L222.727 105.5C222.727 103.719 222.938 102.078 223.359 100.578C223.781 99.0781 224.406 97.7734 225.234 96.6641C226.062 95.5547 227.078 94.6953 228.281 94.0859C229.5 93.4766 230.906 93.1719 232.5 93.1719C233.609 93.1719 234.617 93.3438 235.523 93.6875C236.43 94.0156 237.211 94.5391 237.867 95.2578C238.523 95.9609 239.023 96.8828 239.367 98.0234C239.727 99.1484 239.906 100.5 239.906 102.078V119H232.008V103.086C232.008 102.008 231.883 101.195 231.633 100.648C231.398 100.102 231.055 99.7344 230.602 99.5469C230.148 99.3594 229.594 99.2656 228.938 99.2656C228.25 99.2656 227.633 99.4219 227.086 99.7344C226.539 100.047 226.07 100.484 225.68 101.047C225.305 101.594 225.016 102.242 224.812 102.992C224.625 103.742 224.531 104.562 224.531 105.453ZM239.016 105.453L236.812 105.5C236.812 103.719 237.008 102.078 237.398 100.578C237.805 99.0781 238.406 97.7734 239.203 96.6641C240.016 95.5547 241.023 94.6953 242.227 94.0859C243.43 93.4766 244.828 93.1719 246.422 93.1719C247.578 93.1719 248.641 93.3438 249.609 93.6875C250.578 94.0312 251.414 94.5859 252.117 95.3516C252.82 96.1172 253.367 97.1328 253.758 98.3984C254.148 99.6484 254.344 101.195 254.344 103.039V119H246.422V103.039C246.422 101.992 246.297 101.203 246.047 100.672C245.812 100.125 245.469 99.7578 245.016 99.5703C244.562 99.3672 244.023 99.2656 243.398 99.2656C242.648 99.2656 242 99.4219 241.453 99.7344C240.906 100.047 240.445 100.484 240.07 101.047C239.711 101.594 239.445 102.242 239.273 102.992C239.102 103.742 239.016 104.562 239.016 105.453ZM271.148 119.469C269.086 119.469 267.242 119.148 265.617 118.508C263.992 117.852 262.617 116.953 261.492 115.812C260.383 114.672 259.531 113.359 258.938 111.875C258.359 110.391 258.07 108.82 258.07 107.164V106.273C258.07 104.414 258.328 102.695 258.844 101.117C259.359 99.5234 260.125 98.1328 261.141 96.9453C262.156 95.7578 263.43 94.8359 264.961 94.1797C266.492 93.5078 268.273 93.1719 270.305 93.1719C272.102 93.1719 273.711 93.4609 275.133 94.0391C276.555 94.6172 277.758 95.4453 278.742 96.5234C279.742 97.6016 280.5 98.9062 281.016 100.438C281.547 101.969 281.812 103.688 281.812 105.594V108.805H261.094V103.859H274.102V103.25C274.117 102.406 273.969 101.688 273.656 101.094C273.359 100.5 272.922 100.047 272.344 99.7344C271.766 99.4219 271.062 99.2656 270.234 99.2656C269.375 99.2656 268.664 99.4531 268.102 99.8281C267.555 100.203 267.125 100.719 266.812 101.375C266.516 102.016 266.305 102.758 266.18 103.602C266.055 104.445 265.992 105.336 265.992 106.273V107.164C265.992 108.102 266.117 108.953 266.367 109.719C266.633 110.484 267.008 111.141 267.492 111.688C267.992 112.219 268.586 112.633 269.273 112.93C269.977 113.227 270.773 113.375 271.664 113.375C272.742 113.375 273.805 113.172 274.852 112.766C275.898 112.359 276.797 111.688 277.547 110.75L281.133 115.016C280.617 115.75 279.883 116.461 278.93 117.148C277.992 117.836 276.867 118.398 275.555 118.836C274.242 119.258 272.773 119.469 271.148 119.469ZM292.781 99.0547V119H284.883V93.6406H292.289L292.781 99.0547ZM291.844 105.453L289.992 105.5C289.992 103.562 290.227 101.836 290.695 100.32C291.164 98.7891 291.828 97.4922 292.688 96.4297C293.547 95.3672 294.57 94.5625 295.758 94.0156C296.961 93.4531 298.297 93.1719 299.766 93.1719C300.938 93.1719 302.008 93.3438 302.977 93.6875C303.961 94.0312 304.805 94.5859 305.508 95.3516C306.227 96.1172 306.773 97.1328 307.148 98.3984C307.539 99.6484 307.734 101.195 307.734 103.039V119H299.789V103.016C299.789 102 299.648 101.227 299.367 100.695C299.086 100.148 298.68 99.7734 298.148 99.5703C297.617 99.3672 296.969 99.2656 296.203 99.2656C295.391 99.2656 294.703 99.4219 294.141 99.7344C293.578 100.047 293.125 100.484 292.781 101.047C292.453 101.594 292.211 102.242 292.055 102.992C291.914 103.742 291.844 104.562 291.844 105.453ZM325.477 93.6406V99.125H310.195V93.6406H325.477ZM313.406 87.3359H321.305V110.727C321.305 111.398 321.383 111.922 321.539 112.297C321.695 112.656 321.961 112.914 322.336 113.07C322.727 113.211 323.242 113.281 323.883 113.281C324.336 113.281 324.711 113.273 325.008 113.258C325.305 113.227 325.586 113.188 325.852 113.141V118.789C325.18 119.008 324.477 119.172 323.742 119.281C323.008 119.406 322.227 119.469 321.398 119.469C319.711 119.469 318.266 119.203 317.062 118.672C315.875 118.141 314.969 117.305 314.344 116.164C313.719 115.023 313.406 113.539 313.406 111.711V87.3359ZM341.789 112.625V102.172C341.789 101.453 341.688 100.836 341.484 100.32C341.281 99.8047 340.961 99.4062 340.523 99.125C340.086 98.8281 339.5 98.6797 338.766 98.6797C338.172 98.6797 337.664 98.7812 337.242 98.9844C336.82 99.1875 336.5 99.4922 336.281 99.8984C336.062 100.305 335.953 100.82 335.953 101.445H328.055C328.055 100.273 328.312 99.1875 328.828 98.1875C329.359 97.1719 330.109 96.2891 331.078 95.5391C332.062 94.7891 333.234 94.2109 334.594 93.8047C335.969 93.3828 337.5 93.1719 339.188 93.1719C341.203 93.1719 343 93.5078 344.578 94.1797C346.172 94.8516 347.43 95.8594 348.352 97.2031C349.273 98.5312 349.734 100.203 349.734 102.219V112.602C349.734 114.258 349.828 115.516 350.016 116.375C350.203 117.219 350.469 117.961 350.812 118.602V119H342.891C342.516 118.219 342.234 117.266 342.047 116.141C341.875 115 341.789 113.828 341.789 112.625ZM342.75 103.508L342.797 107.727H339.305C338.57 107.727 337.945 107.828 337.43 108.031C336.93 108.234 336.523 108.516 336.211 108.875C335.914 109.219 335.695 109.609 335.555 110.047C335.43 110.484 335.367 110.945 335.367 111.43C335.367 111.898 335.477 112.32 335.695 112.695C335.93 113.055 336.242 113.336 336.633 113.539C337.023 113.742 337.461 113.844 337.945 113.844C338.82 113.844 339.562 113.68 340.172 113.352C340.797 113.008 341.273 112.594 341.602 112.109C341.93 111.625 342.094 111.172 342.094 110.75L343.828 113.984C343.516 114.609 343.156 115.242 342.75 115.883C342.359 116.523 341.867 117.117 341.273 117.664C340.695 118.195 339.984 118.633 339.141 118.977C338.297 119.305 337.273 119.469 336.07 119.469C334.508 119.469 333.07 119.148 331.758 118.508C330.461 117.867 329.422 116.977 328.641 115.836C327.859 114.68 327.469 113.352 327.469 111.852C327.469 110.539 327.703 109.367 328.172 108.336C328.656 107.305 329.383 106.43 330.352 105.711C331.32 104.992 332.555 104.445 334.055 104.07C335.555 103.695 337.32 103.508 339.352 103.508H342.75ZM367.477 93.6406V99.125H352.195V93.6406H367.477ZM355.406 87.3359H363.305V110.727C363.305 111.398 363.383 111.922 363.539 112.297C363.695 112.656 363.961 112.914 364.336 113.07C364.727 113.211 365.242 113.281 365.883 113.281C366.336 113.281 366.711 113.273 367.008 113.258C367.305 113.227 367.586 113.188 367.852 113.141V118.789C367.18 119.008 366.477 119.172 365.742 119.281C365.008 119.406 364.227 119.469 363.398 119.469C361.711 119.469 360.266 119.203 359.062 118.672C357.875 118.141 356.969 117.305 356.344 116.164C355.719 115.023 355.406 113.539 355.406 111.711V87.3359ZM378.961 93.6406V119H371.039V93.6406H378.961ZM370.57 87.1016C370.57 85.9766 370.977 85.0547 371.789 84.3359C372.602 83.6172 373.656 83.2578 374.953 83.2578C376.25 83.2578 377.305 83.6172 378.117 84.3359C378.93 85.0547 379.336 85.9766 379.336 87.1016C379.336 88.2266 378.93 89.1484 378.117 89.8672C377.305 90.5859 376.25 90.9453 374.953 90.9453C373.656 90.9453 372.602 90.5859 371.789 89.8672C370.977 89.1484 370.57 88.2266 370.57 87.1016ZM382.852 106.578V106.086C382.852 104.227 383.117 102.516 383.648 100.953C384.18 99.375 384.961 98.0078 385.992 96.8516C387.023 95.6953 388.297 94.7969 389.812 94.1562C391.328 93.5 393.078 93.1719 395.062 93.1719C397.062 93.1719 398.82 93.5 400.336 94.1562C401.867 94.7969 403.148 95.6953 404.18 96.8516C405.211 98.0078 405.992 99.375 406.523 100.953C407.055 102.516 407.32 104.227 407.32 106.086V106.578C407.32 108.422 407.055 110.133 406.523 111.711C405.992 113.273 405.211 114.641 404.18 115.812C403.148 116.969 401.875 117.867 400.359 118.508C398.844 119.148 397.094 119.469 395.109 119.469C393.125 119.469 391.367 119.148 389.836 118.508C388.305 117.867 387.023 116.969 385.992 115.812C384.961 114.641 384.18 113.273 383.648 111.711C383.117 110.133 382.852 108.422 382.852 106.578ZM390.75 106.086V106.578C390.75 107.531 390.82 108.422 390.961 109.25C391.102 110.078 391.336 110.805 391.664 111.43C391.992 112.039 392.438 112.516 393 112.859C393.562 113.203 394.266 113.375 395.109 113.375C395.938 113.375 396.625 113.203 397.172 112.859C397.734 112.516 398.18 112.039 398.508 111.43C398.836 110.805 399.07 110.078 399.211 109.25C399.352 108.422 399.422 107.531 399.422 106.578V106.086C399.422 105.164 399.352 104.297 399.211 103.484C399.07 102.656 398.836 101.93 398.508 101.305C398.18 100.664 397.734 100.164 397.172 99.8047C396.609 99.4453 395.906 99.2656 395.062 99.2656C394.234 99.2656 393.539 99.4453 392.977 99.8047C392.43 100.164 391.992 100.664 391.664 101.305C391.336 101.93 391.102 102.656 390.961 103.484C390.82 104.297 390.75 105.164 390.75 106.086ZM418.594 99.0547V119H410.695V93.6406H418.102L418.594 99.0547ZM417.656 105.453L415.805 105.5C415.805 103.562 416.039 101.836 416.508 100.32C416.977 98.7891 417.641 97.4922 418.5 96.4297C419.359 95.3672 420.383 94.5625 421.57 94.0156C422.773 93.4531 424.109 93.1719 425.578 93.1719C426.75 93.1719 427.82 93.3438 428.789 93.6875C429.773 94.0312 430.617 94.5859 431.32 95.3516C432.039 96.1172 432.586 97.1328 432.961 98.3984C433.352 99.6484 433.547 101.195 433.547 103.039V119H425.602V103.016C425.602 102 425.461 101.227 425.18 100.695C424.898 100.148 424.492 99.7734 423.961 99.5703C423.43 99.3672 422.781 99.2656 422.016 99.2656C421.203 99.2656 420.516 99.4219 419.953 99.7344C419.391 100.047 418.938 100.484 418.594 101.047C418.266 101.594 418.023 102.242 417.867 102.992C417.727 103.742 417.656 104.562 417.656 105.453Z" fill="black"/>
<path d="M1134 0H1348C1356.28 0 1363 6.71573 1363 15V148C1363 156.284 1356.28 163 1348 163H1134V0Z" fill="#1C658F"/>
<path d="M1280.07 47.5H1216.93L1214.5 49.9286V113.071L1216.93 115.5H1280.07L1282.5 113.071V49.9286L1280.07 47.5ZM1277.64 110.643H1233.93V100.929H1245.1C1246.56 103.843 1249.96 105.786 1253.36 105.786C1258.7 105.786 1263.07 101.414 1263.07 96.0714C1263.07 90.7286 1258.7 86.3571 1253.36 86.3571C1248.01 86.3571 1243.64 90.7286 1243.64 96.0714H1229.07V110.643H1219.36V52.3571H1229.07V63.5286C1226.16 64.9857 1224.21 68.3857 1224.21 71.7857C1224.21 77.1286 1228.59 81.5 1233.93 81.5C1239.27 81.5 1243.64 77.1286 1243.64 71.7857H1253.36C1253.36 77.1286 1257.73 81.5 1263.07 81.5C1268.41 81.5 1272.79 77.1286 1272.79 71.7857C1272.79 66.4429 1268.41 62.0714 1263.07 62.0714C1259.67 62.0714 1256.27 64.0143 1254.81 66.9286H1242.19C1240.73 64.0143 1237.33 62.0714 1233.93 62.0714V52.3571H1277.64V110.643ZM1248.5 96.0714C1248.5 93.1571 1250.44 91.2143 1253.36 91.2143C1256.27 91.2143 1258.21 93.1571 1258.21 96.0714C1258.21 98.9857 1256.27 100.929 1253.36 100.929C1250.44 100.929 1248.5 98.9857 1248.5 96.0714ZM1233.93 66.9286C1236.84 66.9286 1238.79 68.8714 1238.79 71.7857C1238.79 74.7 1236.84 76.6429 1233.93 76.6429C1231.01 76.6429 1229.07 74.7 1229.07 71.7857C1229.07 68.8714 1231.01 66.9286 1233.93 66.9286ZM1263.07 66.9286C1265.99 66.9286 1267.93 68.8714 1267.93 71.7857C1267.93 74.7 1265.99 76.6429 1263.07 76.6429C1260.16 76.6429 1258.21 74.7 1258.21 71.7857C1258.21 68.8714 1260.16 66.9286 1263.07 66.9286Z" fill="white"/>
</svg>
