<svg width="1363" height="163" viewBox="0 0 1363 163" fill="none" xmlns="http://www.w3.org/2000/svg">
<path d="M0 15C0 6.71573 6.71573 0 15 0H37V163H15C6.71573 163 0 156.284 0 148V15Z" fill="#424242"/>
<rect width="1097" height="163" transform="translate(37)" fill="#F0F0F0"/>
<path d="M101.906 53.9219L94.3945 51.2383V48.0859L104.602 52.375V54.6367L101.906 53.9219ZM94.3945 56.1719L101.918 53.4297L104.602 52.7852V55.0352L94.3945 59.3242V56.1719ZM122.789 55.3398H126.293C126.223 56.4883 125.906 57.5078 125.344 58.3984C124.789 59.2891 124.012 59.9844 123.012 60.4844C122.02 60.9844 120.824 61.2344 119.426 61.2344C118.332 61.2344 117.352 61.0469 116.484 60.6719C115.617 60.2891 114.875 59.7422 114.258 59.0312C113.648 58.3203 113.184 57.4609 112.863 56.4531C112.543 55.4453 112.383 54.3164 112.383 53.0664V51.8828C112.383 50.6328 112.547 49.5039 112.875 48.4961C113.211 47.4805 113.688 46.6172 114.305 45.9062C114.93 45.1953 115.676 44.6484 116.543 44.2656C117.41 43.8828 118.379 43.6914 119.449 43.6914C120.871 43.6914 122.07 43.9492 123.047 44.4648C124.031 44.9805 124.793 45.6914 125.332 46.5977C125.879 47.5039 126.207 48.5352 126.316 49.6914H122.801C122.762 49.0039 122.625 48.4219 122.391 47.9453C122.156 47.4609 121.801 47.0977 121.324 46.8555C120.855 46.6055 120.23 46.4805 119.449 46.4805C118.863 46.4805 118.352 46.5898 117.914 46.8086C117.477 47.0273 117.109 47.3594 116.812 47.8047C116.516 48.25 116.293 48.8125 116.145 49.4922C116.004 50.1641 115.934 50.9531 115.934 51.8594V53.0664C115.934 53.9492 116 54.7266 116.133 55.3984C116.266 56.0625 116.469 56.625 116.742 57.0859C117.023 57.5391 117.383 57.8828 117.82 58.1172C118.266 58.3438 118.801 58.457 119.426 58.457C120.16 58.457 120.766 58.3398 121.242 58.1055C121.719 57.8711 122.082 57.5234 122.332 57.0625C122.59 56.6016 122.742 56.0273 122.789 55.3398ZM132.152 59.5703L135.516 48.3203H139.137L134.039 62.9102C133.93 63.2305 133.781 63.5742 133.594 63.9414C133.414 64.3086 133.168 64.6562 132.855 64.9844C132.551 65.3203 132.164 65.5938 131.695 65.8047C131.234 66.0156 130.668 66.1211 129.996 66.1211C129.676 66.1211 129.414 66.1016 129.211 66.0625C129.008 66.0234 128.766 65.9688 128.484 65.8984V63.4258C128.57 63.4258 128.66 63.4258 128.754 63.4258C128.848 63.4336 128.938 63.4375 129.023 63.4375C129.469 63.4375 129.832 63.3867 130.113 63.2852C130.395 63.1836 130.621 63.0273 130.793 62.8164C130.965 62.6133 131.102 62.3477 131.203 62.0195L132.152 59.5703ZM130.746 48.3203L133.5 57.5078L133.98 61.082L131.684 61.3281L127.125 48.3203H130.746ZM140.484 43H143.859V58.0938L143.52 61H140.484V43ZM151.887 54.5312V54.7773C151.887 55.7227 151.785 56.5898 151.582 57.3789C151.387 58.168 151.082 58.8516 150.668 59.4297C150.254 60 149.738 60.4453 149.121 60.7656C148.512 61.0781 147.793 61.2344 146.965 61.2344C146.191 61.2344 145.52 61.0781 144.949 60.7656C144.387 60.4531 143.914 60.0117 143.531 59.4414C143.148 58.8711 142.84 58.2031 142.605 57.4375C142.371 56.6719 142.195 55.8359 142.078 54.9297V54.3906C142.195 53.4844 142.371 52.6484 142.605 51.8828C142.84 51.1172 143.148 50.4492 143.531 49.8789C143.914 49.3086 144.387 48.8672 144.949 48.5547C145.512 48.2422 146.176 48.0859 146.941 48.0859C147.777 48.0859 148.504 48.2461 149.121 48.5664C149.746 48.8789 150.262 49.3242 150.668 49.9023C151.082 50.4727 151.387 51.1523 151.582 51.9414C151.785 52.7227 151.887 53.5859 151.887 54.5312ZM148.512 54.7773V54.5312C148.512 54.0156 148.473 53.5312 148.395 53.0781C148.324 52.6172 148.199 52.2148 148.02 51.8711C147.84 51.5195 147.594 51.2422 147.281 51.0391C146.977 50.8359 146.582 50.7344 146.098 50.7344C145.637 50.7344 145.246 50.8125 144.926 50.9688C144.605 51.125 144.34 51.3438 144.129 51.625C143.926 51.9062 143.773 52.2422 143.672 52.6328C143.57 53.0156 143.508 53.4375 143.484 53.8984V55.4336C143.508 56.0508 143.609 56.5977 143.789 57.0742C143.977 57.543 144.258 57.9141 144.633 58.1875C145.016 58.4531 145.512 58.5859 146.121 58.5859C146.598 58.5859 146.992 58.4922 147.305 58.3047C147.617 58.1172 147.859 57.8516 148.031 57.5078C148.211 57.1641 148.336 56.7617 148.406 56.3008C148.477 55.832 148.512 55.3242 148.512 54.7773ZM159.82 61.2344C158.836 61.2344 157.953 61.0781 157.172 60.7656C156.391 60.4453 155.727 60.0039 155.18 59.4414C154.641 58.8789 154.227 58.2266 153.938 57.4844C153.648 56.7344 153.504 55.9375 153.504 55.0938V54.625C153.504 53.6641 153.641 52.7852 153.914 51.9883C154.188 51.1914 154.578 50.5 155.086 49.9141C155.602 49.3281 156.227 48.8789 156.961 48.5664C157.695 48.2461 158.523 48.0859 159.445 48.0859C160.344 48.0859 161.141 48.2344 161.836 48.5312C162.531 48.8281 163.113 49.25 163.582 49.7969C164.059 50.3438 164.418 51 164.66 51.7656C164.902 52.5234 165.023 53.3672 165.023 54.2969V55.7031H154.945V53.4531H161.707V53.1953C161.707 52.7266 161.621 52.3086 161.449 51.9414C161.285 51.5664 161.035 51.2695 160.699 51.0508C160.363 50.832 159.934 50.7227 159.41 50.7227C158.965 50.7227 158.582 50.8203 158.262 51.0156C157.941 51.2109 157.68 51.4844 157.477 51.8359C157.281 52.1875 157.133 52.6016 157.031 53.0781C156.938 53.5469 156.891 54.0625 156.891 54.625V55.0938C156.891 55.6016 156.961 56.0703 157.102 56.5C157.25 56.9297 157.457 57.3008 157.723 57.6133C157.996 57.9258 158.324 58.168 158.707 58.3398C159.098 58.5117 159.539 58.5977 160.031 58.5977C160.641 58.5977 161.207 58.4805 161.73 58.2461C162.262 58.0039 162.719 57.6406 163.102 57.1562L164.742 58.9375C164.477 59.3203 164.113 59.6875 163.652 60.0391C163.199 60.3906 162.652 60.6797 162.012 60.9062C161.371 61.125 160.641 61.2344 159.82 61.2344ZM170.32 51.0859V61H166.945V48.3203H170.121L170.32 51.0859ZM174.141 48.2383L174.082 51.3672C173.918 51.3438 173.719 51.3242 173.484 51.3086C173.258 51.2852 173.051 51.2734 172.863 51.2734C172.387 51.2734 171.973 51.3359 171.621 51.4609C171.277 51.5781 170.988 51.7539 170.754 51.9883C170.527 52.2227 170.355 52.5078 170.238 52.8438C170.129 53.1797 170.066 53.5625 170.051 53.9922L169.371 53.7812C169.371 52.9609 169.453 52.207 169.617 51.5195C169.781 50.8242 170.02 50.2188 170.332 49.7031C170.652 49.1875 171.043 48.7891 171.504 48.5078C171.965 48.2266 172.492 48.0859 173.086 48.0859C173.273 48.0859 173.465 48.1016 173.66 48.1328C173.855 48.1562 174.016 48.1914 174.141 48.2383ZM188.859 46.8555L184.219 61H180.48L186.82 43.9375H189.199L188.859 46.8555ZM192.715 61L188.062 46.8555L187.688 43.9375H190.09L196.465 61H192.715ZM192.504 54.6484V57.4023H183.492V54.6484H192.504ZM201.562 58.5391L204.375 48.3203H207.902L203.625 61H201.492L201.562 58.5391ZM199.629 48.3203L202.453 58.5508L202.512 61H200.367L196.09 48.3203H199.629ZM216.07 58.1406V52.4922C216.07 52.0859 216.004 51.7383 215.871 51.4492C215.738 51.1523 215.531 50.9219 215.25 50.7578C214.977 50.5938 214.621 50.5117 214.184 50.5117C213.809 50.5117 213.484 50.5781 213.211 50.7109C212.938 50.8359 212.727 51.0195 212.578 51.2617C212.43 51.4961 212.355 51.7734 212.355 52.0938H208.98C208.98 51.5547 209.105 51.043 209.355 50.5586C209.605 50.0742 209.969 49.6484 210.445 49.2812C210.922 48.9062 211.488 48.6133 212.145 48.4023C212.809 48.1914 213.551 48.0859 214.371 48.0859C215.355 48.0859 216.23 48.25 216.996 48.5781C217.762 48.9062 218.363 49.3984 218.801 50.0547C219.246 50.7109 219.469 51.5312 219.469 52.5156V57.9414C219.469 58.6367 219.512 59.207 219.598 59.6523C219.684 60.0898 219.809 60.4727 219.973 60.8008V61H216.562C216.398 60.6562 216.273 60.2266 216.188 59.7109C216.109 59.1875 216.07 58.6641 216.07 58.1406ZM216.516 53.2773L216.539 55.1875H214.652C214.207 55.1875 213.82 55.2383 213.492 55.3398C213.164 55.4414 212.895 55.5859 212.684 55.7734C212.473 55.9531 212.316 56.1641 212.215 56.4062C212.121 56.6484 212.074 56.9141 212.074 57.2031C212.074 57.4922 212.141 57.7539 212.273 57.9883C212.406 58.2148 212.598 58.3945 212.848 58.5273C213.098 58.6523 213.391 58.7148 213.727 58.7148C214.234 58.7148 214.676 58.6133 215.051 58.4102C215.426 58.207 215.715 57.957 215.918 57.6602C216.129 57.3633 216.238 57.082 216.246 56.8164L217.137 58.2461C217.012 58.5664 216.84 58.8984 216.621 59.2422C216.41 59.5859 216.141 59.9102 215.812 60.2148C215.484 60.5117 215.09 60.7578 214.629 60.9531C214.168 61.1406 213.621 61.2344 212.988 61.2344C212.184 61.2344 211.453 61.0742 210.797 60.7539C210.148 60.4258 209.633 59.9766 209.25 59.4062C208.875 58.8281 208.688 58.1719 208.688 57.4375C208.688 56.7734 208.812 56.1836 209.062 55.668C209.312 55.1523 209.68 54.7188 210.164 54.3672C210.656 54.0078 211.27 53.7383 212.004 53.5586C212.738 53.3711 213.59 53.2773 214.559 53.2773H216.516ZM225.633 43V61H222.246V43H225.633ZM235.266 58.1406V52.4922C235.266 52.0859 235.199 51.7383 235.066 51.4492C234.934 51.1523 234.727 50.9219 234.445 50.7578C234.172 50.5938 233.816 50.5117 233.379 50.5117C233.004 50.5117 232.68 50.5781 232.406 50.7109C232.133 50.8359 231.922 51.0195 231.773 51.2617C231.625 51.4961 231.551 51.7734 231.551 52.0938H228.176C228.176 51.5547 228.301 51.043 228.551 50.5586C228.801 50.0742 229.164 49.6484 229.641 49.2812C230.117 48.9062 230.684 48.6133 231.34 48.4023C232.004 48.1914 232.746 48.0859 233.566 48.0859C234.551 48.0859 235.426 48.25 236.191 48.5781C236.957 48.9062 237.559 49.3984 237.996 50.0547C238.441 50.7109 238.664 51.5312 238.664 52.5156V57.9414C238.664 58.6367 238.707 59.207 238.793 59.6523C238.879 60.0898 239.004 60.4727 239.168 60.8008V61H235.758C235.594 60.6562 235.469 60.2266 235.383 59.7109C235.305 59.1875 235.266 58.6641 235.266 58.1406ZM235.711 53.2773L235.734 55.1875H233.848C233.402 55.1875 233.016 55.2383 232.688 55.3398C232.359 55.4414 232.09 55.5859 231.879 55.7734C231.668 55.9531 231.512 56.1641 231.41 56.4062C231.316 56.6484 231.27 56.9141 231.27 57.2031C231.27 57.4922 231.336 57.7539 231.469 57.9883C231.602 58.2148 231.793 58.3945 232.043 58.5273C232.293 58.6523 232.586 58.7148 232.922 58.7148C233.43 58.7148 233.871 58.6133 234.246 58.4102C234.621 58.207 234.91 57.957 235.113 57.6602C235.324 57.3633 235.434 57.082 235.441 56.8164L236.332 58.2461C236.207 58.5664 236.035 58.8984 235.816 59.2422C235.605 59.5859 235.336 59.9102 235.008 60.2148C234.68 60.5117 234.285 60.7578 233.824 60.9531C233.363 61.1406 232.816 61.2344 232.184 61.2344C231.379 61.2344 230.648 61.0742 229.992 60.7539C229.344 60.4258 228.828 59.9766 228.445 59.4062C228.07 58.8281 227.883 58.1719 227.883 57.4375C227.883 56.7734 228.008 56.1836 228.258 55.668C228.508 55.1523 228.875 54.7188 229.359 54.3672C229.852 54.0078 230.465 53.7383 231.199 53.5586C231.934 53.3711 232.785 53.2773 233.754 53.2773H235.711ZM244.57 51.0273V61H241.195V48.3203H244.359L244.57 51.0273ZM244.078 54.2148H243.164C243.164 53.2773 243.285 52.4336 243.527 51.6836C243.77 50.9258 244.109 50.2812 244.547 49.75C244.984 49.2109 245.504 48.8008 246.105 48.5195C246.715 48.2305 247.395 48.0859 248.145 48.0859C248.738 48.0859 249.281 48.1719 249.773 48.3438C250.266 48.5156 250.688 48.7891 251.039 49.1641C251.398 49.5391 251.672 50.0352 251.859 50.6523C252.055 51.2695 252.152 52.0234 252.152 52.9141V61H248.754V52.9023C248.754 52.3398 248.676 51.9023 248.52 51.5898C248.363 51.2773 248.133 51.0586 247.828 50.9336C247.531 50.8008 247.164 50.7344 246.727 50.7344C246.273 50.7344 245.879 50.8242 245.543 51.0039C245.215 51.1836 244.941 51.4336 244.723 51.7539C244.512 52.0664 244.352 52.4336 244.242 52.8555C244.133 53.2773 244.078 53.7305 244.078 54.2148ZM259.957 58.5977C260.371 58.5977 260.738 58.5195 261.059 58.3633C261.379 58.1992 261.629 57.9727 261.809 57.6836C261.996 57.3867 262.094 57.0391 262.102 56.6406H265.277C265.27 57.5312 265.031 58.3242 264.562 59.0195C264.094 59.707 263.465 60.25 262.676 60.6484C261.887 61.0391 261.004 61.2344 260.027 61.2344C259.043 61.2344 258.184 61.0703 257.449 60.7422C256.723 60.4141 256.117 59.9609 255.633 59.3828C255.148 58.7969 254.785 58.1172 254.543 57.3438C254.301 56.5625 254.18 55.7266 254.18 54.8359V54.4961C254.18 53.5977 254.301 52.7617 254.543 51.9883C254.785 51.207 255.148 50.5273 255.633 49.9492C256.117 49.3633 256.723 48.9062 257.449 48.5781C258.176 48.25 259.027 48.0859 260.004 48.0859C261.043 48.0859 261.953 48.2852 262.734 48.6836C263.523 49.082 264.141 49.6523 264.586 50.3945C265.039 51.1289 265.27 52 265.277 53.0078H262.102C262.094 52.5859 262.004 52.2031 261.832 51.8594C261.668 51.5156 261.426 51.2422 261.105 51.0391C260.793 50.8281 260.406 50.7227 259.945 50.7227C259.453 50.7227 259.051 50.8281 258.738 51.0391C258.426 51.2422 258.184 51.5234 258.012 51.8828C257.84 52.2344 257.719 52.6367 257.648 53.0898C257.586 53.5352 257.555 54.0039 257.555 54.4961V54.8359C257.555 55.3281 257.586 55.8008 257.648 56.2539C257.711 56.707 257.828 57.1094 258 57.4609C258.18 57.8125 258.426 58.0898 258.738 58.293C259.051 58.4961 259.457 58.5977 259.957 58.5977ZM270.527 43V61H267.152V43H270.527ZM270.047 54.2148H269.121C269.129 53.332 269.246 52.5195 269.473 51.7773C269.699 51.0273 270.023 50.3789 270.445 49.832C270.867 49.2773 271.371 48.8477 271.957 48.543C272.551 48.2383 273.207 48.0859 273.926 48.0859C274.551 48.0859 275.117 48.1758 275.625 48.3555C276.141 48.5273 276.582 48.8086 276.949 49.1992C277.324 49.582 277.613 50.0859 277.816 50.7109C278.02 51.3359 278.121 52.0938 278.121 52.9844V61H274.723V52.9609C274.723 52.3984 274.641 51.957 274.477 51.6367C274.32 51.3086 274.09 51.0781 273.785 50.9453C273.488 50.8047 273.121 50.7344 272.684 50.7344C272.199 50.7344 271.785 50.8242 271.441 51.0039C271.105 51.1836 270.836 51.4336 270.633 51.7539C270.43 52.0664 270.281 52.4336 270.188 52.8555C270.094 53.2773 270.047 53.7305 270.047 54.2148ZM286.523 61.2344C285.539 61.2344 284.656 61.0781 283.875 60.7656C283.094 60.4453 282.43 60.0039 281.883 59.4414C281.344 58.8789 280.93 58.2266 280.641 57.4844C280.352 56.7344 280.207 55.9375 280.207 55.0938V54.625C280.207 53.6641 280.344 52.7852 280.617 51.9883C280.891 51.1914 281.281 50.5 281.789 49.9141C282.305 49.3281 282.93 48.8789 283.664 48.5664C284.398 48.2461 285.227 48.0859 286.148 48.0859C287.047 48.0859 287.844 48.2344 288.539 48.5312C289.234 48.8281 289.816 49.25 290.285 49.7969C290.762 50.3438 291.121 51 291.363 51.7656C291.605 52.5234 291.727 53.3672 291.727 54.2969V55.7031H281.648V53.4531H288.41V53.1953C288.41 52.7266 288.324 52.3086 288.152 51.9414C287.988 51.5664 287.738 51.2695 287.402 51.0508C287.066 50.832 286.637 50.7227 286.113 50.7227C285.668 50.7227 285.285 50.8203 284.965 51.0156C284.645 51.2109 284.383 51.4844 284.18 51.8359C283.984 52.1875 283.836 52.6016 283.734 53.0781C283.641 53.5469 283.594 54.0625 283.594 54.625V55.0938C283.594 55.6016 283.664 56.0703 283.805 56.5C283.953 56.9297 284.16 57.3008 284.426 57.6133C284.699 57.9258 285.027 58.168 285.41 58.3398C285.801 58.5117 286.242 58.5977 286.734 58.5977C287.344 58.5977 287.91 58.4805 288.434 58.2461C288.965 58.0039 289.422 57.6406 289.805 57.1562L291.445 58.9375C291.18 59.3203 290.816 59.6875 290.355 60.0391C289.902 60.3906 289.355 60.6797 288.715 60.9062C288.074 61.125 287.344 61.2344 286.523 61.2344Z" fill="#888888"/>
<path d="M112.125 84.875V119H103.898V84.875H112.125ZM122.391 84.875V91.2266H93.8672V84.875H122.391ZM135.68 119.469C133.617 119.469 131.773 119.148 130.148 118.508C128.523 117.852 127.148 116.953 126.023 115.812C124.914 114.672 124.062 113.359 123.469 111.875C122.891 110.391 122.602 108.82 122.602 107.164V106.273C122.602 104.414 122.859 102.695 123.375 101.117C123.891 99.5234 124.656 98.1328 125.672 96.9453C126.688 95.7578 127.961 94.8359 129.492 94.1797C131.023 93.5078 132.805 93.1719 134.836 93.1719C136.633 93.1719 138.242 93.4609 139.664 94.0391C141.086 94.6172 142.289 95.4453 143.273 96.5234C144.273 97.6016 145.031 98.9062 145.547 100.438C146.078 101.969 146.344 103.688 146.344 105.594V108.805H125.625V103.859H138.633V103.25C138.648 102.406 138.5 101.688 138.188 101.094C137.891 100.5 137.453 100.047 136.875 99.7344C136.297 99.4219 135.594 99.2656 134.766 99.2656C133.906 99.2656 133.195 99.4531 132.633 99.8281C132.086 100.203 131.656 100.719 131.344 101.375C131.047 102.016 130.836 102.758 130.711 103.602C130.586 104.445 130.523 105.336 130.523 106.273V107.164C130.523 108.102 130.648 108.953 130.898 109.719C131.164 110.484 131.539 111.141 132.023 111.688C132.523 112.219 133.117 112.633 133.805 112.93C134.508 113.227 135.305 113.375 136.195 113.375C137.273 113.375 138.336 113.172 139.383 112.766C140.43 112.359 141.328 111.688 142.078 110.75L145.664 115.016C145.148 115.75 144.414 116.461 143.461 117.148C142.523 117.836 141.398 118.398 140.086 118.836C138.773 119.258 137.305 119.469 135.68 119.469ZM160.266 113.375C161 113.375 161.625 113.242 162.141 112.977C162.672 112.695 163.07 112.305 163.336 111.805C163.617 111.289 163.75 110.672 163.734 109.953H171.164C171.18 111.859 170.711 113.531 169.758 114.969C168.82 116.391 167.539 117.5 165.914 118.297C164.305 119.078 162.484 119.469 160.453 119.469C158.469 119.469 156.734 119.148 155.25 118.508C153.766 117.852 152.523 116.945 151.523 115.789C150.539 114.617 149.797 113.25 149.297 111.688C148.812 110.125 148.57 108.43 148.57 106.602V106.062C148.57 104.234 148.812 102.539 149.297 100.977C149.797 99.3984 150.539 98.0312 151.523 96.875C152.523 95.7031 153.758 94.7969 155.227 94.1562C156.711 93.5 158.438 93.1719 160.406 93.1719C162.516 93.1719 164.375 93.5703 165.984 94.3672C167.609 95.1641 168.883 96.3203 169.805 97.8359C170.727 99.3516 171.18 101.188 171.164 103.344H163.734C163.75 102.578 163.633 101.891 163.383 101.281C163.133 100.672 162.742 100.188 162.211 99.8281C161.695 99.4531 161.031 99.2656 160.219 99.2656C159.406 99.2656 158.75 99.4453 158.25 99.8047C157.75 100.164 157.367 100.664 157.102 101.305C156.852 101.93 156.68 102.648 156.586 103.461C156.508 104.273 156.469 105.141 156.469 106.062V106.602C156.469 107.539 156.508 108.422 156.586 109.25C156.68 110.062 156.859 110.781 157.125 111.406C157.391 112.016 157.773 112.5 158.273 112.859C158.773 113.203 159.438 113.375 160.266 113.375ZM182.273 83V119H174.375V83H182.273ZM181.336 105.453L179.484 105.5C179.484 103.719 179.703 102.078 180.141 100.578C180.578 99.0781 181.203 97.7734 182.016 96.6641C182.828 95.5547 183.805 94.6953 184.945 94.0859C186.086 93.4766 187.352 93.1719 188.742 93.1719C189.992 93.1719 191.133 93.3516 192.164 93.7109C193.211 94.0703 194.109 94.6484 194.859 95.4453C195.625 96.2422 196.211 97.2812 196.617 98.5625C197.039 99.8438 197.25 101.406 197.25 103.25V119H189.305V103.203C189.305 102.172 189.156 101.375 188.859 100.812C188.578 100.234 188.172 99.8359 187.641 99.6172C187.109 99.3828 186.461 99.2656 185.695 99.2656C184.773 99.2656 184.023 99.4219 183.445 99.7344C182.867 100.047 182.422 100.484 182.109 101.047C181.812 101.594 181.609 102.242 181.5 102.992C181.391 103.742 181.336 104.562 181.336 105.453ZM231.539 109.93C231.539 109.398 231.461 108.922 231.305 108.5C231.148 108.062 230.859 107.656 230.438 107.281C230.016 106.906 229.406 106.531 228.609 106.156C227.828 105.766 226.797 105.359 225.516 104.938C224.016 104.438 222.57 103.875 221.18 103.25C219.789 102.609 218.547 101.867 217.453 101.023C216.359 100.164 215.492 99.1641 214.852 98.0234C214.211 96.8672 213.891 95.5234 213.891 93.9922C213.891 92.5234 214.219 91.2031 214.875 90.0312C215.531 88.8438 216.445 87.8359 217.617 87.0078C218.805 86.1641 220.195 85.5234 221.789 85.0859C223.383 84.6328 225.125 84.4062 227.016 84.4062C229.516 84.4062 231.719 84.8438 233.625 85.7188C235.547 86.5781 237.047 87.8047 238.125 89.3984C239.219 90.9766 239.766 92.8438 239.766 95H231.586C231.586 94.1406 231.406 93.3828 231.047 92.7266C230.703 92.0703 230.18 91.5547 229.477 91.1797C228.773 90.8047 227.891 90.6172 226.828 90.6172C225.797 90.6172 224.93 90.7734 224.227 91.0859C223.523 91.3984 222.992 91.8203 222.633 92.3516C222.273 92.8672 222.094 93.4375 222.094 94.0625C222.094 94.5781 222.234 95.0469 222.516 95.4688C222.812 95.875 223.227 96.2578 223.758 96.6172C224.305 96.9766 224.961 97.3203 225.727 97.6484C226.508 97.9766 227.383 98.2969 228.352 98.6094C230.164 99.1875 231.773 99.8359 233.18 100.555C234.602 101.258 235.797 102.062 236.766 102.969C237.75 103.859 238.492 104.875 238.992 106.016C239.508 107.156 239.766 108.445 239.766 109.883C239.766 111.414 239.469 112.773 238.875 113.961C238.281 115.148 237.43 116.156 236.32 116.984C235.211 117.797 233.883 118.414 232.336 118.836C230.789 119.258 229.062 119.469 227.156 119.469C225.406 119.469 223.68 119.25 221.977 118.812C220.289 118.359 218.758 117.672 217.383 116.75C216.008 115.812 214.906 114.617 214.078 113.164C213.266 111.695 212.859 109.953 212.859 107.938H221.109C221.109 108.938 221.242 109.781 221.508 110.469C221.773 111.156 222.164 111.711 222.68 112.133C223.195 112.539 223.828 112.836 224.578 113.023C225.328 113.195 226.188 113.281 227.156 113.281C228.203 113.281 229.047 113.133 229.688 112.836C230.328 112.523 230.797 112.117 231.094 111.617C231.391 111.102 231.539 110.539 231.539 109.93ZM256.992 93.6406V99.125H241.711V93.6406H256.992ZM244.922 87.3359H252.82V110.727C252.82 111.398 252.898 111.922 253.055 112.297C253.211 112.656 253.477 112.914 253.852 113.07C254.242 113.211 254.758 113.281 255.398 113.281C255.852 113.281 256.227 113.273 256.523 113.258C256.82 113.227 257.102 113.188 257.367 113.141V118.789C256.695 119.008 255.992 119.172 255.258 119.281C254.523 119.406 253.742 119.469 252.914 119.469C251.227 119.469 249.781 119.203 248.578 118.672C247.391 118.141 246.484 117.305 245.859 116.164C245.234 115.023 244.922 113.539 244.922 111.711V87.3359ZM273.305 112.625V102.172C273.305 101.453 273.203 100.836 273 100.32C272.797 99.8047 272.477 99.4062 272.039 99.125C271.602 98.8281 271.016 98.6797 270.281 98.6797C269.688 98.6797 269.18 98.7812 268.758 98.9844C268.336 99.1875 268.016 99.4922 267.797 99.8984C267.578 100.305 267.469 100.82 267.469 101.445H259.57C259.57 100.273 259.828 99.1875 260.344 98.1875C260.875 97.1719 261.625 96.2891 262.594 95.5391C263.578 94.7891 264.75 94.2109 266.109 93.8047C267.484 93.3828 269.016 93.1719 270.703 93.1719C272.719 93.1719 274.516 93.5078 276.094 94.1797C277.688 94.8516 278.945 95.8594 279.867 97.2031C280.789 98.5312 281.25 100.203 281.25 102.219V112.602C281.25 114.258 281.344 115.516 281.531 116.375C281.719 117.219 281.984 117.961 282.328 118.602V119H274.406C274.031 118.219 273.75 117.266 273.562 116.141C273.391 115 273.305 113.828 273.305 112.625ZM274.266 103.508L274.312 107.727H270.82C270.086 107.727 269.461 107.828 268.945 108.031C268.445 108.234 268.039 108.516 267.727 108.875C267.43 109.219 267.211 109.609 267.07 110.047C266.945 110.484 266.883 110.945 266.883 111.43C266.883 111.898 266.992 112.32 267.211 112.695C267.445 113.055 267.758 113.336 268.148 113.539C268.539 113.742 268.977 113.844 269.461 113.844C270.336 113.844 271.078 113.68 271.688 113.352C272.312 113.008 272.789 112.594 273.117 112.109C273.445 111.625 273.609 111.172 273.609 110.75L275.344 113.984C275.031 114.609 274.672 115.242 274.266 115.883C273.875 116.523 273.383 117.117 272.789 117.664C272.211 118.195 271.5 118.633 270.656 118.977C269.812 119.305 268.789 119.469 267.586 119.469C266.023 119.469 264.586 119.148 263.273 118.508C261.977 117.867 260.938 116.977 260.156 115.836C259.375 114.68 258.984 113.352 258.984 111.852C258.984 110.539 259.219 109.367 259.688 108.336C260.172 107.305 260.898 106.43 261.867 105.711C262.836 104.992 264.07 104.445 265.57 104.07C267.07 103.695 268.836 103.508 270.867 103.508H274.266ZM296.344 113.375C297.078 113.375 297.703 113.242 298.219 112.977C298.75 112.695 299.148 112.305 299.414 111.805C299.695 111.289 299.828 110.672 299.812 109.953H307.242C307.258 111.859 306.789 113.531 305.836 114.969C304.898 116.391 303.617 117.5 301.992 118.297C300.383 119.078 298.562 119.469 296.531 119.469C294.547 119.469 292.812 119.148 291.328 118.508C289.844 117.852 288.602 116.945 287.602 115.789C286.617 114.617 285.875 113.25 285.375 111.688C284.891 110.125 284.648 108.43 284.648 106.602V106.062C284.648 104.234 284.891 102.539 285.375 100.977C285.875 99.3984 286.617 98.0312 287.602 96.875C288.602 95.7031 289.836 94.7969 291.305 94.1562C292.789 93.5 294.516 93.1719 296.484 93.1719C298.594 93.1719 300.453 93.5703 302.062 94.3672C303.688 95.1641 304.961 96.3203 305.883 97.8359C306.805 99.3516 307.258 101.188 307.242 103.344H299.812C299.828 102.578 299.711 101.891 299.461 101.281C299.211 100.672 298.82 100.188 298.289 99.8281C297.773 99.4531 297.109 99.2656 296.297 99.2656C295.484 99.2656 294.828 99.4453 294.328 99.8047C293.828 100.164 293.445 100.664 293.18 101.305C292.93 101.93 292.758 102.648 292.664 103.461C292.586 104.273 292.547 105.141 292.547 106.062V106.602C292.547 107.539 292.586 108.422 292.664 109.25C292.758 110.062 292.938 110.781 293.203 111.406C293.469 112.016 293.852 112.5 294.352 112.859C294.852 113.203 295.516 113.375 296.344 113.375ZM318.586 82.9766V119H310.688V82.9766H318.586ZM334.805 93.6406L323.789 106.555L318.023 112.32L314.578 107.305L319.383 101.047L325.336 93.6406H334.805ZM326.344 119L319.57 107.445L325.406 103.297L335.391 119H326.344ZM350.156 111.875C350.156 111.438 350.008 111.062 349.711 110.75C349.43 110.422 348.93 110.125 348.211 109.859C347.492 109.578 346.484 109.297 345.188 109.016C343.953 108.75 342.789 108.398 341.695 107.961C340.617 107.523 339.672 106.992 338.859 106.367C338.047 105.742 337.406 105 336.938 104.141C336.484 103.281 336.258 102.297 336.258 101.188C336.258 100.109 336.484 99.0938 336.938 98.1406C337.406 97.1719 338.086 96.3203 338.977 95.5859C339.883 94.8359 340.984 94.25 342.281 93.8281C343.578 93.3906 345.055 93.1719 346.711 93.1719C348.992 93.1719 350.961 93.5234 352.617 94.2266C354.273 94.9141 355.547 95.8828 356.438 97.1328C357.344 98.3672 357.797 99.7969 357.797 101.422H349.898C349.898 100.781 349.789 100.234 349.57 99.7812C349.367 99.3281 349.031 98.9844 348.562 98.75C348.094 98.5 347.469 98.375 346.688 98.375C346.141 98.375 345.641 98.4766 345.188 98.6797C344.75 98.8828 344.398 99.1641 344.133 99.5234C343.867 99.8828 343.734 100.305 343.734 100.789C343.734 101.133 343.812 101.445 343.969 101.727C344.141 101.992 344.398 102.242 344.742 102.477C345.086 102.695 345.523 102.898 346.055 103.086C346.586 103.258 347.227 103.414 347.977 103.555C349.68 103.867 351.273 104.312 352.758 104.891C354.242 105.469 355.445 106.289 356.367 107.352C357.305 108.414 357.773 109.844 357.773 111.641C357.773 112.766 357.516 113.805 357 114.758C356.484 115.695 355.742 116.523 354.773 117.242C353.805 117.945 352.641 118.492 351.281 118.883C349.922 119.273 348.391 119.469 346.688 119.469C344.266 119.469 342.219 119.039 340.547 118.18C338.875 117.305 337.609 116.211 336.75 114.898C335.906 113.57 335.484 112.227 335.484 110.867H342.844C342.875 111.648 343.062 112.289 343.406 112.789C343.766 113.289 344.242 113.656 344.836 113.891C345.43 114.125 346.117 114.242 346.898 114.242C347.617 114.242 348.211 114.141 348.68 113.938C349.164 113.734 349.531 113.461 349.781 113.117C350.031 112.758 350.156 112.344 350.156 111.875Z" fill="black"/>
<path d="M1134 0H1348C1356.28 0 1363 6.71573 1363 15V148C1363 156.284 1356.28 163 1348 163H1134V0Z" fill="#1C658F"/>
<path fill-rule="evenodd" clip-rule="evenodd" d="M1219.98 53C1219.85 53 1219.73 53.0527 1219.64 53.1464C1219.55 53.2402 1219.5 53.3674 1219.5 53.5V109.5C1219.5 109.633 1219.55 109.76 1219.64 109.854C1219.73 109.947 1219.85 110 1219.98 110H1277.02C1277.15 110 1277.27 109.947 1277.36 109.854C1277.45 109.76 1277.5 109.633 1277.5 109.5V64C1277.5 63.8674 1277.45 63.7402 1277.36 63.6464C1277.27 63.5527 1277.15 63.5 1277.02 63.5H1248.5C1247.65 63.5 1246.84 63.1045 1246.29 62.4206L1238.77 53H1219.98ZM1215.58 48.9038C1216.74 47.6848 1218.33 47 1219.98 47H1240.11C1240.97 47 1241.77 47.3955 1242.32 48.0794L1249.85 57.5H1277.02C1278.67 57.5 1280.26 58.1848 1281.42 59.4038C1282.59 60.6228 1283.25 62.2761 1283.25 64V109.5C1283.25 111.224 1282.59 112.877 1281.42 114.096C1280.26 115.315 1278.67 116 1277.02 116H1219.98C1218.33 116 1216.74 115.315 1215.58 114.096C1214.41 112.877 1213.75 111.224 1213.75 109.5V53.5C1213.75 51.7761 1214.41 50.1228 1215.58 48.9038Z" fill="white"/>
<path fill-rule="evenodd" clip-rule="evenodd" d="M1244.16 75.5251C1245.47 76.892 1245.47 79.108 1244.16 80.4749L1238.15 86.75L1244.16 93.0251C1245.47 94.392 1245.47 96.608 1244.16 97.9749C1242.85 99.3417 1240.73 99.3417 1239.42 97.9749L1231.03 89.2249C1229.72 87.858 1229.72 85.642 1231.03 84.2751L1239.42 75.5251C1240.73 74.1583 1242.85 74.1583 1244.16 75.5251Z" fill="white"/>
<path fill-rule="evenodd" clip-rule="evenodd" d="M1252.12 97.9749C1250.81 96.608 1250.81 94.392 1252.12 93.0251L1258.13 86.75L1252.12 80.4749C1250.81 79.108 1250.81 76.892 1252.12 75.5251C1253.43 74.1583 1255.55 74.1583 1256.86 75.5251L1265.25 84.2751C1266.56 85.642 1266.56 87.858 1265.25 89.2249L1256.86 97.9749C1255.55 99.3417 1253.43 99.3417 1252.12 97.9749Z" fill="white"/>
</svg>
