<svg width="1363" height="163" viewBox="0 0 1363 163" fill="none" xmlns="http://www.w3.org/2000/svg">
<path d="M0 15C0 6.71573 6.71573 0 15 0H37V163H15C6.71573 163 0 156.284 0 148V15Z" fill="#424242"/>
<rect width="1097" height="163" transform="translate(37)" fill="#F0F0F0"/>
<path d="M101.906 53.9219L94.3945 51.2383V48.0859L104.602 52.375V54.6367L101.906 53.9219ZM94.3945 56.1719L101.918 53.4297L104.602 52.7852V55.0352L94.3945 59.3242V56.1719ZM122.789 55.3398H126.293C126.223 56.4883 125.906 57.5078 125.344 58.3984C124.789 59.2891 124.012 59.9844 123.012 60.4844C122.02 60.9844 120.824 61.2344 119.426 61.2344C118.332 61.2344 117.352 61.0469 116.484 60.6719C115.617 60.2891 114.875 59.7422 114.258 59.0312C113.648 58.3203 113.184 57.4609 112.863 56.4531C112.543 55.4453 112.383 54.3164 112.383 53.0664V51.8828C112.383 50.6328 112.547 49.5039 112.875 48.4961C113.211 47.4805 113.688 46.6172 114.305 45.9062C114.93 45.1953 115.676 44.6484 116.543 44.2656C117.41 43.8828 118.379 43.6914 119.449 43.6914C120.871 43.6914 122.07 43.9492 123.047 44.4648C124.031 44.9805 124.793 45.6914 125.332 46.5977C125.879 47.5039 126.207 48.5352 126.316 49.6914H122.801C122.762 49.0039 122.625 48.4219 122.391 47.9453C122.156 47.4609 121.801 47.0977 121.324 46.8555C120.855 46.6055 120.23 46.4805 119.449 46.4805C118.863 46.4805 118.352 46.5898 117.914 46.8086C117.477 47.0273 117.109 47.3594 116.812 47.8047C116.516 48.25 116.293 48.8125 116.145 49.4922C116.004 50.1641 115.934 50.9531 115.934 51.8594V53.0664C115.934 53.9492 116 54.7266 116.133 55.3984C116.266 56.0625 116.469 56.625 116.742 57.0859C117.023 57.5391 117.383 57.8828 117.82 58.1172C118.266 58.3438 118.801 58.457 119.426 58.457C120.16 58.457 120.766 58.3398 121.242 58.1055C121.719 57.8711 122.082 57.5234 122.332 57.0625C122.59 56.6016 122.742 56.0273 122.789 55.3398ZM132.152 59.5703L135.516 48.3203H139.137L134.039 62.9102C133.93 63.2305 133.781 63.5742 133.594 63.9414C133.414 64.3086 133.168 64.6562 132.855 64.9844C132.551 65.3203 132.164 65.5938 131.695 65.8047C131.234 66.0156 130.668 66.1211 129.996 66.1211C129.676 66.1211 129.414 66.1016 129.211 66.0625C129.008 66.0234 128.766 65.9688 128.484 65.8984V63.4258C128.57 63.4258 128.66 63.4258 128.754 63.4258C128.848 63.4336 128.938 63.4375 129.023 63.4375C129.469 63.4375 129.832 63.3867 130.113 63.2852C130.395 63.1836 130.621 63.0273 130.793 62.8164C130.965 62.6133 131.102 62.3477 131.203 62.0195L132.152 59.5703ZM130.746 48.3203L133.5 57.5078L133.98 61.082L131.684 61.3281L127.125 48.3203H130.746ZM140.484 43H143.859V58.0938L143.52 61H140.484V43ZM151.887 54.5312V54.7773C151.887 55.7227 151.785 56.5898 151.582 57.3789C151.387 58.168 151.082 58.8516 150.668 59.4297C150.254 60 149.738 60.4453 149.121 60.7656C148.512 61.0781 147.793 61.2344 146.965 61.2344C146.191 61.2344 145.52 61.0781 144.949 60.7656C144.387 60.4531 143.914 60.0117 143.531 59.4414C143.148 58.8711 142.84 58.2031 142.605 57.4375C142.371 56.6719 142.195 55.8359 142.078 54.9297V54.3906C142.195 53.4844 142.371 52.6484 142.605 51.8828C142.84 51.1172 143.148 50.4492 143.531 49.8789C143.914 49.3086 144.387 48.8672 144.949 48.5547C145.512 48.2422 146.176 48.0859 146.941 48.0859C147.777 48.0859 148.504 48.2461 149.121 48.5664C149.746 48.8789 150.262 49.3242 150.668 49.9023C151.082 50.4727 151.387 51.1523 151.582 51.9414C151.785 52.7227 151.887 53.5859 151.887 54.5312ZM148.512 54.7773V54.5312C148.512 54.0156 148.473 53.5312 148.395 53.0781C148.324 52.6172 148.199 52.2148 148.02 51.8711C147.84 51.5195 147.594 51.2422 147.281 51.0391C146.977 50.8359 146.582 50.7344 146.098 50.7344C145.637 50.7344 145.246 50.8125 144.926 50.9688C144.605 51.125 144.34 51.3438 144.129 51.625C143.926 51.9062 143.773 52.2422 143.672 52.6328C143.57 53.0156 143.508 53.4375 143.484 53.8984V55.4336C143.508 56.0508 143.609 56.5977 143.789 57.0742C143.977 57.543 144.258 57.9141 144.633 58.1875C145.016 58.4531 145.512 58.5859 146.121 58.5859C146.598 58.5859 146.992 58.4922 147.305 58.3047C147.617 58.1172 147.859 57.8516 148.031 57.5078C148.211 57.1641 148.336 56.7617 148.406 56.3008C148.477 55.832 148.512 55.3242 148.512 54.7773ZM159.82 61.2344C158.836 61.2344 157.953 61.0781 157.172 60.7656C156.391 60.4453 155.727 60.0039 155.18 59.4414C154.641 58.8789 154.227 58.2266 153.938 57.4844C153.648 56.7344 153.504 55.9375 153.504 55.0938V54.625C153.504 53.6641 153.641 52.7852 153.914 51.9883C154.188 51.1914 154.578 50.5 155.086 49.9141C155.602 49.3281 156.227 48.8789 156.961 48.5664C157.695 48.2461 158.523 48.0859 159.445 48.0859C160.344 48.0859 161.141 48.2344 161.836 48.5312C162.531 48.8281 163.113 49.25 163.582 49.7969C164.059 50.3438 164.418 51 164.66 51.7656C164.902 52.5234 165.023 53.3672 165.023 54.2969V55.7031H154.945V53.4531H161.707V53.1953C161.707 52.7266 161.621 52.3086 161.449 51.9414C161.285 51.5664 161.035 51.2695 160.699 51.0508C160.363 50.832 159.934 50.7227 159.41 50.7227C158.965 50.7227 158.582 50.8203 158.262 51.0156C157.941 51.2109 157.68 51.4844 157.477 51.8359C157.281 52.1875 157.133 52.6016 157.031 53.0781C156.938 53.5469 156.891 54.0625 156.891 54.625V55.0938C156.891 55.6016 156.961 56.0703 157.102 56.5C157.25 56.9297 157.457 57.3008 157.723 57.6133C157.996 57.9258 158.324 58.168 158.707 58.3398C159.098 58.5117 159.539 58.5977 160.031 58.5977C160.641 58.5977 161.207 58.4805 161.73 58.2461C162.262 58.0039 162.719 57.6406 163.102 57.1562L164.742 58.9375C164.477 59.3203 164.113 59.6875 163.652 60.0391C163.199 60.3906 162.652 60.6797 162.012 60.9062C161.371 61.125 160.641 61.2344 159.82 61.2344ZM170.32 51.0859V61H166.945V48.3203H170.121L170.32 51.0859ZM174.141 48.2383L174.082 51.3672C173.918 51.3438 173.719 51.3242 173.484 51.3086C173.258 51.2852 173.051 51.2734 172.863 51.2734C172.387 51.2734 171.973 51.3359 171.621 51.4609C171.277 51.5781 170.988 51.7539 170.754 51.9883C170.527 52.2227 170.355 52.5078 170.238 52.8438C170.129 53.1797 170.066 53.5625 170.051 53.9922L169.371 53.7812C169.371 52.9609 169.453 52.207 169.617 51.5195C169.781 50.8242 170.02 50.2188 170.332 49.7031C170.652 49.1875 171.043 48.7891 171.504 48.5078C171.965 48.2266 172.492 48.0859 173.086 48.0859C173.273 48.0859 173.465 48.1016 173.66 48.1328C173.855 48.1562 174.016 48.1914 174.141 48.2383ZM188.859 46.8555L184.219 61H180.48L186.82 43.9375H189.199L188.859 46.8555ZM192.715 61L188.062 46.8555L187.688 43.9375H190.09L196.465 61H192.715ZM192.504 54.6484V57.4023H183.492V54.6484H192.504ZM201.562 58.5391L204.375 48.3203H207.902L203.625 61H201.492L201.562 58.5391ZM199.629 48.3203L202.453 58.5508L202.512 61H200.367L196.09 48.3203H199.629ZM216.07 58.1406V52.4922C216.07 52.0859 216.004 51.7383 215.871 51.4492C215.738 51.1523 215.531 50.9219 215.25 50.7578C214.977 50.5938 214.621 50.5117 214.184 50.5117C213.809 50.5117 213.484 50.5781 213.211 50.7109C212.938 50.8359 212.727 51.0195 212.578 51.2617C212.43 51.4961 212.355 51.7734 212.355 52.0938H208.98C208.98 51.5547 209.105 51.043 209.355 50.5586C209.605 50.0742 209.969 49.6484 210.445 49.2812C210.922 48.9062 211.488 48.6133 212.145 48.4023C212.809 48.1914 213.551 48.0859 214.371 48.0859C215.355 48.0859 216.23 48.25 216.996 48.5781C217.762 48.9062 218.363 49.3984 218.801 50.0547C219.246 50.7109 219.469 51.5312 219.469 52.5156V57.9414C219.469 58.6367 219.512 59.207 219.598 59.6523C219.684 60.0898 219.809 60.4727 219.973 60.8008V61H216.562C216.398 60.6562 216.273 60.2266 216.188 59.7109C216.109 59.1875 216.07 58.6641 216.07 58.1406ZM216.516 53.2773L216.539 55.1875H214.652C214.207 55.1875 213.82 55.2383 213.492 55.3398C213.164 55.4414 212.895 55.5859 212.684 55.7734C212.473 55.9531 212.316 56.1641 212.215 56.4062C212.121 56.6484 212.074 56.9141 212.074 57.2031C212.074 57.4922 212.141 57.7539 212.273 57.9883C212.406 58.2148 212.598 58.3945 212.848 58.5273C213.098 58.6523 213.391 58.7148 213.727 58.7148C214.234 58.7148 214.676 58.6133 215.051 58.4102C215.426 58.207 215.715 57.957 215.918 57.6602C216.129 57.3633 216.238 57.082 216.246 56.8164L217.137 58.2461C217.012 58.5664 216.84 58.8984 216.621 59.2422C216.41 59.5859 216.141 59.9102 215.812 60.2148C215.484 60.5117 215.09 60.7578 214.629 60.9531C214.168 61.1406 213.621 61.2344 212.988 61.2344C212.184 61.2344 211.453 61.0742 210.797 60.7539C210.148 60.4258 209.633 59.9766 209.25 59.4062C208.875 58.8281 208.688 58.1719 208.688 57.4375C208.688 56.7734 208.812 56.1836 209.062 55.668C209.312 55.1523 209.68 54.7188 210.164 54.3672C210.656 54.0078 211.27 53.7383 212.004 53.5586C212.738 53.3711 213.59 53.2773 214.559 53.2773H216.516ZM225.633 43V61H222.246V43H225.633ZM235.266 58.1406V52.4922C235.266 52.0859 235.199 51.7383 235.066 51.4492C234.934 51.1523 234.727 50.9219 234.445 50.7578C234.172 50.5938 233.816 50.5117 233.379 50.5117C233.004 50.5117 232.68 50.5781 232.406 50.7109C232.133 50.8359 231.922 51.0195 231.773 51.2617C231.625 51.4961 231.551 51.7734 231.551 52.0938H228.176C228.176 51.5547 228.301 51.043 228.551 50.5586C228.801 50.0742 229.164 49.6484 229.641 49.2812C230.117 48.9062 230.684 48.6133 231.34 48.4023C232.004 48.1914 232.746 48.0859 233.566 48.0859C234.551 48.0859 235.426 48.25 236.191 48.5781C236.957 48.9062 237.559 49.3984 237.996 50.0547C238.441 50.7109 238.664 51.5312 238.664 52.5156V57.9414C238.664 58.6367 238.707 59.207 238.793 59.6523C238.879 60.0898 239.004 60.4727 239.168 60.8008V61H235.758C235.594 60.6562 235.469 60.2266 235.383 59.7109C235.305 59.1875 235.266 58.6641 235.266 58.1406ZM235.711 53.2773L235.734 55.1875H233.848C233.402 55.1875 233.016 55.2383 232.688 55.3398C232.359 55.4414 232.09 55.5859 231.879 55.7734C231.668 55.9531 231.512 56.1641 231.41 56.4062C231.316 56.6484 231.27 56.9141 231.27 57.2031C231.27 57.4922 231.336 57.7539 231.469 57.9883C231.602 58.2148 231.793 58.3945 232.043 58.5273C232.293 58.6523 232.586 58.7148 232.922 58.7148C233.43 58.7148 233.871 58.6133 234.246 58.4102C234.621 58.207 234.91 57.957 235.113 57.6602C235.324 57.3633 235.434 57.082 235.441 56.8164L236.332 58.2461C236.207 58.5664 236.035 58.8984 235.816 59.2422C235.605 59.5859 235.336 59.9102 235.008 60.2148C234.68 60.5117 234.285 60.7578 233.824 60.9531C233.363 61.1406 232.816 61.2344 232.184 61.2344C231.379 61.2344 230.648 61.0742 229.992 60.7539C229.344 60.4258 228.828 59.9766 228.445 59.4062C228.07 58.8281 227.883 58.1719 227.883 57.4375C227.883 56.7734 228.008 56.1836 228.258 55.668C228.508 55.1523 228.875 54.7188 229.359 54.3672C229.852 54.0078 230.465 53.7383 231.199 53.5586C231.934 53.3711 232.785 53.2773 233.754 53.2773H235.711ZM244.57 51.0273V61H241.195V48.3203H244.359L244.57 51.0273ZM244.078 54.2148H243.164C243.164 53.2773 243.285 52.4336 243.527 51.6836C243.77 50.9258 244.109 50.2812 244.547 49.75C244.984 49.2109 245.504 48.8008 246.105 48.5195C246.715 48.2305 247.395 48.0859 248.145 48.0859C248.738 48.0859 249.281 48.1719 249.773 48.3438C250.266 48.5156 250.688 48.7891 251.039 49.1641C251.398 49.5391 251.672 50.0352 251.859 50.6523C252.055 51.2695 252.152 52.0234 252.152 52.9141V61H248.754V52.9023C248.754 52.3398 248.676 51.9023 248.52 51.5898C248.363 51.2773 248.133 51.0586 247.828 50.9336C247.531 50.8008 247.164 50.7344 246.727 50.7344C246.273 50.7344 245.879 50.8242 245.543 51.0039C245.215 51.1836 244.941 51.4336 244.723 51.7539C244.512 52.0664 244.352 52.4336 244.242 52.8555C244.133 53.2773 244.078 53.7305 244.078 54.2148ZM259.957 58.5977C260.371 58.5977 260.738 58.5195 261.059 58.3633C261.379 58.1992 261.629 57.9727 261.809 57.6836C261.996 57.3867 262.094 57.0391 262.102 56.6406H265.277C265.27 57.5312 265.031 58.3242 264.562 59.0195C264.094 59.707 263.465 60.25 262.676 60.6484C261.887 61.0391 261.004 61.2344 260.027 61.2344C259.043 61.2344 258.184 61.0703 257.449 60.7422C256.723 60.4141 256.117 59.9609 255.633 59.3828C255.148 58.7969 254.785 58.1172 254.543 57.3438C254.301 56.5625 254.18 55.7266 254.18 54.8359V54.4961C254.18 53.5977 254.301 52.7617 254.543 51.9883C254.785 51.207 255.148 50.5273 255.633 49.9492C256.117 49.3633 256.723 48.9062 257.449 48.5781C258.176 48.25 259.027 48.0859 260.004 48.0859C261.043 48.0859 261.953 48.2852 262.734 48.6836C263.523 49.082 264.141 49.6523 264.586 50.3945C265.039 51.1289 265.27 52 265.277 53.0078H262.102C262.094 52.5859 262.004 52.2031 261.832 51.8594C261.668 51.5156 261.426 51.2422 261.105 51.0391C260.793 50.8281 260.406 50.7227 259.945 50.7227C259.453 50.7227 259.051 50.8281 258.738 51.0391C258.426 51.2422 258.184 51.5234 258.012 51.8828C257.84 52.2344 257.719 52.6367 257.648 53.0898C257.586 53.5352 257.555 54.0039 257.555 54.4961V54.8359C257.555 55.3281 257.586 55.8008 257.648 56.2539C257.711 56.707 257.828 57.1094 258 57.4609C258.18 57.8125 258.426 58.0898 258.738 58.293C259.051 58.4961 259.457 58.5977 259.957 58.5977ZM270.527 43V61H267.152V43H270.527ZM270.047 54.2148H269.121C269.129 53.332 269.246 52.5195 269.473 51.7773C269.699 51.0273 270.023 50.3789 270.445 49.832C270.867 49.2773 271.371 48.8477 271.957 48.543C272.551 48.2383 273.207 48.0859 273.926 48.0859C274.551 48.0859 275.117 48.1758 275.625 48.3555C276.141 48.5273 276.582 48.8086 276.949 49.1992C277.324 49.582 277.613 50.0859 277.816 50.7109C278.02 51.3359 278.121 52.0938 278.121 52.9844V61H274.723V52.9609C274.723 52.3984 274.641 51.957 274.477 51.6367C274.32 51.3086 274.09 51.0781 273.785 50.9453C273.488 50.8047 273.121 50.7344 272.684 50.7344C272.199 50.7344 271.785 50.8242 271.441 51.0039C271.105 51.1836 270.836 51.4336 270.633 51.7539C270.43 52.0664 270.281 52.4336 270.188 52.8555C270.094 53.2773 270.047 53.7305 270.047 54.2148ZM286.523 61.2344C285.539 61.2344 284.656 61.0781 283.875 60.7656C283.094 60.4453 282.43 60.0039 281.883 59.4414C281.344 58.8789 280.93 58.2266 280.641 57.4844C280.352 56.7344 280.207 55.9375 280.207 55.0938V54.625C280.207 53.6641 280.344 52.7852 280.617 51.9883C280.891 51.1914 281.281 50.5 281.789 49.9141C282.305 49.3281 282.93 48.8789 283.664 48.5664C284.398 48.2461 285.227 48.0859 286.148 48.0859C287.047 48.0859 287.844 48.2344 288.539 48.5312C289.234 48.8281 289.816 49.25 290.285 49.7969C290.762 50.3438 291.121 51 291.363 51.7656C291.605 52.5234 291.727 53.3672 291.727 54.2969V55.7031H281.648V53.4531H288.41V53.1953C288.41 52.7266 288.324 52.3086 288.152 51.9414C287.988 51.5664 287.738 51.2695 287.402 51.0508C287.066 50.832 286.637 50.7227 286.113 50.7227C285.668 50.7227 285.285 50.8203 284.965 51.0156C284.645 51.2109 284.383 51.4844 284.18 51.8359C283.984 52.1875 283.836 52.6016 283.734 53.0781C283.641 53.5469 283.594 54.0625 283.594 54.625V55.0938C283.594 55.6016 283.664 56.0703 283.805 56.5C283.953 56.9297 284.16 57.3008 284.426 57.6133C284.699 57.9258 285.027 58.168 285.41 58.3398C285.801 58.5117 286.242 58.5977 286.734 58.5977C287.344 58.5977 287.91 58.4805 288.434 58.2461C288.965 58.0039 289.422 57.6406 289.805 57.1562L291.445 58.9375C291.18 59.3203 290.816 59.6875 290.355 60.0391C289.902 60.3906 289.355 60.6797 288.715 60.9062C288.074 61.125 287.344 61.2344 286.523 61.2344Z" fill="#888888"/>
<path d="M106.688 119H99.1172L99.1641 112.672H106.688C108.25 112.672 109.57 112.297 110.648 111.547C111.742 110.797 112.57 109.68 113.133 108.195C113.711 106.695 114 104.852 114 102.664V101.188C114 99.5469 113.836 98.1094 113.508 96.875C113.195 95.625 112.727 94.5859 112.102 93.7578C111.477 92.9141 110.695 92.2812 109.758 91.8594C108.836 91.4375 107.773 91.2266 106.57 91.2266H98.9766V84.875H106.57C108.883 84.875 111 85.2734 112.922 86.0703C114.859 86.8516 116.531 87.9766 117.938 89.4453C119.359 90.8984 120.453 92.625 121.219 94.625C122 96.6094 122.391 98.8125 122.391 101.234V102.664C122.391 105.07 122 107.273 121.219 109.273C120.453 111.273 119.367 113 117.961 114.453C116.555 115.906 114.891 117.031 112.969 117.828C111.062 118.609 108.969 119 106.688 119ZM103.828 84.875V119H95.6016V84.875H103.828ZM139.477 112.625V102.172C139.477 101.453 139.375 100.836 139.172 100.32C138.969 99.8047 138.648 99.4062 138.211 99.125C137.773 98.8281 137.188 98.6797 136.453 98.6797C135.859 98.6797 135.352 98.7812 134.93 98.9844C134.508 99.1875 134.188 99.4922 133.969 99.8984C133.75 100.305 133.641 100.82 133.641 101.445H125.742C125.742 100.273 126 99.1875 126.516 98.1875C127.047 97.1719 127.797 96.2891 128.766 95.5391C129.75 94.7891 130.922 94.2109 132.281 93.8047C133.656 93.3828 135.188 93.1719 136.875 93.1719C138.891 93.1719 140.688 93.5078 142.266 94.1797C143.859 94.8516 145.117 95.8594 146.039 97.2031C146.961 98.5312 147.422 100.203 147.422 102.219V112.602C147.422 114.258 147.516 115.516 147.703 116.375C147.891 117.219 148.156 117.961 148.5 118.602V119H140.578C140.203 118.219 139.922 117.266 139.734 116.141C139.562 115 139.477 113.828 139.477 112.625ZM140.438 103.508L140.484 107.727H136.992C136.258 107.727 135.633 107.828 135.117 108.031C134.617 108.234 134.211 108.516 133.898 108.875C133.602 109.219 133.383 109.609 133.242 110.047C133.117 110.484 133.055 110.945 133.055 111.43C133.055 111.898 133.164 112.32 133.383 112.695C133.617 113.055 133.93 113.336 134.32 113.539C134.711 113.742 135.148 113.844 135.633 113.844C136.508 113.844 137.25 113.68 137.859 113.352C138.484 113.008 138.961 112.594 139.289 112.109C139.617 111.625 139.781 111.172 139.781 110.75L141.516 113.984C141.203 114.609 140.844 115.242 140.438 115.883C140.047 116.523 139.555 117.117 138.961 117.664C138.383 118.195 137.672 118.633 136.828 118.977C135.984 119.305 134.961 119.469 133.758 119.469C132.195 119.469 130.758 119.148 129.445 118.508C128.148 117.867 127.109 116.977 126.328 115.836C125.547 114.68 125.156 113.352 125.156 111.852C125.156 110.539 125.391 109.367 125.859 108.336C126.344 107.305 127.07 106.43 128.039 105.711C129.008 104.992 130.242 104.445 131.742 104.07C133.242 103.695 135.008 103.508 137.039 103.508H140.438ZM165.164 93.6406V99.125H149.883V93.6406H165.164ZM153.094 87.3359H160.992V110.727C160.992 111.398 161.07 111.922 161.227 112.297C161.383 112.656 161.648 112.914 162.023 113.07C162.414 113.211 162.93 113.281 163.57 113.281C164.023 113.281 164.398 113.273 164.695 113.258C164.992 113.227 165.273 113.188 165.539 113.141V118.789C164.867 119.008 164.164 119.172 163.43 119.281C162.695 119.406 161.914 119.469 161.086 119.469C159.398 119.469 157.953 119.203 156.75 118.672C155.562 118.141 154.656 117.305 154.031 116.164C153.406 115.023 153.094 113.539 153.094 111.711V87.3359ZM181.477 112.625V102.172C181.477 101.453 181.375 100.836 181.172 100.32C180.969 99.8047 180.648 99.4062 180.211 99.125C179.773 98.8281 179.188 98.6797 178.453 98.6797C177.859 98.6797 177.352 98.7812 176.93 98.9844C176.508 99.1875 176.188 99.4922 175.969 99.8984C175.75 100.305 175.641 100.82 175.641 101.445H167.742C167.742 100.273 168 99.1875 168.516 98.1875C169.047 97.1719 169.797 96.2891 170.766 95.5391C171.75 94.7891 172.922 94.2109 174.281 93.8047C175.656 93.3828 177.188 93.1719 178.875 93.1719C180.891 93.1719 182.688 93.5078 184.266 94.1797C185.859 94.8516 187.117 95.8594 188.039 97.2031C188.961 98.5312 189.422 100.203 189.422 102.219V112.602C189.422 114.258 189.516 115.516 189.703 116.375C189.891 117.219 190.156 117.961 190.5 118.602V119H182.578C182.203 118.219 181.922 117.266 181.734 116.141C181.562 115 181.477 113.828 181.477 112.625ZM182.438 103.508L182.484 107.727H178.992C178.258 107.727 177.633 107.828 177.117 108.031C176.617 108.234 176.211 108.516 175.898 108.875C175.602 109.219 175.383 109.609 175.242 110.047C175.117 110.484 175.055 110.945 175.055 111.43C175.055 111.898 175.164 112.32 175.383 112.695C175.617 113.055 175.93 113.336 176.32 113.539C176.711 113.742 177.148 113.844 177.633 113.844C178.508 113.844 179.25 113.68 179.859 113.352C180.484 113.008 180.961 112.594 181.289 112.109C181.617 111.625 181.781 111.172 181.781 110.75L183.516 113.984C183.203 114.609 182.844 115.242 182.438 115.883C182.047 116.523 181.555 117.117 180.961 117.664C180.383 118.195 179.672 118.633 178.828 118.977C177.984 119.305 176.961 119.469 175.758 119.469C174.195 119.469 172.758 119.148 171.445 118.508C170.148 117.867 169.109 116.977 168.328 115.836C167.547 114.68 167.156 113.352 167.156 111.852C167.156 110.539 167.391 109.367 167.859 108.336C168.344 107.305 169.07 106.43 170.039 105.711C171.008 104.992 172.242 104.445 173.742 104.07C175.242 103.695 177.008 103.508 179.039 103.508H182.438ZM219.047 110.961L226.148 84.875H235.359L223.852 119H217.898L219.047 110.961ZM212.602 84.875L219.703 110.961L220.898 119H214.875L203.438 84.875H212.602ZM249.586 112.625V102.172C249.586 101.453 249.484 100.836 249.281 100.32C249.078 99.8047 248.758 99.4062 248.32 99.125C247.883 98.8281 247.297 98.6797 246.562 98.6797C245.969 98.6797 245.461 98.7812 245.039 98.9844C244.617 99.1875 244.297 99.4922 244.078 99.8984C243.859 100.305 243.75 100.82 243.75 101.445H235.852C235.852 100.273 236.109 99.1875 236.625 98.1875C237.156 97.1719 237.906 96.2891 238.875 95.5391C239.859 94.7891 241.031 94.2109 242.391 93.8047C243.766 93.3828 245.297 93.1719 246.984 93.1719C249 93.1719 250.797 93.5078 252.375 94.1797C253.969 94.8516 255.227 95.8594 256.148 97.2031C257.07 98.5312 257.531 100.203 257.531 102.219V112.602C257.531 114.258 257.625 115.516 257.812 116.375C258 117.219 258.266 117.961 258.609 118.602V119H250.688C250.312 118.219 250.031 117.266 249.844 116.141C249.672 115 249.586 113.828 249.586 112.625ZM250.547 103.508L250.594 107.727H247.102C246.367 107.727 245.742 107.828 245.227 108.031C244.727 108.234 244.32 108.516 244.008 108.875C243.711 109.219 243.492 109.609 243.352 110.047C243.227 110.484 243.164 110.945 243.164 111.43C243.164 111.898 243.273 112.32 243.492 112.695C243.727 113.055 244.039 113.336 244.43 113.539C244.82 113.742 245.258 113.844 245.742 113.844C246.617 113.844 247.359 113.68 247.969 113.352C248.594 113.008 249.07 112.594 249.398 112.109C249.727 111.625 249.891 111.172 249.891 110.75L251.625 113.984C251.312 114.609 250.953 115.242 250.547 115.883C250.156 116.523 249.664 117.117 249.07 117.664C248.492 118.195 247.781 118.633 246.938 118.977C246.094 119.305 245.07 119.469 243.867 119.469C242.305 119.469 240.867 119.148 239.555 118.508C238.258 117.867 237.219 116.977 236.438 115.836C235.656 114.68 235.266 113.352 235.266 111.852C235.266 110.539 235.5 109.367 235.969 108.336C236.453 107.305 237.18 106.43 238.148 105.711C239.117 104.992 240.352 104.445 241.852 104.07C243.352 103.695 245.117 103.508 247.148 103.508H250.547ZM270.258 83V119H262.336V83H270.258ZM283.477 93.6406V119H275.555V93.6406H283.477ZM275.086 87.1016C275.086 85.9766 275.492 85.0547 276.305 84.3359C277.117 83.6172 278.172 83.2578 279.469 83.2578C280.766 83.2578 281.82 83.6172 282.633 84.3359C283.445 85.0547 283.852 85.9766 283.852 87.1016C283.852 88.2266 283.445 89.1484 282.633 89.8672C281.82 90.5859 280.766 90.9453 279.469 90.9453C278.172 90.9453 277.117 90.5859 276.305 89.8672C275.492 89.1484 275.086 88.2266 275.086 87.1016ZM302.93 113.188V83H310.875V119H303.75L302.93 113.188ZM287.367 106.625V106.133C287.367 104.211 287.578 102.461 288 100.883C288.422 99.2891 289.047 97.9219 289.875 96.7812C290.703 95.625 291.734 94.7344 292.969 94.1094C294.203 93.4844 295.625 93.1719 297.234 93.1719C298.672 93.1719 299.93 93.5078 301.008 94.1797C302.086 94.8359 303.008 95.7578 303.773 96.9453C304.539 98.1328 305.164 99.5234 305.648 101.117C306.133 102.695 306.5 104.398 306.75 106.227V106.812C306.5 108.531 306.133 110.156 305.648 111.688C305.164 113.203 304.539 114.547 303.773 115.719C303.008 116.891 302.078 117.812 300.984 118.484C299.906 119.141 298.641 119.469 297.188 119.469C295.578 119.469 294.156 119.148 292.922 118.508C291.703 117.867 290.68 116.969 289.852 115.812C289.039 114.656 288.422 113.297 288 111.734C287.578 110.172 287.367 108.469 287.367 106.625ZM295.266 106.133V106.625C295.266 107.578 295.328 108.461 295.453 109.273C295.578 110.086 295.789 110.805 296.086 111.43C296.398 112.039 296.805 112.516 297.305 112.859C297.82 113.203 298.453 113.375 299.203 113.375C300.219 113.375 301.055 113.133 301.711 112.648C302.383 112.164 302.875 111.477 303.188 110.586C303.516 109.695 303.656 108.648 303.609 107.445V105.594C303.641 104.562 303.57 103.656 303.398 102.875C303.227 102.078 302.953 101.414 302.578 100.883C302.219 100.352 301.758 99.9531 301.195 99.6875C300.648 99.4062 300 99.2656 299.25 99.2656C298.516 99.2656 297.891 99.4375 297.375 99.7812C296.875 100.125 296.469 100.609 296.156 101.234C295.844 101.844 295.617 102.57 295.477 103.414C295.336 104.242 295.266 105.148 295.266 106.133ZM328.523 112.625V102.172C328.523 101.453 328.422 100.836 328.219 100.32C328.016 99.8047 327.695 99.4062 327.258 99.125C326.82 98.8281 326.234 98.6797 325.5 98.6797C324.906 98.6797 324.398 98.7812 323.977 98.9844C323.555 99.1875 323.234 99.4922 323.016 99.8984C322.797 100.305 322.688 100.82 322.688 101.445H314.789C314.789 100.273 315.047 99.1875 315.562 98.1875C316.094 97.1719 316.844 96.2891 317.812 95.5391C318.797 94.7891 319.969 94.2109 321.328 93.8047C322.703 93.3828 324.234 93.1719 325.922 93.1719C327.938 93.1719 329.734 93.5078 331.312 94.1797C332.906 94.8516 334.164 95.8594 335.086 97.2031C336.008 98.5312 336.469 100.203 336.469 102.219V112.602C336.469 114.258 336.562 115.516 336.75 116.375C336.938 117.219 337.203 117.961 337.547 118.602V119H329.625C329.25 118.219 328.969 117.266 328.781 116.141C328.609 115 328.523 113.828 328.523 112.625ZM329.484 103.508L329.531 107.727H326.039C325.305 107.727 324.68 107.828 324.164 108.031C323.664 108.234 323.258 108.516 322.945 108.875C322.648 109.219 322.43 109.609 322.289 110.047C322.164 110.484 322.102 110.945 322.102 111.43C322.102 111.898 322.211 112.32 322.43 112.695C322.664 113.055 322.977 113.336 323.367 113.539C323.758 113.742 324.195 113.844 324.68 113.844C325.555 113.844 326.297 113.68 326.906 113.352C327.531 113.008 328.008 112.594 328.336 112.109C328.664 111.625 328.828 111.172 328.828 110.75L330.562 113.984C330.25 114.609 329.891 115.242 329.484 115.883C329.094 116.523 328.602 117.117 328.008 117.664C327.43 118.195 326.719 118.633 325.875 118.977C325.031 119.305 324.008 119.469 322.805 119.469C321.242 119.469 319.805 119.148 318.492 118.508C317.195 117.867 316.156 116.977 315.375 115.836C314.594 114.68 314.203 113.352 314.203 111.852C314.203 110.539 314.438 109.367 314.906 108.336C315.391 107.305 316.117 106.43 317.086 105.711C318.055 104.992 319.289 104.445 320.789 104.07C322.289 103.695 324.055 103.508 326.086 103.508H329.484ZM354.211 93.6406V99.125H338.93V93.6406H354.211ZM342.141 87.3359H350.039V110.727C350.039 111.398 350.117 111.922 350.273 112.297C350.43 112.656 350.695 112.914 351.07 113.07C351.461 113.211 351.977 113.281 352.617 113.281C353.07 113.281 353.445 113.273 353.742 113.258C354.039 113.227 354.32 113.188 354.586 113.141V118.789C353.914 119.008 353.211 119.172 352.477 119.281C351.742 119.406 350.961 119.469 350.133 119.469C348.445 119.469 347 119.203 345.797 118.672C344.609 118.141 343.703 117.305 343.078 116.164C342.453 115.023 342.141 113.539 342.141 111.711V87.3359ZM365.695 93.6406V119H357.773V93.6406H365.695ZM357.305 87.1016C357.305 85.9766 357.711 85.0547 358.523 84.3359C359.336 83.6172 360.391 83.2578 361.688 83.2578C362.984 83.2578 364.039 83.6172 364.852 84.3359C365.664 85.0547 366.07 85.9766 366.07 87.1016C366.07 88.2266 365.664 89.1484 364.852 89.8672C364.039 90.5859 362.984 90.9453 361.688 90.9453C360.391 90.9453 359.336 90.5859 358.523 89.8672C357.711 89.1484 357.305 88.2266 357.305 87.1016ZM369.586 106.578V106.086C369.586 104.227 369.852 102.516 370.383 100.953C370.914 99.375 371.695 98.0078 372.727 96.8516C373.758 95.6953 375.031 94.7969 376.547 94.1562C378.062 93.5 379.812 93.1719 381.797 93.1719C383.797 93.1719 385.555 93.5 387.07 94.1562C388.602 94.7969 389.883 95.6953 390.914 96.8516C391.945 98.0078 392.727 99.375 393.258 100.953C393.789 102.516 394.055 104.227 394.055 106.086V106.578C394.055 108.422 393.789 110.133 393.258 111.711C392.727 113.273 391.945 114.641 390.914 115.812C389.883 116.969 388.609 117.867 387.094 118.508C385.578 119.148 383.828 119.469 381.844 119.469C379.859 119.469 378.102 119.148 376.57 118.508C375.039 117.867 373.758 116.969 372.727 115.812C371.695 114.641 370.914 113.273 370.383 111.711C369.852 110.133 369.586 108.422 369.586 106.578ZM377.484 106.086V106.578C377.484 107.531 377.555 108.422 377.695 109.25C377.836 110.078 378.07 110.805 378.398 111.43C378.727 112.039 379.172 112.516 379.734 112.859C380.297 113.203 381 113.375 381.844 113.375C382.672 113.375 383.359 113.203 383.906 112.859C384.469 112.516 384.914 112.039 385.242 111.43C385.57 110.805 385.805 110.078 385.945 109.25C386.086 108.422 386.156 107.531 386.156 106.578V106.086C386.156 105.164 386.086 104.297 385.945 103.484C385.805 102.656 385.57 101.93 385.242 101.305C384.914 100.664 384.469 100.164 383.906 99.8047C383.344 99.4453 382.641 99.2656 381.797 99.2656C380.969 99.2656 380.273 99.4453 379.711 99.8047C379.164 100.164 378.727 100.664 378.398 101.305C378.07 101.93 377.836 102.656 377.695 103.484C377.555 104.297 377.484 105.164 377.484 106.086ZM405.328 99.0547V119H397.43V93.6406H404.836L405.328 99.0547ZM404.391 105.453L402.539 105.5C402.539 103.562 402.773 101.836 403.242 100.32C403.711 98.7891 404.375 97.4922 405.234 96.4297C406.094 95.3672 407.117 94.5625 408.305 94.0156C409.508 93.4531 410.844 93.1719 412.312 93.1719C413.484 93.1719 414.555 93.3438 415.523 93.6875C416.508 94.0312 417.352 94.5859 418.055 95.3516C418.773 96.1172 419.32 97.1328 419.695 98.3984C420.086 99.6484 420.281 101.195 420.281 103.039V119H412.336V103.016C412.336 102 412.195 101.227 411.914 100.695C411.633 100.148 411.227 99.7734 410.695 99.5703C410.164 99.3672 409.516 99.2656 408.75 99.2656C407.938 99.2656 407.25 99.4219 406.688 99.7344C406.125 100.047 405.672 100.484 405.328 101.047C405 101.594 404.758 102.242 404.602 102.992C404.461 103.742 404.391 104.562 404.391 105.453Z" fill="black"/>
<path d="M1134 0H1348C1356.28 0 1363 6.71573 1363 15V148C1363 156.284 1356.28 163 1348 163H1134V0Z" fill="#1C658F"/>
<path d="M1210.62 43.625H1286.38V119.375H1210.62V43.625Z" fill="white" fill-opacity="0.01"/>
<path d="M1276.91 72.0312V105.172C1276.91 107.787 1274.79 109.906 1272.17 109.906H1224.83C1222.21 109.906 1220.09 107.787 1220.09 105.172V57.8281C1220.09 55.2134 1222.21 53.0938 1224.83 53.0938H1261.12" stroke="white" stroke-width="7.24" stroke-linecap="round" stroke-linejoin="round"/>
<path d="M1232.72 75.1875L1248.5 87.8125L1276.91 53.0938" stroke="white" stroke-width="7.24" stroke-linecap="round" stroke-linejoin="round"/>
</svg>
