<svg width="1363" height="163" viewBox="0 0 1363 163" fill="none" xmlns="http://www.w3.org/2000/svg">
<path d="M0 15C0 6.71573 6.71573 0 15 0H37V163H15C6.71573 163 0 156.284 0 148V15Z" fill="#424242"/>
<rect width="1097" height="163" transform="translate(37)" fill="#F0F0F0"/>
<path d="M101.906 53.9219L94.3945 51.2383V48.0859L104.602 52.375V54.6367L101.906 53.9219ZM94.3945 56.1719L101.918 53.4297L104.602 52.7852V55.0352L94.3945 59.3242V56.1719ZM122.789 55.3398H126.293C126.223 56.4883 125.906 57.5078 125.344 58.3984C124.789 59.2891 124.012 59.9844 123.012 60.4844C122.02 60.9844 120.824 61.2344 119.426 61.2344C118.332 61.2344 117.352 61.0469 116.484 60.6719C115.617 60.2891 114.875 59.7422 114.258 59.0312C113.648 58.3203 113.184 57.4609 112.863 56.4531C112.543 55.4453 112.383 54.3164 112.383 53.0664V51.8828C112.383 50.6328 112.547 49.5039 112.875 48.4961C113.211 47.4805 113.688 46.6172 114.305 45.9062C114.93 45.1953 115.676 44.6484 116.543 44.2656C117.41 43.8828 118.379 43.6914 119.449 43.6914C120.871 43.6914 122.07 43.9492 123.047 44.4648C124.031 44.9805 124.793 45.6914 125.332 46.5977C125.879 47.5039 126.207 48.5352 126.316 49.6914H122.801C122.762 49.0039 122.625 48.4219 122.391 47.9453C122.156 47.4609 121.801 47.0977 121.324 46.8555C120.855 46.6055 120.23 46.4805 119.449 46.4805C118.863 46.4805 118.352 46.5898 117.914 46.8086C117.477 47.0273 117.109 47.3594 116.812 47.8047C116.516 48.25 116.293 48.8125 116.145 49.4922C116.004 50.1641 115.934 50.9531 115.934 51.8594V53.0664C115.934 53.9492 116 54.7266 116.133 55.3984C116.266 56.0625 116.469 56.625 116.742 57.0859C117.023 57.5391 117.383 57.8828 117.82 58.1172C118.266 58.3438 118.801 58.457 119.426 58.457C120.16 58.457 120.766 58.3398 121.242 58.1055C121.719 57.8711 122.082 57.5234 122.332 57.0625C122.59 56.6016 122.742 56.0273 122.789 55.3398ZM132.152 59.5703L135.516 48.3203H139.137L134.039 62.9102C133.93 63.2305 133.781 63.5742 133.594 63.9414C133.414 64.3086 133.168 64.6562 132.855 64.9844C132.551 65.3203 132.164 65.5938 131.695 65.8047C131.234 66.0156 130.668 66.1211 129.996 66.1211C129.676 66.1211 129.414 66.1016 129.211 66.0625C129.008 66.0234 128.766 65.9688 128.484 65.8984V63.4258C128.57 63.4258 128.66 63.4258 128.754 63.4258C128.848 63.4336 128.938 63.4375 129.023 63.4375C129.469 63.4375 129.832 63.3867 130.113 63.2852C130.395 63.1836 130.621 63.0273 130.793 62.8164C130.965 62.6133 131.102 62.3477 131.203 62.0195L132.152 59.5703ZM130.746 48.3203L133.5 57.5078L133.98 61.082L131.684 61.3281L127.125 48.3203H130.746ZM140.484 43H143.859V58.0938L143.52 61H140.484V43ZM151.887 54.5312V54.7773C151.887 55.7227 151.785 56.5898 151.582 57.3789C151.387 58.168 151.082 58.8516 150.668 59.4297C150.254 60 149.738 60.4453 149.121 60.7656C148.512 61.0781 147.793 61.2344 146.965 61.2344C146.191 61.2344 145.52 61.0781 144.949 60.7656C144.387 60.4531 143.914 60.0117 143.531 59.4414C143.148 58.8711 142.84 58.2031 142.605 57.4375C142.371 56.6719 142.195 55.8359 142.078 54.9297V54.3906C142.195 53.4844 142.371 52.6484 142.605 51.8828C142.84 51.1172 143.148 50.4492 143.531 49.8789C143.914 49.3086 144.387 48.8672 144.949 48.5547C145.512 48.2422 146.176 48.0859 146.941 48.0859C147.777 48.0859 148.504 48.2461 149.121 48.5664C149.746 48.8789 150.262 49.3242 150.668 49.9023C151.082 50.4727 151.387 51.1523 151.582 51.9414C151.785 52.7227 151.887 53.5859 151.887 54.5312ZM148.512 54.7773V54.5312C148.512 54.0156 148.473 53.5312 148.395 53.0781C148.324 52.6172 148.199 52.2148 148.02 51.8711C147.84 51.5195 147.594 51.2422 147.281 51.0391C146.977 50.8359 146.582 50.7344 146.098 50.7344C145.637 50.7344 145.246 50.8125 144.926 50.9688C144.605 51.125 144.34 51.3438 144.129 51.625C143.926 51.9062 143.773 52.2422 143.672 52.6328C143.57 53.0156 143.508 53.4375 143.484 53.8984V55.4336C143.508 56.0508 143.609 56.5977 143.789 57.0742C143.977 57.543 144.258 57.9141 144.633 58.1875C145.016 58.4531 145.512 58.5859 146.121 58.5859C146.598 58.5859 146.992 58.4922 147.305 58.3047C147.617 58.1172 147.859 57.8516 148.031 57.5078C148.211 57.1641 148.336 56.7617 148.406 56.3008C148.477 55.832 148.512 55.3242 148.512 54.7773ZM159.82 61.2344C158.836 61.2344 157.953 61.0781 157.172 60.7656C156.391 60.4453 155.727 60.0039 155.18 59.4414C154.641 58.8789 154.227 58.2266 153.938 57.4844C153.648 56.7344 153.504 55.9375 153.504 55.0938V54.625C153.504 53.6641 153.641 52.7852 153.914 51.9883C154.188 51.1914 154.578 50.5 155.086 49.9141C155.602 49.3281 156.227 48.8789 156.961 48.5664C157.695 48.2461 158.523 48.0859 159.445 48.0859C160.344 48.0859 161.141 48.2344 161.836 48.5312C162.531 48.8281 163.113 49.25 163.582 49.7969C164.059 50.3438 164.418 51 164.66 51.7656C164.902 52.5234 165.023 53.3672 165.023 54.2969V55.7031H154.945V53.4531H161.707V53.1953C161.707 52.7266 161.621 52.3086 161.449 51.9414C161.285 51.5664 161.035 51.2695 160.699 51.0508C160.363 50.832 159.934 50.7227 159.41 50.7227C158.965 50.7227 158.582 50.8203 158.262 51.0156C157.941 51.2109 157.68 51.4844 157.477 51.8359C157.281 52.1875 157.133 52.6016 157.031 53.0781C156.938 53.5469 156.891 54.0625 156.891 54.625V55.0938C156.891 55.6016 156.961 56.0703 157.102 56.5C157.25 56.9297 157.457 57.3008 157.723 57.6133C157.996 57.9258 158.324 58.168 158.707 58.3398C159.098 58.5117 159.539 58.5977 160.031 58.5977C160.641 58.5977 161.207 58.4805 161.73 58.2461C162.262 58.0039 162.719 57.6406 163.102 57.1562L164.742 58.9375C164.477 59.3203 164.113 59.6875 163.652 60.0391C163.199 60.3906 162.652 60.6797 162.012 60.9062C161.371 61.125 160.641 61.2344 159.82 61.2344ZM170.32 51.0859V61H166.945V48.3203H170.121L170.32 51.0859ZM174.141 48.2383L174.082 51.3672C173.918 51.3438 173.719 51.3242 173.484 51.3086C173.258 51.2852 173.051 51.2734 172.863 51.2734C172.387 51.2734 171.973 51.3359 171.621 51.4609C171.277 51.5781 170.988 51.7539 170.754 51.9883C170.527 52.2227 170.355 52.5078 170.238 52.8438C170.129 53.1797 170.066 53.5625 170.051 53.9922L169.371 53.7812C169.371 52.9609 169.453 52.207 169.617 51.5195C169.781 50.8242 170.02 50.2188 170.332 49.7031C170.652 49.1875 171.043 48.7891 171.504 48.5078C171.965 48.2266 172.492 48.0859 173.086 48.0859C173.273 48.0859 173.465 48.1016 173.66 48.1328C173.855 48.1562 174.016 48.1914 174.141 48.2383ZM188.859 46.8555L184.219 61H180.48L186.82 43.9375H189.199L188.859 46.8555ZM192.715 61L188.062 46.8555L187.688 43.9375H190.09L196.465 61H192.715ZM192.504 54.6484V57.4023H183.492V54.6484H192.504ZM201.562 58.5391L204.375 48.3203H207.902L203.625 61H201.492L201.562 58.5391ZM199.629 48.3203L202.453 58.5508L202.512 61H200.367L196.09 48.3203H199.629ZM216.07 58.1406V52.4922C216.07 52.0859 216.004 51.7383 215.871 51.4492C215.738 51.1523 215.531 50.9219 215.25 50.7578C214.977 50.5938 214.621 50.5117 214.184 50.5117C213.809 50.5117 213.484 50.5781 213.211 50.7109C212.938 50.8359 212.727 51.0195 212.578 51.2617C212.43 51.4961 212.355 51.7734 212.355 52.0938H208.98C208.98 51.5547 209.105 51.043 209.355 50.5586C209.605 50.0742 209.969 49.6484 210.445 49.2812C210.922 48.9062 211.488 48.6133 212.145 48.4023C212.809 48.1914 213.551 48.0859 214.371 48.0859C215.355 48.0859 216.23 48.25 216.996 48.5781C217.762 48.9062 218.363 49.3984 218.801 50.0547C219.246 50.7109 219.469 51.5312 219.469 52.5156V57.9414C219.469 58.6367 219.512 59.207 219.598 59.6523C219.684 60.0898 219.809 60.4727 219.973 60.8008V61H216.562C216.398 60.6562 216.273 60.2266 216.188 59.7109C216.109 59.1875 216.07 58.6641 216.07 58.1406ZM216.516 53.2773L216.539 55.1875H214.652C214.207 55.1875 213.82 55.2383 213.492 55.3398C213.164 55.4414 212.895 55.5859 212.684 55.7734C212.473 55.9531 212.316 56.1641 212.215 56.4062C212.121 56.6484 212.074 56.9141 212.074 57.2031C212.074 57.4922 212.141 57.7539 212.273 57.9883C212.406 58.2148 212.598 58.3945 212.848 58.5273C213.098 58.6523 213.391 58.7148 213.727 58.7148C214.234 58.7148 214.676 58.6133 215.051 58.4102C215.426 58.207 215.715 57.957 215.918 57.6602C216.129 57.3633 216.238 57.082 216.246 56.8164L217.137 58.2461C217.012 58.5664 216.84 58.8984 216.621 59.2422C216.41 59.5859 216.141 59.9102 215.812 60.2148C215.484 60.5117 215.09 60.7578 214.629 60.9531C214.168 61.1406 213.621 61.2344 212.988 61.2344C212.184 61.2344 211.453 61.0742 210.797 60.7539C210.148 60.4258 209.633 59.9766 209.25 59.4062C208.875 58.8281 208.688 58.1719 208.688 57.4375C208.688 56.7734 208.812 56.1836 209.062 55.668C209.312 55.1523 209.68 54.7188 210.164 54.3672C210.656 54.0078 211.27 53.7383 212.004 53.5586C212.738 53.3711 213.59 53.2773 214.559 53.2773H216.516ZM225.633 43V61H222.246V43H225.633ZM235.266 58.1406V52.4922C235.266 52.0859 235.199 51.7383 235.066 51.4492C234.934 51.1523 234.727 50.9219 234.445 50.7578C234.172 50.5938 233.816 50.5117 233.379 50.5117C233.004 50.5117 232.68 50.5781 232.406 50.7109C232.133 50.8359 231.922 51.0195 231.773 51.2617C231.625 51.4961 231.551 51.7734 231.551 52.0938H228.176C228.176 51.5547 228.301 51.043 228.551 50.5586C228.801 50.0742 229.164 49.6484 229.641 49.2812C230.117 48.9062 230.684 48.6133 231.34 48.4023C232.004 48.1914 232.746 48.0859 233.566 48.0859C234.551 48.0859 235.426 48.25 236.191 48.5781C236.957 48.9062 237.559 49.3984 237.996 50.0547C238.441 50.7109 238.664 51.5312 238.664 52.5156V57.9414C238.664 58.6367 238.707 59.207 238.793 59.6523C238.879 60.0898 239.004 60.4727 239.168 60.8008V61H235.758C235.594 60.6562 235.469 60.2266 235.383 59.7109C235.305 59.1875 235.266 58.6641 235.266 58.1406ZM235.711 53.2773L235.734 55.1875H233.848C233.402 55.1875 233.016 55.2383 232.688 55.3398C232.359 55.4414 232.09 55.5859 231.879 55.7734C231.668 55.9531 231.512 56.1641 231.41 56.4062C231.316 56.6484 231.27 56.9141 231.27 57.2031C231.27 57.4922 231.336 57.7539 231.469 57.9883C231.602 58.2148 231.793 58.3945 232.043 58.5273C232.293 58.6523 232.586 58.7148 232.922 58.7148C233.43 58.7148 233.871 58.6133 234.246 58.4102C234.621 58.207 234.91 57.957 235.113 57.6602C235.324 57.3633 235.434 57.082 235.441 56.8164L236.332 58.2461C236.207 58.5664 236.035 58.8984 235.816 59.2422C235.605 59.5859 235.336 59.9102 235.008 60.2148C234.68 60.5117 234.285 60.7578 233.824 60.9531C233.363 61.1406 232.816 61.2344 232.184 61.2344C231.379 61.2344 230.648 61.0742 229.992 60.7539C229.344 60.4258 228.828 59.9766 228.445 59.4062C228.07 58.8281 227.883 58.1719 227.883 57.4375C227.883 56.7734 228.008 56.1836 228.258 55.668C228.508 55.1523 228.875 54.7188 229.359 54.3672C229.852 54.0078 230.465 53.7383 231.199 53.5586C231.934 53.3711 232.785 53.2773 233.754 53.2773H235.711ZM244.57 51.0273V61H241.195V48.3203H244.359L244.57 51.0273ZM244.078 54.2148H243.164C243.164 53.2773 243.285 52.4336 243.527 51.6836C243.77 50.9258 244.109 50.2812 244.547 49.75C244.984 49.2109 245.504 48.8008 246.105 48.5195C246.715 48.2305 247.395 48.0859 248.145 48.0859C248.738 48.0859 249.281 48.1719 249.773 48.3438C250.266 48.5156 250.688 48.7891 251.039 49.1641C251.398 49.5391 251.672 50.0352 251.859 50.6523C252.055 51.2695 252.152 52.0234 252.152 52.9141V61H248.754V52.9023C248.754 52.3398 248.676 51.9023 248.52 51.5898C248.363 51.2773 248.133 51.0586 247.828 50.9336C247.531 50.8008 247.164 50.7344 246.727 50.7344C246.273 50.7344 245.879 50.8242 245.543 51.0039C245.215 51.1836 244.941 51.4336 244.723 51.7539C244.512 52.0664 244.352 52.4336 244.242 52.8555C244.133 53.2773 244.078 53.7305 244.078 54.2148ZM259.957 58.5977C260.371 58.5977 260.738 58.5195 261.059 58.3633C261.379 58.1992 261.629 57.9727 261.809 57.6836C261.996 57.3867 262.094 57.0391 262.102 56.6406H265.277C265.27 57.5312 265.031 58.3242 264.562 59.0195C264.094 59.707 263.465 60.25 262.676 60.6484C261.887 61.0391 261.004 61.2344 260.027 61.2344C259.043 61.2344 258.184 61.0703 257.449 60.7422C256.723 60.4141 256.117 59.9609 255.633 59.3828C255.148 58.7969 254.785 58.1172 254.543 57.3438C254.301 56.5625 254.18 55.7266 254.18 54.8359V54.4961C254.18 53.5977 254.301 52.7617 254.543 51.9883C254.785 51.207 255.148 50.5273 255.633 49.9492C256.117 49.3633 256.723 48.9062 257.449 48.5781C258.176 48.25 259.027 48.0859 260.004 48.0859C261.043 48.0859 261.953 48.2852 262.734 48.6836C263.523 49.082 264.141 49.6523 264.586 50.3945C265.039 51.1289 265.27 52 265.277 53.0078H262.102C262.094 52.5859 262.004 52.2031 261.832 51.8594C261.668 51.5156 261.426 51.2422 261.105 51.0391C260.793 50.8281 260.406 50.7227 259.945 50.7227C259.453 50.7227 259.051 50.8281 258.738 51.0391C258.426 51.2422 258.184 51.5234 258.012 51.8828C257.84 52.2344 257.719 52.6367 257.648 53.0898C257.586 53.5352 257.555 54.0039 257.555 54.4961V54.8359C257.555 55.3281 257.586 55.8008 257.648 56.2539C257.711 56.707 257.828 57.1094 258 57.4609C258.18 57.8125 258.426 58.0898 258.738 58.293C259.051 58.4961 259.457 58.5977 259.957 58.5977ZM270.527 43V61H267.152V43H270.527ZM270.047 54.2148H269.121C269.129 53.332 269.246 52.5195 269.473 51.7773C269.699 51.0273 270.023 50.3789 270.445 49.832C270.867 49.2773 271.371 48.8477 271.957 48.543C272.551 48.2383 273.207 48.0859 273.926 48.0859C274.551 48.0859 275.117 48.1758 275.625 48.3555C276.141 48.5273 276.582 48.8086 276.949 49.1992C277.324 49.582 277.613 50.0859 277.816 50.7109C278.02 51.3359 278.121 52.0938 278.121 52.9844V61H274.723V52.9609C274.723 52.3984 274.641 51.957 274.477 51.6367C274.32 51.3086 274.09 51.0781 273.785 50.9453C273.488 50.8047 273.121 50.7344 272.684 50.7344C272.199 50.7344 271.785 50.8242 271.441 51.0039C271.105 51.1836 270.836 51.4336 270.633 51.7539C270.43 52.0664 270.281 52.4336 270.188 52.8555C270.094 53.2773 270.047 53.7305 270.047 54.2148ZM286.523 61.2344C285.539 61.2344 284.656 61.0781 283.875 60.7656C283.094 60.4453 282.43 60.0039 281.883 59.4414C281.344 58.8789 280.93 58.2266 280.641 57.4844C280.352 56.7344 280.207 55.9375 280.207 55.0938V54.625C280.207 53.6641 280.344 52.7852 280.617 51.9883C280.891 51.1914 281.281 50.5 281.789 49.9141C282.305 49.3281 282.93 48.8789 283.664 48.5664C284.398 48.2461 285.227 48.0859 286.148 48.0859C287.047 48.0859 287.844 48.2344 288.539 48.5312C289.234 48.8281 289.816 49.25 290.285 49.7969C290.762 50.3438 291.121 51 291.363 51.7656C291.605 52.5234 291.727 53.3672 291.727 54.2969V55.7031H281.648V53.4531H288.41V53.1953C288.41 52.7266 288.324 52.3086 288.152 51.9414C287.988 51.5664 287.738 51.2695 287.402 51.0508C287.066 50.832 286.637 50.7227 286.113 50.7227C285.668 50.7227 285.285 50.8203 284.965 51.0156C284.645 51.2109 284.383 51.4844 284.18 51.8359C283.984 52.1875 283.836 52.6016 283.734 53.0781C283.641 53.5469 283.594 54.0625 283.594 54.625V55.0938C283.594 55.6016 283.664 56.0703 283.805 56.5C283.953 56.9297 284.16 57.3008 284.426 57.6133C284.699 57.9258 285.027 58.168 285.41 58.3398C285.801 58.5117 286.242 58.5977 286.734 58.5977C287.344 58.5977 287.91 58.4805 288.434 58.2461C288.965 58.0039 289.422 57.6406 289.805 57.1562L291.445 58.9375C291.18 59.3203 290.816 59.6875 290.355 60.0391C289.902 60.3906 289.355 60.6797 288.715 60.9062C288.074 61.125 287.344 61.2344 286.523 61.2344Z" fill="#888888"/>
<path d="M99.6797 84.875H106.383L114 108.617L121.617 84.875H128.32L116.719 119H111.281L99.6797 84.875ZM95.6016 84.875H102.539L103.828 111.031V119H95.6016V84.875ZM125.461 84.875H132.422V119H124.172V111.031L125.461 84.875ZM150.492 112.625V102.172C150.492 101.453 150.391 100.836 150.188 100.32C149.984 99.8047 149.664 99.4062 149.227 99.125C148.789 98.8281 148.203 98.6797 147.469 98.6797C146.875 98.6797 146.367 98.7812 145.945 98.9844C145.523 99.1875 145.203 99.4922 144.984 99.8984C144.766 100.305 144.656 100.82 144.656 101.445H136.758C136.758 100.273 137.016 99.1875 137.531 98.1875C138.062 97.1719 138.812 96.2891 139.781 95.5391C140.766 94.7891 141.938 94.2109 143.297 93.8047C144.672 93.3828 146.203 93.1719 147.891 93.1719C149.906 93.1719 151.703 93.5078 153.281 94.1797C154.875 94.8516 156.133 95.8594 157.055 97.2031C157.977 98.5312 158.438 100.203 158.438 102.219V112.602C158.438 114.258 158.531 115.516 158.719 116.375C158.906 117.219 159.172 117.961 159.516 118.602V119H151.594C151.219 118.219 150.938 117.266 150.75 116.141C150.578 115 150.492 113.828 150.492 112.625ZM151.453 103.508L151.5 107.727H148.008C147.273 107.727 146.648 107.828 146.133 108.031C145.633 108.234 145.227 108.516 144.914 108.875C144.617 109.219 144.398 109.609 144.258 110.047C144.133 110.484 144.07 110.945 144.07 111.43C144.07 111.898 144.18 112.32 144.398 112.695C144.633 113.055 144.945 113.336 145.336 113.539C145.727 113.742 146.164 113.844 146.648 113.844C147.523 113.844 148.266 113.68 148.875 113.352C149.5 113.008 149.977 112.594 150.305 112.109C150.633 111.625 150.797 111.172 150.797 110.75L152.531 113.984C152.219 114.609 151.859 115.242 151.453 115.883C151.062 116.523 150.57 117.117 149.977 117.664C149.398 118.195 148.688 118.633 147.844 118.977C147 119.305 145.977 119.469 144.773 119.469C143.211 119.469 141.773 119.148 140.461 118.508C139.164 117.867 138.125 116.977 137.344 115.836C136.562 114.68 136.172 113.352 136.172 111.852C136.172 110.539 136.406 109.367 136.875 108.336C137.359 107.305 138.086 106.43 139.055 105.711C140.023 104.992 141.258 104.445 142.758 104.07C144.258 103.695 146.023 103.508 148.055 103.508H151.453ZM173.531 113.375C174.266 113.375 174.891 113.242 175.406 112.977C175.938 112.695 176.336 112.305 176.602 111.805C176.883 111.289 177.016 110.672 177 109.953H184.43C184.445 111.859 183.977 113.531 183.023 114.969C182.086 116.391 180.805 117.5 179.18 118.297C177.57 119.078 175.75 119.469 173.719 119.469C171.734 119.469 170 119.148 168.516 118.508C167.031 117.852 165.789 116.945 164.789 115.789C163.805 114.617 163.062 113.25 162.562 111.688C162.078 110.125 161.836 108.43 161.836 106.602V106.062C161.836 104.234 162.078 102.539 162.562 100.977C163.062 99.3984 163.805 98.0312 164.789 96.875C165.789 95.7031 167.023 94.7969 168.492 94.1562C169.977 93.5 171.703 93.1719 173.672 93.1719C175.781 93.1719 177.641 93.5703 179.25 94.3672C180.875 95.1641 182.148 96.3203 183.07 97.8359C183.992 99.3516 184.445 101.188 184.43 103.344H177C177.016 102.578 176.898 101.891 176.648 101.281C176.398 100.672 176.008 100.188 175.477 99.8281C174.961 99.4531 174.297 99.2656 173.484 99.2656C172.672 99.2656 172.016 99.4453 171.516 99.8047C171.016 100.164 170.633 100.664 170.367 101.305C170.117 101.93 169.945 102.648 169.852 103.461C169.773 104.273 169.734 105.141 169.734 106.062V106.602C169.734 107.539 169.773 108.422 169.852 109.25C169.945 110.062 170.125 110.781 170.391 111.406C170.656 112.016 171.039 112.5 171.539 112.859C172.039 113.203 172.703 113.375 173.531 113.375ZM195.539 83V119H187.641V83H195.539ZM194.602 105.453L192.75 105.5C192.75 103.719 192.969 102.078 193.406 100.578C193.844 99.0781 194.469 97.7734 195.281 96.6641C196.094 95.5547 197.07 94.6953 198.211 94.0859C199.352 93.4766 200.617 93.1719 202.008 93.1719C203.258 93.1719 204.398 93.3516 205.43 93.7109C206.477 94.0703 207.375 94.6484 208.125 95.4453C208.891 96.2422 209.477 97.2812 209.883 98.5625C210.305 99.8438 210.516 101.406 210.516 103.25V119H202.57V103.203C202.57 102.172 202.422 101.375 202.125 100.812C201.844 100.234 201.438 99.8359 200.906 99.6172C200.375 99.3828 199.727 99.2656 198.961 99.2656C198.039 99.2656 197.289 99.4219 196.711 99.7344C196.133 100.047 195.688 100.484 195.375 101.047C195.078 101.594 194.875 102.242 194.766 102.992C194.656 103.742 194.602 104.562 194.602 105.453ZM223.242 93.6406V119H215.32V93.6406H223.242ZM214.852 87.1016C214.852 85.9766 215.258 85.0547 216.07 84.3359C216.883 83.6172 217.938 83.2578 219.234 83.2578C220.531 83.2578 221.586 83.6172 222.398 84.3359C223.211 85.0547 223.617 85.9766 223.617 87.1016C223.617 88.2266 223.211 89.1484 222.398 89.8672C221.586 90.5859 220.531 90.9453 219.234 90.9453C217.938 90.9453 216.883 90.5859 216.07 89.8672C215.258 89.1484 214.852 88.2266 214.852 87.1016ZM235.875 99.0547V119H227.977V93.6406H235.383L235.875 99.0547ZM234.938 105.453L233.086 105.5C233.086 103.562 233.32 101.836 233.789 100.32C234.258 98.7891 234.922 97.4922 235.781 96.4297C236.641 95.3672 237.664 94.5625 238.852 94.0156C240.055 93.4531 241.391 93.1719 242.859 93.1719C244.031 93.1719 245.102 93.3438 246.07 93.6875C247.055 94.0312 247.898 94.5859 248.602 95.3516C249.32 96.1172 249.867 97.1328 250.242 98.3984C250.633 99.6484 250.828 101.195 250.828 103.039V119H242.883V103.016C242.883 102 242.742 101.227 242.461 100.695C242.18 100.148 241.773 99.7734 241.242 99.5703C240.711 99.3672 240.062 99.2656 239.297 99.2656C238.484 99.2656 237.797 99.4219 237.234 99.7344C236.672 100.047 236.219 100.484 235.875 101.047C235.547 101.594 235.305 102.242 235.148 102.992C235.008 103.742 234.938 104.562 234.938 105.453ZM267.492 119.469C265.43 119.469 263.586 119.148 261.961 118.508C260.336 117.852 258.961 116.953 257.836 115.812C256.727 114.672 255.875 113.359 255.281 111.875C254.703 110.391 254.414 108.82 254.414 107.164V106.273C254.414 104.414 254.672 102.695 255.188 101.117C255.703 99.5234 256.469 98.1328 257.484 96.9453C258.5 95.7578 259.773 94.8359 261.305 94.1797C262.836 93.5078 264.617 93.1719 266.648 93.1719C268.445 93.1719 270.055 93.4609 271.477 94.0391C272.898 94.6172 274.102 95.4453 275.086 96.5234C276.086 97.6016 276.844 98.9062 277.359 100.438C277.891 101.969 278.156 103.688 278.156 105.594V108.805H257.438V103.859H270.445V103.25C270.461 102.406 270.312 101.688 270 101.094C269.703 100.5 269.266 100.047 268.688 99.7344C268.109 99.4219 267.406 99.2656 266.578 99.2656C265.719 99.2656 265.008 99.4531 264.445 99.8281C263.898 100.203 263.469 100.719 263.156 101.375C262.859 102.016 262.648 102.758 262.523 103.602C262.398 104.445 262.336 105.336 262.336 106.273V107.164C262.336 108.102 262.461 108.953 262.711 109.719C262.977 110.484 263.352 111.141 263.836 111.688C264.336 112.219 264.93 112.633 265.617 112.93C266.32 113.227 267.117 113.375 268.008 113.375C269.086 113.375 270.148 113.172 271.195 112.766C272.242 112.359 273.141 111.688 273.891 110.75L277.477 115.016C276.961 115.75 276.227 116.461 275.273 117.148C274.336 117.836 273.211 118.398 271.898 118.836C270.586 119.258 269.117 119.469 267.492 119.469ZM316.242 112.672V119H298.992V112.672H316.242ZM301.922 84.875V119H293.695V84.875H301.922ZM331.617 119.469C329.555 119.469 327.711 119.148 326.086 118.508C324.461 117.852 323.086 116.953 321.961 115.812C320.852 114.672 320 113.359 319.406 111.875C318.828 110.391 318.539 108.82 318.539 107.164V106.273C318.539 104.414 318.797 102.695 319.312 101.117C319.828 99.5234 320.594 98.1328 321.609 96.9453C322.625 95.7578 323.898 94.8359 325.43 94.1797C326.961 93.5078 328.742 93.1719 330.773 93.1719C332.57 93.1719 334.18 93.4609 335.602 94.0391C337.023 94.6172 338.227 95.4453 339.211 96.5234C340.211 97.6016 340.969 98.9062 341.484 100.438C342.016 101.969 342.281 103.688 342.281 105.594V108.805H321.562V103.859H334.57V103.25C334.586 102.406 334.438 101.688 334.125 101.094C333.828 100.5 333.391 100.047 332.812 99.7344C332.234 99.4219 331.531 99.2656 330.703 99.2656C329.844 99.2656 329.133 99.4531 328.57 99.8281C328.023 100.203 327.594 100.719 327.281 101.375C326.984 102.016 326.773 102.758 326.648 103.602C326.523 104.445 326.461 105.336 326.461 106.273V107.164C326.461 108.102 326.586 108.953 326.836 109.719C327.102 110.484 327.477 111.141 327.961 111.688C328.461 112.219 329.055 112.633 329.742 112.93C330.445 113.227 331.242 113.375 332.133 113.375C333.211 113.375 334.273 113.172 335.32 112.766C336.367 112.359 337.266 111.688 338.016 110.75L341.602 115.016C341.086 115.75 340.352 116.461 339.398 117.148C338.461 117.836 337.336 118.398 336.023 118.836C334.711 119.258 333.242 119.469 331.617 119.469ZM358.664 112.625V102.172C358.664 101.453 358.562 100.836 358.359 100.32C358.156 99.8047 357.836 99.4062 357.398 99.125C356.961 98.8281 356.375 98.6797 355.641 98.6797C355.047 98.6797 354.539 98.7812 354.117 98.9844C353.695 99.1875 353.375 99.4922 353.156 99.8984C352.938 100.305 352.828 100.82 352.828 101.445H344.93C344.93 100.273 345.188 99.1875 345.703 98.1875C346.234 97.1719 346.984 96.2891 347.953 95.5391C348.938 94.7891 350.109 94.2109 351.469 93.8047C352.844 93.3828 354.375 93.1719 356.062 93.1719C358.078 93.1719 359.875 93.5078 361.453 94.1797C363.047 94.8516 364.305 95.8594 365.227 97.2031C366.148 98.5312 366.609 100.203 366.609 102.219V112.602C366.609 114.258 366.703 115.516 366.891 116.375C367.078 117.219 367.344 117.961 367.688 118.602V119H359.766C359.391 118.219 359.109 117.266 358.922 116.141C358.75 115 358.664 113.828 358.664 112.625ZM359.625 103.508L359.672 107.727H356.18C355.445 107.727 354.82 107.828 354.305 108.031C353.805 108.234 353.398 108.516 353.086 108.875C352.789 109.219 352.57 109.609 352.43 110.047C352.305 110.484 352.242 110.945 352.242 111.43C352.242 111.898 352.352 112.32 352.57 112.695C352.805 113.055 353.117 113.336 353.508 113.539C353.898 113.742 354.336 113.844 354.82 113.844C355.695 113.844 356.438 113.68 357.047 113.352C357.672 113.008 358.148 112.594 358.477 112.109C358.805 111.625 358.969 111.172 358.969 110.75L360.703 113.984C360.391 114.609 360.031 115.242 359.625 115.883C359.234 116.523 358.742 117.117 358.148 117.664C357.57 118.195 356.859 118.633 356.016 118.977C355.172 119.305 354.148 119.469 352.945 119.469C351.383 119.469 349.945 119.148 348.633 118.508C347.336 117.867 346.297 116.977 345.516 115.836C344.734 114.68 344.344 113.352 344.344 111.852C344.344 110.539 344.578 109.367 345.047 108.336C345.531 107.305 346.258 106.43 347.227 105.711C348.195 104.992 349.43 104.445 350.93 104.07C352.43 103.695 354.195 103.508 356.227 103.508H359.625ZM378.961 99.9219V119H371.062V93.6406H378.445L378.961 99.9219ZM386.461 93.4531L386.32 100.789C386.008 100.758 385.586 100.719 385.055 100.672C384.523 100.625 384.078 100.602 383.719 100.602C382.797 100.602 382 100.711 381.328 100.93C380.672 101.133 380.125 101.445 379.688 101.867C379.266 102.273 378.953 102.789 378.75 103.414C378.562 104.039 378.477 104.766 378.492 105.594L377.062 104.656C377.062 102.953 377.227 101.406 377.555 100.016C377.898 98.6094 378.383 97.3984 379.008 96.3828C379.633 95.3516 380.391 94.5625 381.281 94.0156C382.172 93.4531 383.172 93.1719 384.281 93.1719C384.672 93.1719 385.055 93.1953 385.43 93.2422C385.82 93.2891 386.164 93.3594 386.461 93.4531ZM396.938 99.0547V119H389.039V93.6406H396.445L396.938 99.0547ZM396 105.453L394.148 105.5C394.148 103.562 394.383 101.836 394.852 100.32C395.32 98.7891 395.984 97.4922 396.844 96.4297C397.703 95.3672 398.727 94.5625 399.914 94.0156C401.117 93.4531 402.453 93.1719 403.922 93.1719C405.094 93.1719 406.164 93.3438 407.133 93.6875C408.117 94.0312 408.961 94.5859 409.664 95.3516C410.383 96.1172 410.93 97.1328 411.305 98.3984C411.695 99.6484 411.891 101.195 411.891 103.039V119H403.945V103.016C403.945 102 403.805 101.227 403.523 100.695C403.242 100.148 402.836 99.7734 402.305 99.5703C401.773 99.3672 401.125 99.2656 400.359 99.2656C399.547 99.2656 398.859 99.4219 398.297 99.7344C397.734 100.047 397.281 100.484 396.938 101.047C396.609 101.594 396.367 102.242 396.211 102.992C396.07 103.742 396 104.562 396 105.453ZM424.617 93.6406V119H416.695V93.6406H424.617ZM416.227 87.1016C416.227 85.9766 416.633 85.0547 417.445 84.3359C418.258 83.6172 419.312 83.2578 420.609 83.2578C421.906 83.2578 422.961 83.6172 423.773 84.3359C424.586 85.0547 424.992 85.9766 424.992 87.1016C424.992 88.2266 424.586 89.1484 423.773 89.8672C422.961 90.5859 421.906 90.9453 420.609 90.9453C419.312 90.9453 418.258 90.5859 417.445 89.8672C416.633 89.1484 416.227 88.2266 416.227 87.1016ZM437.25 99.0547V119H429.352V93.6406H436.758L437.25 99.0547ZM436.312 105.453L434.461 105.5C434.461 103.562 434.695 101.836 435.164 100.32C435.633 98.7891 436.297 97.4922 437.156 96.4297C438.016 95.3672 439.039 94.5625 440.227 94.0156C441.43 93.4531 442.766 93.1719 444.234 93.1719C445.406 93.1719 446.477 93.3438 447.445 93.6875C448.43 94.0312 449.273 94.5859 449.977 95.3516C450.695 96.1172 451.242 97.1328 451.617 98.3984C452.008 99.6484 452.203 101.195 452.203 103.039V119H444.258V103.016C444.258 102 444.117 101.227 443.836 100.695C443.555 100.148 443.148 99.7734 442.617 99.5703C442.086 99.3672 441.438 99.2656 440.672 99.2656C439.859 99.2656 439.172 99.4219 438.609 99.7344C438.047 100.047 437.594 100.484 437.25 101.047C436.922 101.594 436.68 102.242 436.523 102.992C436.383 103.742 436.312 104.562 436.312 105.453ZM472.523 93.6406H479.695V118.016C479.695 120.359 479.156 122.344 478.078 123.969C477 125.609 475.492 126.852 473.555 127.695C471.633 128.555 469.383 128.984 466.805 128.984C465.664 128.984 464.5 128.836 463.312 128.539C462.125 128.258 461.016 127.836 459.984 127.273C458.953 126.711 458.086 126.016 457.383 125.188L460.688 120.547C461.328 121.266 462.133 121.875 463.102 122.375C464.07 122.891 465.211 123.148 466.523 123.148C467.664 123.148 468.617 122.945 469.383 122.539C470.164 122.133 470.758 121.539 471.164 120.758C471.57 119.992 471.773 119.062 471.773 117.969V99.6406L472.523 93.6406ZM455.672 106.625V106.133C455.672 104.211 455.906 102.461 456.375 100.883C456.859 99.2891 457.547 97.9219 458.438 96.7812C459.344 95.625 460.438 94.7344 461.719 94.1094C463 93.4844 464.445 93.1719 466.055 93.1719C467.789 93.1719 469.211 93.5078 470.32 94.1797C471.445 94.8359 472.344 95.7578 473.016 96.9453C473.703 98.1328 474.234 99.5234 474.609 101.117C475 102.695 475.328 104.398 475.594 106.227V106.812C475.328 108.531 474.961 110.156 474.492 111.688C474.039 113.203 473.445 114.547 472.711 115.719C471.977 116.891 471.055 117.812 469.945 118.484C468.852 119.141 467.539 119.469 466.008 119.469C464.414 119.469 462.977 119.148 461.695 118.508C460.43 117.867 459.344 116.969 458.438 115.812C457.547 114.656 456.859 113.297 456.375 111.734C455.906 110.172 455.672 108.469 455.672 106.625ZM463.57 106.133V106.625C463.57 107.578 463.656 108.461 463.828 109.273C464.016 110.086 464.297 110.805 464.672 111.43C465.047 112.039 465.508 112.516 466.055 112.859C466.617 113.203 467.273 113.375 468.023 113.375C469.164 113.375 470.086 113.133 470.789 112.648C471.492 112.164 472 111.477 472.312 110.586C472.625 109.695 472.758 108.648 472.711 107.445V105.594C472.742 104.562 472.672 103.656 472.5 102.875C472.328 102.078 472.055 101.414 471.68 100.883C471.32 100.352 470.836 99.9531 470.227 99.6875C469.633 99.4062 468.914 99.2656 468.07 99.2656C467.336 99.2656 466.688 99.4375 466.125 99.7812C465.562 100.125 465.094 100.609 464.719 101.234C464.344 101.844 464.055 102.57 463.852 103.414C463.664 104.242 463.57 105.148 463.57 106.133ZM500.648 84.875H507.352L514.969 108.617L522.586 84.875H529.289L517.688 119H512.25L500.648 84.875ZM496.57 84.875H503.508L504.797 111.031V119H496.57V84.875ZM526.43 84.875H533.391V119H525.141V111.031L526.43 84.875ZM537.305 106.578V106.086C537.305 104.227 537.57 102.516 538.102 100.953C538.633 99.375 539.414 98.0078 540.445 96.8516C541.477 95.6953 542.75 94.7969 544.266 94.1562C545.781 93.5 547.531 93.1719 549.516 93.1719C551.516 93.1719 553.273 93.5 554.789 94.1562C556.32 94.7969 557.602 95.6953 558.633 96.8516C559.664 98.0078 560.445 99.375 560.977 100.953C561.508 102.516 561.773 104.227 561.773 106.086V106.578C561.773 108.422 561.508 110.133 560.977 111.711C560.445 113.273 559.664 114.641 558.633 115.812C557.602 116.969 556.328 117.867 554.812 118.508C553.297 119.148 551.547 119.469 549.562 119.469C547.578 119.469 545.82 119.148 544.289 118.508C542.758 117.867 541.477 116.969 540.445 115.812C539.414 114.641 538.633 113.273 538.102 111.711C537.57 110.133 537.305 108.422 537.305 106.578ZM545.203 106.086V106.578C545.203 107.531 545.273 108.422 545.414 109.25C545.555 110.078 545.789 110.805 546.117 111.43C546.445 112.039 546.891 112.516 547.453 112.859C548.016 113.203 548.719 113.375 549.562 113.375C550.391 113.375 551.078 113.203 551.625 112.859C552.188 112.516 552.633 112.039 552.961 111.43C553.289 110.805 553.523 110.078 553.664 109.25C553.805 108.422 553.875 107.531 553.875 106.578V106.086C553.875 105.164 553.805 104.297 553.664 103.484C553.523 102.656 553.289 101.93 552.961 101.305C552.633 100.664 552.188 100.164 551.625 99.8047C551.062 99.4453 550.359 99.2656 549.516 99.2656C548.688 99.2656 547.992 99.4453 547.43 99.8047C546.883 100.164 546.445 100.664 546.117 101.305C545.789 101.93 545.555 102.656 545.414 103.484C545.273 104.297 545.203 105.164 545.203 106.086ZM579.867 113.188V83H587.812V119H580.688L579.867 113.188ZM564.305 106.625V106.133C564.305 104.211 564.516 102.461 564.938 100.883C565.359 99.2891 565.984 97.9219 566.812 96.7812C567.641 95.625 568.672 94.7344 569.906 94.1094C571.141 93.4844 572.562 93.1719 574.172 93.1719C575.609 93.1719 576.867 93.5078 577.945 94.1797C579.023 94.8359 579.945 95.7578 580.711 96.9453C581.477 98.1328 582.102 99.5234 582.586 101.117C583.07 102.695 583.438 104.398 583.688 106.227V106.812C583.438 108.531 583.07 110.156 582.586 111.688C582.102 113.203 581.477 114.547 580.711 115.719C579.945 116.891 579.016 117.812 577.922 118.484C576.844 119.141 575.578 119.469 574.125 119.469C572.516 119.469 571.094 119.148 569.859 118.508C568.641 117.867 567.617 116.969 566.789 115.812C565.977 114.656 565.359 113.297 564.938 111.734C564.516 110.172 564.305 108.469 564.305 106.625ZM572.203 106.133V106.625C572.203 107.578 572.266 108.461 572.391 109.273C572.516 110.086 572.727 110.805 573.023 111.43C573.336 112.039 573.742 112.516 574.242 112.859C574.758 113.203 575.391 113.375 576.141 113.375C577.156 113.375 577.992 113.133 578.648 112.648C579.32 112.164 579.812 111.477 580.125 110.586C580.453 109.695 580.594 108.648 580.547 107.445V105.594C580.578 104.562 580.508 103.656 580.336 102.875C580.164 102.078 579.891 101.414 579.516 100.883C579.156 100.352 578.695 99.9531 578.133 99.6875C577.586 99.4062 576.938 99.2656 576.188 99.2656C575.453 99.2656 574.828 99.4375 574.312 99.7812C573.812 100.125 573.406 100.609 573.094 101.234C572.781 101.844 572.555 102.57 572.414 103.414C572.273 104.242 572.203 105.148 572.203 106.133ZM604.57 119.469C602.508 119.469 600.664 119.148 599.039 118.508C597.414 117.852 596.039 116.953 594.914 115.812C593.805 114.672 592.953 113.359 592.359 111.875C591.781 110.391 591.492 108.82 591.492 107.164V106.273C591.492 104.414 591.75 102.695 592.266 101.117C592.781 99.5234 593.547 98.1328 594.562 96.9453C595.578 95.7578 596.852 94.8359 598.383 94.1797C599.914 93.5078 601.695 93.1719 603.727 93.1719C605.523 93.1719 607.133 93.4609 608.555 94.0391C609.977 94.6172 611.18 95.4453 612.164 96.5234C613.164 97.6016 613.922 98.9062 614.438 100.438C614.969 101.969 615.234 103.688 615.234 105.594V108.805H594.516V103.859H607.523V103.25C607.539 102.406 607.391 101.688 607.078 101.094C606.781 100.5 606.344 100.047 605.766 99.7344C605.188 99.4219 604.484 99.2656 603.656 99.2656C602.797 99.2656 602.086 99.4531 601.523 99.8281C600.977 100.203 600.547 100.719 600.234 101.375C599.938 102.016 599.727 102.758 599.602 103.602C599.477 104.445 599.414 105.336 599.414 106.273V107.164C599.414 108.102 599.539 108.953 599.789 109.719C600.055 110.484 600.43 111.141 600.914 111.688C601.414 112.219 602.008 112.633 602.695 112.93C603.398 113.227 604.195 113.375 605.086 113.375C606.164 113.375 607.227 113.172 608.273 112.766C609.32 112.359 610.219 111.688 610.969 110.75L614.555 115.016C614.039 115.75 613.305 116.461 612.352 117.148C611.414 117.836 610.289 118.398 608.977 118.836C607.664 119.258 606.195 119.469 604.57 119.469ZM626.789 83V119H618.867V83H626.789Z" fill="black"/>
<path d="M1134 0H1348C1356.28 0 1363 6.71573 1363 15V148C1363 156.284 1356.28 163 1348 163H1134V0Z" fill="#1C658F"/>
<mask id="path-5-outside-1_3_82" maskUnits="userSpaceOnUse" x="1212.5" y="43.5" width="72" height="76" fill="black">
<rect fill="white" x="1212.5" y="43.5" width="72" height="76"/>
<path d="M1257.78 110.795L1258.17 117.033C1258.2 117.55 1257.82 118.005 1257.3 118.082C1255.41 118.359 1253.48 118.5 1251.56 118.5C1249.65 118.5 1247.72 118.359 1245.83 118.082C1245.3 118.005 1244.93 117.55 1244.96 117.033L1245.29 111.677C1241.26 110.891 1237.48 109.371 1234.05 107.148L1230.39 111.163C1230.04 111.55 1229.44 111.612 1229.01 111.305C1225.91 109.088 1223.19 106.436 1220.9 103.423C1220.59 103.006 1220.65 102.425 1221.05 102.081L1225.18 98.5235C1222.89 95.1861 1221.33 91.5191 1220.52 87.5987L1215.01 87.921C1214.48 87.9525 1214.01 87.5844 1213.93 87.0723C1213.64 85.2408 1213.5 83.3658 1213.5 81.4989C1213.5 79.6323 1213.64 77.7573 1213.93 75.9255C1214.01 75.4134 1214.48 75.037 1215.01 75.0768L1220.52 75.3991C1221.33 71.48 1222.89 67.8127 1225.18 64.4753L1221.05 60.9166C1220.65 60.5732 1220.59 59.9915 1220.9 59.5751C1223.18 56.565 1225.91 53.9132 1229.01 51.6928C1229.44 51.3858 1230.04 51.448 1230.39 51.8344L1234.05 55.8498C1237.51 53.619 1241.42 52.0541 1245.48 51.2839L1245.04 45.9743C1245 45.4495 1245.38 44.9818 1245.92 44.9043C1249.64 44.3652 1253.49 44.3652 1257.21 44.9043C1257.75 44.9818 1258.13 45.4496 1258.09 45.9743L1257.57 52.1893C1257.52 52.7401 1257.02 53.1503 1256.46 53.105C1255.89 53.0601 1255.47 52.5776 1255.52 52.0273L1255.96 46.7572C1253.05 46.4128 1250.08 46.4128 1247.17 46.7572L1247.61 52.0268C1247.66 52.546 1247.28 53.0109 1246.75 53.0949C1242.36 53.7915 1238.12 55.4843 1234.48 57.9899C1234.05 58.2849 1233.46 58.2181 1233.11 57.8373L1229.48 53.8537C1227.1 55.6511 1224.97 57.7247 1223.12 60.034L1227.22 63.565C1227.61 63.9035 1227.68 64.4749 1227.38 64.8912C1224.81 68.4236 1223.12 72.3693 1222.38 76.6188C1222.29 77.1218 1221.82 77.4795 1221.3 77.4485L1215.84 77.1288C1215.65 78.5723 1215.56 80.0384 1215.56 81.499C1215.56 82.9599 1215.65 84.4259 1215.84 85.8692L1221.3 85.5495C1221.82 85.5157 1222.29 85.8767 1222.38 86.3793C1223.12 90.6301 1224.81 94.5761 1227.38 98.1078C1227.68 98.5242 1227.61 99.0954 1227.22 99.434L1223.12 102.964C1224.97 105.276 1227.11 107.349 1229.48 109.144L1233.11 105.161C1233.46 104.779 1234.05 104.713 1234.48 105.008C1238.11 107.508 1242.17 109.143 1246.54 109.869C1247.06 109.955 1247.43 110.406 1247.4 110.915L1247.07 116.229C1250.04 116.589 1253.09 116.589 1256.06 116.229L1255.73 110.915C1255.7 110.363 1256.13 109.89 1256.7 109.857C1257.26 109.827 1257.75 110.244 1257.78 110.795ZM1279.87 67.5195C1281.52 67.5195 1282.86 68.8234 1282.86 70.4259C1282.86 72.0285 1281.52 73.3323 1279.87 73.3323C1279.49 73.3323 1279.13 73.2564 1278.8 73.131L1276 75.947C1275.8 76.142 1275.54 76.2524 1275.26 76.2524H1260.97C1260.4 76.2524 1259.94 75.8048 1259.94 75.2524C1259.94 74.7 1260.4 74.2524 1260.97 74.2524H1274.82L1277.25 71.8052C1277.02 71.3928 1276.88 70.9277 1276.88 70.4261C1276.88 68.8232 1278.22 67.5195 1279.87 67.5195ZM1278.93 70.4259C1278.93 70.9256 1279.35 71.3321 1279.87 71.3321C1280.38 71.3321 1280.8 70.9256 1280.8 70.4259C1280.8 69.9263 1280.38 69.5197 1279.87 69.5197C1279.35 69.5196 1278.93 69.9261 1278.93 70.4259ZM1268.7 64.8892L1272.51 59.5583C1272.12 59.0691 1271.89 58.4651 1271.89 57.8029C1271.89 56.2003 1273.23 54.8965 1274.87 54.8965C1276.52 54.8965 1277.86 56.2003 1277.86 57.8029C1277.86 59.4054 1276.52 60.7092 1274.87 60.7092C1274.66 60.7092 1274.45 60.6835 1274.24 60.6403L1270.08 66.4604C1269.89 66.729 1269.57 66.8895 1269.23 66.8895H1257.92C1257.35 66.8895 1256.89 66.4419 1256.89 65.8895C1256.89 65.3371 1257.35 64.8895 1257.92 64.8895H1268.7V64.8892ZM1273.94 57.8029C1273.94 58.3025 1274.36 58.7091 1274.87 58.7091C1275.39 58.7091 1275.81 58.3025 1275.81 57.8029C1275.81 57.3032 1275.39 56.8967 1274.87 56.8967C1274.36 56.8965 1273.94 57.3031 1273.94 57.8029ZM1277.62 105.196C1277.62 106.798 1276.28 108.102 1274.63 108.102C1272.98 108.102 1271.64 106.798 1271.64 105.196C1271.64 104.412 1271.96 103.703 1272.48 103.179L1268.69 97.8852H1257.92C1257.35 97.8852 1256.89 97.4376 1256.89 96.8852C1256.89 96.3328 1257.35 95.8852 1257.92 95.8852H1269.23C1269.57 95.8852 1269.89 96.0456 1270.08 96.3143L1274.37 102.315C1274.46 102.307 1274.54 102.289 1274.63 102.289C1276.28 102.289 1277.62 103.593 1277.62 105.196ZM1275.56 105.196C1275.56 104.696 1275.14 104.289 1274.63 104.289C1274.11 104.289 1273.69 104.696 1273.69 105.196C1273.69 105.695 1274.11 106.102 1274.63 106.102C1275.14 106.102 1275.56 105.695 1275.56 105.196ZM1282.61 92.8506C1282.61 94.4532 1281.27 95.757 1279.62 95.757C1277.97 95.757 1276.63 94.4532 1276.63 92.8506C1276.63 92.2267 1276.84 91.6518 1277.18 91.1777L1274.82 88.8004H1260.97C1260.4 88.8004 1259.94 88.3528 1259.94 87.8004C1259.94 87.248 1260.4 86.8004 1260.97 86.8004H1275.26C1275.54 86.8004 1275.8 86.9109 1276 87.1058L1278.91 90.0363C1279.14 89.9817 1279.37 89.9444 1279.62 89.9444C1281.27 89.9443 1282.61 91.2479 1282.61 92.8506ZM1280.55 92.8506C1280.55 92.351 1280.13 91.9444 1279.62 91.9444C1279.11 91.9444 1278.69 92.351 1278.69 92.8506C1278.69 93.3503 1279.11 93.7569 1279.62 93.7569C1280.13 93.7569 1280.55 93.3503 1280.55 92.8506ZM1283.5 81.5261C1283.5 83.1286 1282.16 84.4324 1280.51 84.4324C1279.22 84.4324 1278.14 83.6352 1277.71 82.5258H1255.16V100.204C1255.16 103.826 1252.13 106.773 1248.41 106.773C1245.68 106.773 1243.27 105.218 1242.21 102.835C1242.17 102.836 1242.13 102.837 1242.08 102.837C1238.36 102.837 1235.33 99.8896 1235.33 96.2674C1235.33 96.0939 1235.33 95.9203 1235.35 95.7475C1233.74 95.4353 1232.22 94.6326 1230.98 93.4249C1229.39 91.8756 1228.51 89.8161 1228.51 87.6253C1228.51 85.4345 1229.39 83.3749 1230.98 81.826C1231.1 81.7098 1231.23 81.6079 1231.36 81.4992C1231.23 81.3903 1231.1 81.2884 1230.98 81.1724C1229.39 79.6232 1228.51 77.5636 1228.51 75.3731C1228.51 73.1823 1229.39 71.1227 1230.98 69.5735C1232.22 68.3658 1233.74 67.563 1235.35 67.2509C1235.33 67.078 1235.33 66.9046 1235.33 66.731C1235.33 63.1085 1238.36 60.1615 1242.08 60.1615C1242.13 60.1615 1242.17 60.1618 1242.21 60.1628C1243.27 57.7799 1245.68 56.2252 1248.41 56.2252C1252.13 56.2252 1255.16 59.1721 1255.16 62.7944V80.5259H1277.71C1278.14 79.4168 1279.22 78.62 1280.51 78.62C1282.16 78.6198 1283.5 79.9235 1283.5 81.5261ZM1232.44 79.7581C1232.72 80.0356 1233.05 80.2792 1233.39 80.499H1253.11V62.7941C1253.11 60.2745 1251 58.225 1248.41 58.225C1246.68 58.225 1245.14 59.1203 1244.32 60.5297C1245.15 60.813 1245.92 61.2544 1246.59 61.8364C1246.6 61.8432 1246.6 61.8529 1246.61 61.8598C1246.99 61.6858 1247.42 61.5815 1247.87 61.5815C1249.51 61.5815 1250.86 62.8853 1250.86 64.4874C1250.86 66.09 1249.51 67.3938 1247.87 67.3938C1246.22 67.3938 1244.88 66.09 1244.88 64.4874C1244.88 64.0541 1244.98 63.6465 1245.16 63.2768C1244.3 62.5582 1243.22 62.1612 1242.08 62.1612C1239.49 62.1612 1237.38 64.2111 1237.38 66.7307C1237.38 66.8749 1237.4 67.0183 1237.41 67.1615C1238.63 67.284 1239.8 67.6579 1240.85 68.27C1241.31 67.9875 1241.85 67.8176 1242.43 67.8176C1244.08 67.8176 1245.42 69.1214 1245.42 70.7239C1245.42 72.3262 1244.08 73.6299 1242.43 73.6299C1240.78 73.6299 1239.44 72.3261 1239.44 70.7239C1239.44 70.43 1239.5 70.1516 1239.58 69.8839C1238.66 69.388 1237.63 69.1172 1236.55 69.1139C1235.06 69.1935 1233.6 69.857 1232.44 70.9873C1231.23 72.1588 1230.57 73.7162 1230.57 75.3728C1230.57 77.0293 1231.23 78.5866 1232.44 79.7581ZM1241.5 70.7241C1241.5 71.2237 1241.92 71.63 1242.43 71.63C1242.95 71.63 1243.36 71.2237 1243.36 70.7241C1243.36 70.2244 1242.95 69.8179 1242.43 69.8179C1241.92 69.8177 1241.5 70.2243 1241.5 70.7241ZM1247.87 65.3938C1248.38 65.3938 1248.8 64.9872 1248.8 64.4876C1248.8 63.9879 1248.38 63.5816 1247.87 63.5816C1247.35 63.5816 1246.93 63.9879 1246.93 64.4876C1246.93 64.9872 1247.35 65.3938 1247.87 65.3938ZM1253.11 100.204V82.499H1233.37C1233.03 82.7166 1232.72 82.9651 1232.44 83.2399C1231.23 84.4112 1230.57 85.9685 1230.57 87.6251C1230.57 89.2817 1231.23 90.8391 1232.44 92.0106C1233.6 93.1409 1235.06 93.8044 1236.55 93.884C1237.61 93.8807 1238.63 93.62 1239.54 93.1388C1239.48 92.9112 1239.44 92.6768 1239.44 92.4315C1239.44 90.8289 1240.78 89.5251 1242.43 89.5251C1244.08 89.5251 1245.42 90.8289 1245.42 92.4315C1245.42 94.0341 1244.08 95.3379 1242.43 95.3379C1241.79 95.3379 1241.2 95.1364 1240.71 94.8008C1239.7 95.3682 1238.58 95.7192 1237.41 95.8365C1237.4 95.9797 1237.38 96.1231 1237.38 96.2674C1237.38 98.787 1239.49 100.836 1242.08 100.836C1243.19 100.836 1244.26 100.455 1245.1 99.7652C1244.96 99.4261 1244.88 99.0564 1244.88 98.6677C1244.88 97.0652 1246.22 95.7614 1247.87 95.7614C1249.51 95.7614 1250.86 97.0652 1250.86 98.6677C1250.86 100.27 1249.51 101.574 1247.87 101.574C1247.37 101.574 1246.91 101.445 1246.5 101.236C1245.85 101.779 1245.11 102.198 1244.32 102.468C1245.14 103.878 1246.68 104.773 1248.41 104.773C1251 104.773 1253.11 102.724 1253.11 100.204ZM1247.87 99.5741C1248.38 99.5741 1248.8 99.1675 1248.8 98.6679C1248.8 98.1682 1248.38 97.7617 1247.87 97.7617C1247.35 97.7617 1246.93 98.1682 1246.93 98.6679C1246.93 99.1675 1247.35 99.5741 1247.87 99.5741ZM1242.43 93.3379C1242.95 93.3379 1243.36 92.9313 1243.36 92.4316C1243.36 91.932 1242.95 91.5254 1242.43 91.5254C1241.92 91.5254 1241.5 91.932 1241.5 92.4316C1241.5 92.5993 1241.55 92.7544 1241.63 92.8892C1241.65 92.9087 1241.67 92.9252 1241.68 92.9463C1241.7 92.9687 1241.71 92.9933 1241.73 93.0166C1241.9 93.2114 1242.15 93.3379 1242.43 93.3379ZM1281.44 81.5261C1281.44 81.0264 1281.02 80.6198 1280.51 80.6198C1280 80.6198 1279.58 81.0264 1279.58 81.5261C1279.58 82.0257 1280 82.4323 1280.51 82.4323C1281.02 82.4323 1281.44 82.0257 1281.44 81.5261Z"/>
</mask>
<path d="M1257.78 110.795L1258.17 117.033C1258.2 117.55 1257.82 118.005 1257.3 118.082C1255.41 118.359 1253.48 118.5 1251.56 118.5C1249.65 118.5 1247.72 118.359 1245.83 118.082C1245.3 118.005 1244.93 117.55 1244.96 117.033L1245.29 111.677C1241.26 110.891 1237.48 109.371 1234.05 107.148L1230.39 111.163C1230.04 111.55 1229.44 111.612 1229.01 111.305C1225.91 109.088 1223.19 106.436 1220.9 103.423C1220.59 103.006 1220.65 102.425 1221.05 102.081L1225.18 98.5235C1222.89 95.1861 1221.33 91.5191 1220.52 87.5987L1215.01 87.921C1214.48 87.9525 1214.01 87.5844 1213.93 87.0723C1213.64 85.2408 1213.5 83.3658 1213.5 81.4989C1213.5 79.6323 1213.64 77.7573 1213.93 75.9255C1214.01 75.4134 1214.48 75.037 1215.01 75.0768L1220.52 75.3991C1221.33 71.48 1222.89 67.8127 1225.18 64.4753L1221.05 60.9166C1220.65 60.5732 1220.59 59.9915 1220.9 59.5751C1223.18 56.565 1225.91 53.9132 1229.01 51.6928C1229.44 51.3858 1230.04 51.448 1230.39 51.8344L1234.05 55.8498C1237.51 53.619 1241.42 52.0541 1245.48 51.2839L1245.04 45.9743C1245 45.4495 1245.38 44.9818 1245.92 44.9043C1249.64 44.3652 1253.49 44.3652 1257.21 44.9043C1257.75 44.9818 1258.13 45.4496 1258.09 45.9743L1257.57 52.1893C1257.52 52.7401 1257.02 53.1503 1256.46 53.105C1255.89 53.0601 1255.47 52.5776 1255.52 52.0273L1255.96 46.7572C1253.05 46.4128 1250.08 46.4128 1247.17 46.7572L1247.61 52.0268C1247.66 52.546 1247.28 53.0109 1246.75 53.0949C1242.36 53.7915 1238.12 55.4843 1234.48 57.9899C1234.05 58.2849 1233.46 58.2181 1233.11 57.8373L1229.48 53.8537C1227.1 55.6511 1224.97 57.7247 1223.12 60.034L1227.22 63.565C1227.61 63.9035 1227.68 64.4749 1227.38 64.8912C1224.81 68.4236 1223.12 72.3693 1222.38 76.6188C1222.29 77.1218 1221.82 77.4795 1221.3 77.4485L1215.84 77.1288C1215.65 78.5723 1215.56 80.0384 1215.56 81.499C1215.56 82.9599 1215.65 84.4259 1215.84 85.8692L1221.3 85.5495C1221.82 85.5157 1222.29 85.8767 1222.38 86.3793C1223.12 90.6301 1224.81 94.5761 1227.38 98.1078C1227.68 98.5242 1227.61 99.0954 1227.22 99.434L1223.12 102.964C1224.97 105.276 1227.11 107.349 1229.48 109.144L1233.11 105.161C1233.46 104.779 1234.05 104.713 1234.48 105.008C1238.11 107.508 1242.17 109.143 1246.54 109.869C1247.06 109.955 1247.43 110.406 1247.4 110.915L1247.07 116.229C1250.04 116.589 1253.09 116.589 1256.06 116.229L1255.73 110.915C1255.7 110.363 1256.13 109.89 1256.7 109.857C1257.26 109.827 1257.75 110.244 1257.78 110.795ZM1279.87 67.5195C1281.52 67.5195 1282.86 68.8234 1282.86 70.4259C1282.86 72.0285 1281.52 73.3323 1279.87 73.3323C1279.49 73.3323 1279.13 73.2564 1278.8 73.131L1276 75.947C1275.8 76.142 1275.54 76.2524 1275.26 76.2524H1260.97C1260.4 76.2524 1259.94 75.8048 1259.94 75.2524C1259.94 74.7 1260.4 74.2524 1260.97 74.2524H1274.82L1277.25 71.8052C1277.02 71.3928 1276.88 70.9277 1276.88 70.4261C1276.88 68.8232 1278.22 67.5195 1279.87 67.5195ZM1278.93 70.4259C1278.93 70.9256 1279.35 71.3321 1279.87 71.3321C1280.38 71.3321 1280.8 70.9256 1280.8 70.4259C1280.8 69.9263 1280.38 69.5197 1279.87 69.5197C1279.35 69.5196 1278.93 69.9261 1278.93 70.4259ZM1268.7 64.8892L1272.51 59.5583C1272.12 59.0691 1271.89 58.4651 1271.89 57.8029C1271.89 56.2003 1273.23 54.8965 1274.87 54.8965C1276.52 54.8965 1277.86 56.2003 1277.86 57.8029C1277.86 59.4054 1276.52 60.7092 1274.87 60.7092C1274.66 60.7092 1274.45 60.6835 1274.24 60.6403L1270.08 66.4604C1269.89 66.729 1269.57 66.8895 1269.23 66.8895H1257.92C1257.35 66.8895 1256.89 66.4419 1256.89 65.8895C1256.89 65.3371 1257.35 64.8895 1257.92 64.8895H1268.7V64.8892ZM1273.94 57.8029C1273.94 58.3025 1274.36 58.7091 1274.87 58.7091C1275.39 58.7091 1275.81 58.3025 1275.81 57.8029C1275.81 57.3032 1275.39 56.8967 1274.87 56.8967C1274.36 56.8965 1273.94 57.3031 1273.94 57.8029ZM1277.62 105.196C1277.62 106.798 1276.28 108.102 1274.63 108.102C1272.98 108.102 1271.64 106.798 1271.64 105.196C1271.64 104.412 1271.96 103.703 1272.48 103.179L1268.69 97.8852H1257.92C1257.35 97.8852 1256.89 97.4376 1256.89 96.8852C1256.89 96.3328 1257.35 95.8852 1257.92 95.8852H1269.23C1269.57 95.8852 1269.89 96.0456 1270.08 96.3143L1274.37 102.315C1274.46 102.307 1274.54 102.289 1274.63 102.289C1276.28 102.289 1277.62 103.593 1277.62 105.196ZM1275.56 105.196C1275.56 104.696 1275.14 104.289 1274.63 104.289C1274.11 104.289 1273.69 104.696 1273.69 105.196C1273.69 105.695 1274.11 106.102 1274.63 106.102C1275.14 106.102 1275.56 105.695 1275.56 105.196ZM1282.61 92.8506C1282.61 94.4532 1281.27 95.757 1279.62 95.757C1277.97 95.757 1276.63 94.4532 1276.63 92.8506C1276.63 92.2267 1276.84 91.6518 1277.18 91.1777L1274.82 88.8004H1260.97C1260.4 88.8004 1259.94 88.3528 1259.94 87.8004C1259.94 87.248 1260.4 86.8004 1260.97 86.8004H1275.26C1275.54 86.8004 1275.8 86.9109 1276 87.1058L1278.91 90.0363C1279.14 89.9817 1279.37 89.9444 1279.62 89.9444C1281.27 89.9443 1282.61 91.2479 1282.61 92.8506ZM1280.55 92.8506C1280.55 92.351 1280.13 91.9444 1279.62 91.9444C1279.11 91.9444 1278.69 92.351 1278.69 92.8506C1278.69 93.3503 1279.11 93.7569 1279.62 93.7569C1280.13 93.7569 1280.55 93.3503 1280.55 92.8506ZM1283.5 81.5261C1283.5 83.1286 1282.16 84.4324 1280.51 84.4324C1279.22 84.4324 1278.14 83.6352 1277.71 82.5258H1255.16V100.204C1255.16 103.826 1252.13 106.773 1248.41 106.773C1245.68 106.773 1243.27 105.218 1242.21 102.835C1242.17 102.836 1242.13 102.837 1242.08 102.837C1238.36 102.837 1235.33 99.8896 1235.33 96.2674C1235.33 96.0939 1235.33 95.9203 1235.35 95.7475C1233.74 95.4353 1232.22 94.6326 1230.98 93.4249C1229.39 91.8756 1228.51 89.8161 1228.51 87.6253C1228.51 85.4345 1229.39 83.3749 1230.98 81.826C1231.1 81.7098 1231.23 81.6079 1231.36 81.4992C1231.23 81.3903 1231.1 81.2884 1230.98 81.1724C1229.39 79.6232 1228.51 77.5636 1228.51 75.3731C1228.51 73.1823 1229.39 71.1227 1230.98 69.5735C1232.22 68.3658 1233.74 67.563 1235.35 67.2509C1235.33 67.078 1235.33 66.9046 1235.33 66.731C1235.33 63.1085 1238.36 60.1615 1242.08 60.1615C1242.13 60.1615 1242.17 60.1618 1242.21 60.1628C1243.27 57.7799 1245.68 56.2252 1248.41 56.2252C1252.13 56.2252 1255.16 59.1721 1255.16 62.7944V80.5259H1277.71C1278.14 79.4168 1279.22 78.62 1280.51 78.62C1282.16 78.6198 1283.5 79.9235 1283.5 81.5261ZM1232.44 79.7581C1232.72 80.0356 1233.05 80.2792 1233.39 80.499H1253.11V62.7941C1253.11 60.2745 1251 58.225 1248.41 58.225C1246.68 58.225 1245.14 59.1203 1244.32 60.5297C1245.15 60.813 1245.92 61.2544 1246.59 61.8364C1246.6 61.8432 1246.6 61.8529 1246.61 61.8598C1246.99 61.6858 1247.42 61.5815 1247.87 61.5815C1249.51 61.5815 1250.86 62.8853 1250.86 64.4874C1250.86 66.09 1249.51 67.3938 1247.87 67.3938C1246.22 67.3938 1244.88 66.09 1244.88 64.4874C1244.88 64.0541 1244.98 63.6465 1245.16 63.2768C1244.3 62.5582 1243.22 62.1612 1242.08 62.1612C1239.49 62.1612 1237.38 64.2111 1237.38 66.7307C1237.38 66.8749 1237.4 67.0183 1237.41 67.1615C1238.63 67.284 1239.8 67.6579 1240.85 68.27C1241.31 67.9875 1241.85 67.8176 1242.43 67.8176C1244.08 67.8176 1245.42 69.1214 1245.42 70.7239C1245.42 72.3262 1244.08 73.6299 1242.43 73.6299C1240.78 73.6299 1239.44 72.3261 1239.44 70.7239C1239.44 70.43 1239.5 70.1516 1239.58 69.8839C1238.66 69.388 1237.63 69.1172 1236.55 69.1139C1235.06 69.1935 1233.6 69.857 1232.44 70.9873C1231.23 72.1588 1230.57 73.7162 1230.57 75.3728C1230.57 77.0293 1231.23 78.5866 1232.44 79.7581ZM1241.5 70.7241C1241.5 71.2237 1241.92 71.63 1242.43 71.63C1242.95 71.63 1243.36 71.2237 1243.36 70.7241C1243.36 70.2244 1242.95 69.8179 1242.43 69.8179C1241.92 69.8177 1241.5 70.2243 1241.5 70.7241ZM1247.87 65.3938C1248.38 65.3938 1248.8 64.9872 1248.8 64.4876C1248.8 63.9879 1248.38 63.5816 1247.87 63.5816C1247.35 63.5816 1246.93 63.9879 1246.93 64.4876C1246.93 64.9872 1247.35 65.3938 1247.87 65.3938ZM1253.11 100.204V82.499H1233.37C1233.03 82.7166 1232.72 82.9651 1232.44 83.2399C1231.23 84.4112 1230.57 85.9685 1230.57 87.6251C1230.57 89.2817 1231.23 90.8391 1232.44 92.0106C1233.6 93.1409 1235.06 93.8044 1236.55 93.884C1237.61 93.8807 1238.63 93.62 1239.54 93.1388C1239.48 92.9112 1239.44 92.6768 1239.44 92.4315C1239.44 90.8289 1240.78 89.5251 1242.43 89.5251C1244.08 89.5251 1245.42 90.8289 1245.42 92.4315C1245.42 94.0341 1244.08 95.3379 1242.43 95.3379C1241.79 95.3379 1241.2 95.1364 1240.71 94.8008C1239.7 95.3682 1238.58 95.7192 1237.41 95.8365C1237.4 95.9797 1237.38 96.1231 1237.38 96.2674C1237.38 98.787 1239.49 100.836 1242.08 100.836C1243.19 100.836 1244.26 100.455 1245.1 99.7652C1244.96 99.4261 1244.88 99.0564 1244.88 98.6677C1244.88 97.0652 1246.22 95.7614 1247.87 95.7614C1249.51 95.7614 1250.86 97.0652 1250.86 98.6677C1250.86 100.27 1249.51 101.574 1247.87 101.574C1247.37 101.574 1246.91 101.445 1246.5 101.236C1245.85 101.779 1245.11 102.198 1244.32 102.468C1245.14 103.878 1246.68 104.773 1248.41 104.773C1251 104.773 1253.11 102.724 1253.11 100.204ZM1247.87 99.5741C1248.38 99.5741 1248.8 99.1675 1248.8 98.6679C1248.8 98.1682 1248.38 97.7617 1247.87 97.7617C1247.35 97.7617 1246.93 98.1682 1246.93 98.6679C1246.93 99.1675 1247.35 99.5741 1247.87 99.5741ZM1242.43 93.3379C1242.95 93.3379 1243.36 92.9313 1243.36 92.4316C1243.36 91.932 1242.95 91.5254 1242.43 91.5254C1241.92 91.5254 1241.5 91.932 1241.5 92.4316C1241.5 92.5993 1241.55 92.7544 1241.63 92.8892C1241.65 92.9087 1241.67 92.9252 1241.68 92.9463C1241.7 92.9687 1241.71 92.9933 1241.73 93.0166C1241.9 93.2114 1242.15 93.3379 1242.43 93.3379ZM1281.44 81.5261C1281.44 81.0264 1281.02 80.6198 1280.51 80.6198C1280 80.6198 1279.58 81.0264 1279.58 81.5261C1279.58 82.0257 1280 82.4323 1280.51 82.4323C1281.02 82.4323 1281.44 82.0257 1281.44 81.5261Z" fill="white"/>
<path d="M1257.78 110.795L1258.17 117.033C1258.2 117.55 1257.82 118.005 1257.3 118.082C1255.41 118.359 1253.48 118.5 1251.56 118.5C1249.65 118.5 1247.72 118.359 1245.83 118.082C1245.3 118.005 1244.93 117.55 1244.96 117.033L1245.29 111.677C1241.26 110.891 1237.48 109.371 1234.05 107.148L1230.39 111.163C1230.04 111.55 1229.44 111.612 1229.01 111.305C1225.91 109.088 1223.19 106.436 1220.9 103.423C1220.59 103.006 1220.65 102.425 1221.05 102.081L1225.18 98.5235C1222.89 95.1861 1221.33 91.5191 1220.52 87.5987L1215.01 87.921C1214.48 87.9525 1214.01 87.5844 1213.93 87.0723C1213.64 85.2408 1213.5 83.3658 1213.5 81.4989C1213.5 79.6323 1213.64 77.7573 1213.93 75.9255C1214.01 75.4134 1214.48 75.037 1215.01 75.0768L1220.52 75.3991C1221.33 71.48 1222.89 67.8127 1225.18 64.4753L1221.05 60.9166C1220.65 60.5732 1220.59 59.9915 1220.9 59.5751C1223.18 56.565 1225.91 53.9132 1229.01 51.6928C1229.44 51.3858 1230.04 51.448 1230.39 51.8344L1234.05 55.8498C1237.51 53.619 1241.42 52.0541 1245.48 51.2839L1245.04 45.9743C1245 45.4495 1245.38 44.9818 1245.92 44.9043C1249.64 44.3652 1253.49 44.3652 1257.21 44.9043C1257.75 44.9818 1258.13 45.4496 1258.09 45.9743L1257.57 52.1893C1257.52 52.7401 1257.02 53.1503 1256.46 53.105C1255.89 53.0601 1255.47 52.5776 1255.52 52.0273L1255.96 46.7572C1253.05 46.4128 1250.08 46.4128 1247.17 46.7572L1247.61 52.0268C1247.66 52.546 1247.28 53.0109 1246.75 53.0949C1242.36 53.7915 1238.12 55.4843 1234.48 57.9899C1234.05 58.2849 1233.46 58.2181 1233.11 57.8373L1229.48 53.8537C1227.1 55.6511 1224.97 57.7247 1223.12 60.034L1227.22 63.565C1227.61 63.9035 1227.68 64.4749 1227.38 64.8912C1224.81 68.4236 1223.12 72.3693 1222.38 76.6188C1222.29 77.1218 1221.82 77.4795 1221.3 77.4485L1215.84 77.1288C1215.65 78.5723 1215.56 80.0384 1215.56 81.499C1215.56 82.9599 1215.65 84.4259 1215.84 85.8692L1221.3 85.5495C1221.82 85.5157 1222.29 85.8767 1222.38 86.3793C1223.12 90.6301 1224.81 94.5761 1227.38 98.1078C1227.68 98.5242 1227.61 99.0954 1227.22 99.434L1223.12 102.964C1224.97 105.276 1227.11 107.349 1229.48 109.144L1233.11 105.161C1233.46 104.779 1234.05 104.713 1234.48 105.008C1238.11 107.508 1242.17 109.143 1246.54 109.869C1247.06 109.955 1247.43 110.406 1247.4 110.915L1247.07 116.229C1250.04 116.589 1253.09 116.589 1256.06 116.229L1255.73 110.915C1255.7 110.363 1256.13 109.89 1256.7 109.857C1257.26 109.827 1257.75 110.244 1257.78 110.795ZM1279.87 67.5195C1281.52 67.5195 1282.86 68.8234 1282.86 70.4259C1282.86 72.0285 1281.52 73.3323 1279.87 73.3323C1279.49 73.3323 1279.13 73.2564 1278.8 73.131L1276 75.947C1275.8 76.142 1275.54 76.2524 1275.26 76.2524H1260.97C1260.4 76.2524 1259.94 75.8048 1259.94 75.2524C1259.94 74.7 1260.4 74.2524 1260.97 74.2524H1274.82L1277.25 71.8052C1277.02 71.3928 1276.88 70.9277 1276.88 70.4261C1276.88 68.8232 1278.22 67.5195 1279.87 67.5195ZM1278.93 70.4259C1278.93 70.9256 1279.35 71.3321 1279.87 71.3321C1280.38 71.3321 1280.8 70.9256 1280.8 70.4259C1280.8 69.9263 1280.38 69.5197 1279.87 69.5197C1279.35 69.5196 1278.93 69.9261 1278.93 70.4259ZM1268.7 64.8892L1272.51 59.5583C1272.12 59.0691 1271.89 58.4651 1271.89 57.8029C1271.89 56.2003 1273.23 54.8965 1274.87 54.8965C1276.52 54.8965 1277.86 56.2003 1277.86 57.8029C1277.86 59.4054 1276.52 60.7092 1274.87 60.7092C1274.66 60.7092 1274.45 60.6835 1274.24 60.6403L1270.08 66.4604C1269.89 66.729 1269.57 66.8895 1269.23 66.8895H1257.92C1257.35 66.8895 1256.89 66.4419 1256.89 65.8895C1256.89 65.3371 1257.35 64.8895 1257.92 64.8895H1268.7V64.8892ZM1273.94 57.8029C1273.94 58.3025 1274.36 58.7091 1274.87 58.7091C1275.39 58.7091 1275.81 58.3025 1275.81 57.8029C1275.81 57.3032 1275.39 56.8967 1274.87 56.8967C1274.36 56.8965 1273.94 57.3031 1273.94 57.8029ZM1277.62 105.196C1277.62 106.798 1276.28 108.102 1274.63 108.102C1272.98 108.102 1271.64 106.798 1271.64 105.196C1271.64 104.412 1271.96 103.703 1272.48 103.179L1268.69 97.8852H1257.92C1257.35 97.8852 1256.89 97.4376 1256.89 96.8852C1256.89 96.3328 1257.35 95.8852 1257.92 95.8852H1269.23C1269.57 95.8852 1269.89 96.0456 1270.08 96.3143L1274.37 102.315C1274.46 102.307 1274.54 102.289 1274.63 102.289C1276.28 102.289 1277.62 103.593 1277.62 105.196ZM1275.56 105.196C1275.56 104.696 1275.14 104.289 1274.63 104.289C1274.11 104.289 1273.69 104.696 1273.69 105.196C1273.69 105.695 1274.11 106.102 1274.63 106.102C1275.14 106.102 1275.56 105.695 1275.56 105.196ZM1282.61 92.8506C1282.61 94.4532 1281.27 95.757 1279.62 95.757C1277.97 95.757 1276.63 94.4532 1276.63 92.8506C1276.63 92.2267 1276.84 91.6518 1277.18 91.1777L1274.82 88.8004H1260.97C1260.4 88.8004 1259.94 88.3528 1259.94 87.8004C1259.94 87.248 1260.4 86.8004 1260.97 86.8004H1275.26C1275.54 86.8004 1275.8 86.9109 1276 87.1058L1278.91 90.0363C1279.14 89.9817 1279.37 89.9444 1279.62 89.9444C1281.27 89.9443 1282.61 91.2479 1282.61 92.8506ZM1280.55 92.8506C1280.55 92.351 1280.13 91.9444 1279.62 91.9444C1279.11 91.9444 1278.69 92.351 1278.69 92.8506C1278.69 93.3503 1279.11 93.7569 1279.62 93.7569C1280.13 93.7569 1280.55 93.3503 1280.55 92.8506ZM1283.5 81.5261C1283.5 83.1286 1282.16 84.4324 1280.51 84.4324C1279.22 84.4324 1278.14 83.6352 1277.71 82.5258H1255.16V100.204C1255.16 103.826 1252.13 106.773 1248.41 106.773C1245.68 106.773 1243.27 105.218 1242.21 102.835C1242.17 102.836 1242.13 102.837 1242.08 102.837C1238.36 102.837 1235.33 99.8896 1235.33 96.2674C1235.33 96.0939 1235.33 95.9203 1235.35 95.7475C1233.74 95.4353 1232.22 94.6326 1230.98 93.4249C1229.39 91.8756 1228.51 89.8161 1228.51 87.6253C1228.51 85.4345 1229.39 83.3749 1230.98 81.826C1231.1 81.7098 1231.23 81.6079 1231.36 81.4992C1231.23 81.3903 1231.1 81.2884 1230.98 81.1724C1229.39 79.6232 1228.51 77.5636 1228.51 75.3731C1228.51 73.1823 1229.39 71.1227 1230.98 69.5735C1232.22 68.3658 1233.74 67.563 1235.35 67.2509C1235.33 67.078 1235.33 66.9046 1235.33 66.731C1235.33 63.1085 1238.36 60.1615 1242.08 60.1615C1242.13 60.1615 1242.17 60.1618 1242.21 60.1628C1243.27 57.7799 1245.68 56.2252 1248.41 56.2252C1252.13 56.2252 1255.16 59.1721 1255.16 62.7944V80.5259H1277.71C1278.14 79.4168 1279.22 78.62 1280.51 78.62C1282.16 78.6198 1283.5 79.9235 1283.5 81.5261ZM1232.44 79.7581C1232.72 80.0356 1233.05 80.2792 1233.39 80.499H1253.11V62.7941C1253.11 60.2745 1251 58.225 1248.41 58.225C1246.68 58.225 1245.14 59.1203 1244.32 60.5297C1245.15 60.813 1245.92 61.2544 1246.59 61.8364C1246.6 61.8432 1246.6 61.8529 1246.61 61.8598C1246.99 61.6858 1247.42 61.5815 1247.87 61.5815C1249.51 61.5815 1250.86 62.8853 1250.86 64.4874C1250.86 66.09 1249.51 67.3938 1247.87 67.3938C1246.22 67.3938 1244.88 66.09 1244.88 64.4874C1244.88 64.0541 1244.98 63.6465 1245.16 63.2768C1244.3 62.5582 1243.22 62.1612 1242.08 62.1612C1239.49 62.1612 1237.38 64.2111 1237.38 66.7307C1237.38 66.8749 1237.4 67.0183 1237.41 67.1615C1238.63 67.284 1239.8 67.6579 1240.85 68.27C1241.31 67.9875 1241.85 67.8176 1242.43 67.8176C1244.08 67.8176 1245.42 69.1214 1245.42 70.7239C1245.42 72.3262 1244.08 73.6299 1242.43 73.6299C1240.78 73.6299 1239.44 72.3261 1239.44 70.7239C1239.44 70.43 1239.5 70.1516 1239.58 69.8839C1238.66 69.388 1237.63 69.1172 1236.55 69.1139C1235.06 69.1935 1233.6 69.857 1232.44 70.9873C1231.23 72.1588 1230.57 73.7162 1230.57 75.3728C1230.57 77.0293 1231.23 78.5866 1232.44 79.7581ZM1241.5 70.7241C1241.5 71.2237 1241.92 71.63 1242.43 71.63C1242.95 71.63 1243.36 71.2237 1243.36 70.7241C1243.36 70.2244 1242.95 69.8179 1242.43 69.8179C1241.92 69.8177 1241.5 70.2243 1241.5 70.7241ZM1247.87 65.3938C1248.38 65.3938 1248.8 64.9872 1248.8 64.4876C1248.8 63.9879 1248.38 63.5816 1247.87 63.5816C1247.35 63.5816 1246.93 63.9879 1246.93 64.4876C1246.93 64.9872 1247.35 65.3938 1247.87 65.3938ZM1253.11 100.204V82.499H1233.37C1233.03 82.7166 1232.72 82.9651 1232.44 83.2399C1231.23 84.4112 1230.57 85.9685 1230.57 87.6251C1230.57 89.2817 1231.23 90.8391 1232.44 92.0106C1233.6 93.1409 1235.06 93.8044 1236.55 93.884C1237.61 93.8807 1238.63 93.62 1239.54 93.1388C1239.48 92.9112 1239.44 92.6768 1239.44 92.4315C1239.44 90.8289 1240.78 89.5251 1242.43 89.5251C1244.08 89.5251 1245.42 90.8289 1245.42 92.4315C1245.42 94.0341 1244.08 95.3379 1242.43 95.3379C1241.79 95.3379 1241.2 95.1364 1240.71 94.8008C1239.7 95.3682 1238.58 95.7192 1237.41 95.8365C1237.4 95.9797 1237.38 96.1231 1237.38 96.2674C1237.38 98.787 1239.49 100.836 1242.08 100.836C1243.19 100.836 1244.26 100.455 1245.1 99.7652C1244.96 99.4261 1244.88 99.0564 1244.88 98.6677C1244.88 97.0652 1246.22 95.7614 1247.87 95.7614C1249.51 95.7614 1250.86 97.0652 1250.86 98.6677C1250.86 100.27 1249.51 101.574 1247.87 101.574C1247.37 101.574 1246.91 101.445 1246.5 101.236C1245.85 101.779 1245.11 102.198 1244.32 102.468C1245.14 103.878 1246.68 104.773 1248.41 104.773C1251 104.773 1253.11 102.724 1253.11 100.204ZM1247.87 99.5741C1248.38 99.5741 1248.8 99.1675 1248.8 98.6679C1248.8 98.1682 1248.38 97.7617 1247.87 97.7617C1247.35 97.7617 1246.93 98.1682 1246.93 98.6679C1246.93 99.1675 1247.35 99.5741 1247.87 99.5741ZM1242.43 93.3379C1242.95 93.3379 1243.36 92.9313 1243.36 92.4316C1243.36 91.932 1242.95 91.5254 1242.43 91.5254C1241.92 91.5254 1241.5 91.932 1241.5 92.4316C1241.5 92.5993 1241.55 92.7544 1241.63 92.8892C1241.65 92.9087 1241.67 92.9252 1241.68 92.9463C1241.7 92.9687 1241.71 92.9933 1241.73 93.0166C1241.9 93.2114 1242.15 93.3379 1242.43 93.3379ZM1281.44 81.5261C1281.44 81.0264 1281.02 80.6198 1280.51 80.6198C1280 80.6198 1279.58 81.0264 1279.58 81.5261C1279.58 82.0257 1280 82.4323 1280.51 82.4323C1281.02 82.4323 1281.44 82.0257 1281.44 81.5261Z" stroke="white" mask="url(#path-5-outside-1_3_82)"/>
</svg>
